<svg xmlns="http://www.w3.org/2000/svg" width="115" height="36" viewBox="0 0 115 36" fill="none"><path d="M12.8744 8.21603C13.8928 8.51408 13.9673 8.93631 13.9673 13.7796C13.9673 18.5236 13.7934 19.8896 13.1725 20.0635C12.1541 20.3119 12.8496 20.4857 15.085 20.4857C17.1961 20.4857 17.8668 20.3119 16.5752 20.0635C16.1281 19.989 16.0536 19.7158 15.8798 17.2817C15.7556 15.8163 15.7556 14.5247 15.8301 14.4502C15.9294 14.3509 16.5007 14.8973 17.1465 15.6424C17.7674 16.3876 19.0341 17.7536 19.9283 18.6974L21.5924 20.3616H23.0826C23.9271 20.3616 24.7716 20.4361 24.9951 20.5106C25.2187 20.5851 25.3925 20.5603 25.3925 20.4112C25.3925 20.287 25.0448 20.1132 24.6474 20.0138C23.5545 19.8151 22.4865 18.921 19.7792 15.9405L17.37 13.3325L19.8289 10.9233C21.3688 9.43306 22.6107 8.43956 23.1571 8.2657C23.9519 8.01733 23.8526 7.99249 22.0146 7.96765C20.0276 7.94281 20.0028 7.94281 20.1021 8.51408C20.2015 8.96115 19.7544 9.55725 18.1151 11.2959C16.9478 12.5377 15.9294 13.4567 15.8301 13.3574C15.7556 13.2829 15.7556 12.1403 15.8549 10.824C16.0039 8.56375 16.0536 8.43956 16.6746 8.21603C17.1465 8.04216 16.6497 7.99249 14.7124 7.99249C12.7502 7.99249 12.3032 8.04216 12.8744 8.21603Z" fill="white"></path><path d="M34.0577 12.2146C34.0329 13.7546 33.9583 16.139 33.859 17.505C33.71 19.8646 33.6851 19.9639 33.089 20.1378C32.7165 20.2371 33.3622 20.3117 34.5793 20.3117C36.2186 20.3365 36.5414 20.262 36.0695 20.0881C35.7466 19.9391 35.3741 19.7156 35.2747 19.5417C35.1754 19.3678 35.076 17.7782 35.076 16.0148V12.7611L38.9755 16.5612C41.1364 18.6475 43.024 20.3613 43.173 20.3613C43.3717 20.3613 43.5208 18.7717 43.6698 15.22L43.8933 10.0786L44.5143 9.90475C44.862 9.8054 44.2162 9.73088 43.024 9.73088C41.8567 9.75572 41.1612 9.8054 41.4593 9.85507C41.7573 9.90475 42.105 10.1034 42.2292 10.2525C42.4776 10.5505 42.7756 17.3808 42.5273 17.3808C42.4528 17.3808 40.6148 15.5925 38.4291 13.4068C36.2434 11.2211 34.3806 9.43283 34.2812 9.43283C34.157 9.43283 34.0577 10.6995 34.0577 12.2146Z" fill="white"></path><path d="M50.6536 9.7058C47.9711 10.3267 46.2573 12.3883 46.2573 15.021C46.2573 17.0825 47.2508 18.7218 49.1136 19.6905C50.3307 20.3362 54.3792 20.5846 55.7949 20.1127L56.6891 19.8147V17.7283C56.6891 15.791 56.7387 15.6171 57.2603 15.3936C57.6329 15.2446 57.1361 15.1701 55.5714 15.1949C54.3047 15.1949 53.6092 15.2694 53.9569 15.3688C54.553 15.5178 54.5779 15.642 54.6524 17.5544C54.7269 19.5166 54.7021 19.5663 54.106 19.7153C53.7582 19.7898 52.8889 19.7401 52.1686 19.5911C47.8469 18.6721 46.8534 11.9412 50.8026 10.4509C52.8641 9.65613 56.1426 10.749 56.2172 12.2641C56.242 12.5621 56.3413 12.1896 56.4655 11.4444C56.5897 10.6993 56.6642 10.0784 56.6146 10.0287C56.4655 9.87967 53.2863 9.43259 52.4667 9.45743C51.9948 9.48227 51.1751 9.58162 50.6536 9.7058Z" fill="white"></path><path d="M61.8787 9.65637C59.6681 10.3518 58.8733 12.2395 60.0655 14.0278C60.2642 14.301 61.1584 15.0213 62.0774 15.6422C64.0147 16.9338 64.4866 17.7534 63.8657 18.8214C63.046 20.3117 60.0904 19.9888 59.7675 18.3743C59.5191 17.207 59.1714 17.4802 59.1714 18.8462C59.1714 20.262 59.3452 20.3613 61.9035 20.3613C64.3873 20.3613 65.6043 19.343 65.6291 17.207C65.6291 15.9154 64.6853 14.7232 62.8473 13.7297C61.4316 12.9598 60.761 11.9414 61.1584 11.1715C61.9283 9.73088 64.1637 9.85507 64.9834 11.3702L65.3559 12.0408L65.3808 10.8982C65.3808 9.75572 65.3808 9.75572 64.4618 9.58186C63.2944 9.408 62.6983 9.408 61.8787 9.65637Z" fill="white"></path><path d="M67.3395 10.0041C67.8363 10.2525 68.2585 11.1963 69.6991 15.3193C70.6678 18.1011 71.5867 20.3613 71.7358 20.3613C71.8848 20.3613 72.4809 19.1691 73.077 17.6789C73.6731 16.2135 74.3685 14.5245 74.6417 13.9036L75.0888 12.7859L76.7281 16.586C77.6222 18.6724 78.4667 20.3365 78.6157 20.2868C78.7648 20.2371 79.6092 18.0763 80.5282 15.4932C82.391 10.178 82.3662 10.2276 83.1113 9.92958C83.4839 9.78056 83.1113 9.70605 81.8943 9.73088C80.9505 9.73088 80.3544 9.78056 80.6027 9.85507C80.8263 9.90475 81.025 10.2028 81.025 10.476C81.025 11.0721 79.3112 16.6605 79.038 16.9586C78.9386 17.0828 78.2183 15.6174 77.4235 13.7297C76.6287 11.8421 75.8339 10.1531 75.6849 9.97926C75.4365 9.70605 75.0888 10.327 73.9463 13.3323C73.1515 15.3442 72.4312 17.1076 72.3319 17.207C72.1828 17.3808 70.0965 10.8982 70.0965 10.2276C70.0965 10.0786 70.2952 9.90475 70.5436 9.85507C70.7671 9.78056 70.022 9.73088 68.8546 9.70605C67.0166 9.68121 66.8179 9.73088 67.3395 10.0041Z" fill="white"></path><path d="M84.7806 14.4494C82.7191 19.243 82.2224 20.1123 81.6263 20.1123C81.4524 20.1123 81.2537 20.1868 81.204 20.311C81.1295 20.4104 81.8498 20.4849 82.7936 20.4849C83.7375 20.4849 84.5074 20.4104 84.5074 20.2862C84.5074 20.1868 84.3336 20.1123 84.1349 20.1123C83.6381 20.1123 83.6629 19.6652 84.2839 18.1502L84.8303 16.8586L86.6683 16.9331L88.5311 17.0076L89.1272 18.473C89.4501 19.2678 89.6488 20.013 89.5743 20.1371C89.4998 20.2613 90.0462 20.3607 90.8161 20.3607C91.5613 20.3607 92.3312 20.4352 92.5548 20.5097C92.7783 20.5842 92.9522 20.5345 92.9522 20.3855C92.9522 20.2365 92.7286 20.1123 92.4554 20.1123C91.8593 20.1123 91.7848 19.9633 89.3507 14.4245C88.2579 11.8911 87.2395 9.80475 87.0905 9.75508C86.9415 9.7054 85.8983 11.8166 84.7806 14.4494ZM87.8853 15.5174C88.0343 16.1135 88.0095 16.1383 86.6434 16.1383C85.8735 16.1383 85.2525 16.0638 85.2525 15.9645C85.2525 15.8651 85.5506 14.9958 85.9232 14.052L86.5938 12.3382L87.165 13.6049C87.4631 14.3252 87.786 15.1697 87.8853 15.5174Z" fill="white"></path><path d="M27.2526 10.1033C27.5258 10.1778 27.8239 10.3517 27.9232 10.5255C28.1468 10.8484 28.1964 19.169 27.9729 19.7154C27.8984 19.9389 27.6748 20.1128 27.4761 20.1128C27.2774 20.1128 27.1284 20.1873 27.1284 20.2867C27.1284 20.4108 28.0722 20.4854 29.2396 20.4854C31.2018 20.4854 32.0711 20.2618 30.8044 20.0631C30.2331 19.9886 30.2331 19.9638 30.1586 15.195C30.1089 10.4262 30.1089 10.4013 30.6553 10.1778C31.0527 10.0288 30.5808 9.95426 28.9912 9.97909C27.7742 9.97909 26.9794 10.0536 27.2526 10.1033Z" fill="white"></path><path d="M91.1668 10.1778C91.4649 10.302 92.4832 11.5935 93.4519 13.0838L95.1905 15.7414V17.8277C95.1905 19.6906 95.1408 19.9141 94.6938 20.0383C93.6257 20.3115 94.2964 20.4854 96.4324 20.4854C98.4442 20.4854 99.0652 20.2867 97.7984 20.0631C97.3514 19.9886 97.3017 19.7651 97.2272 17.8774L97.1527 15.7414L98.4194 13.655C99.8103 11.3452 100.506 10.4758 101.276 10.1778C101.599 10.0288 101.176 9.95426 100.034 9.95426C99.09 9.9791 98.4442 10.0288 98.6181 10.1033C98.7671 10.153 98.9161 10.4013 98.9161 10.6C98.9161 11.1961 96.6559 14.9714 96.4324 14.7231C96.0847 14.3008 93.9486 10.6497 93.9486 10.4262C93.9486 10.3268 94.0977 10.153 94.2715 10.1033C94.4205 10.0288 93.6754 9.9791 92.5826 9.95426C91.142 9.95426 90.7446 10.0288 91.1668 10.1778Z" fill="white"></path><path d="M30.4579 22.5717C29.7128 23.0187 29.1167 24.1613 29.1167 25.1299C29.1167 25.9247 29.837 27.0424 30.6069 27.4398C32.2711 28.3091 34.5809 28.1353 34.5809 27.1418C34.5809 26.7692 34.5313 26.7692 34.1339 27.1418C33.6123 27.6385 32.5443 27.6882 31.7743 27.2908C30.8056 26.794 30.3586 26.0241 30.3586 24.807C30.3586 23.2919 30.905 22.5965 32.2711 22.4226C33.1652 22.2984 33.3887 22.373 33.96 22.9442L34.6058 23.59L34.5313 22.9194C34.4568 22.2488 34.4071 22.2239 32.8423 22.1494C31.6004 22.0997 31.054 22.1991 30.4579 22.5717Z" fill="white"></path><path d="M39.9478 24.3849C39.4262 25.6516 38.8301 26.9432 38.6314 27.2412C38.3334 27.7628 38.3334 27.8125 38.7556 27.8125C39.0537 27.8125 39.2772 27.5393 39.4262 26.9929C39.6498 26.2726 39.7739 26.1981 40.7923 26.1236C41.8851 26.049 41.9348 26.0739 42.2329 26.9432C42.4812 27.589 42.7048 27.8125 43.1518 27.8125C43.7231 27.8125 43.6983 27.7628 42.4564 24.9562C41.7609 23.3914 41.1152 22.0999 41.0407 22.0999C40.9661 22.0999 40.4694 23.1431 39.9478 24.3849ZM41.5374 25.3536C41.5374 25.4778 41.2145 25.5771 40.7923 25.5771C39.923 25.5771 39.923 25.602 40.4446 24.3849L40.8171 23.4659L41.1897 24.3104C41.3884 24.7575 41.5374 25.2294 41.5374 25.3536Z" fill="white"></path><path d="M48.1958 22.2986C48.4442 22.4724 48.5187 23.1927 48.4442 25.1797L48.3697 27.8125H48.9906H49.6115V25.1549C49.6115 22.3234 49.8102 21.926 50.7044 22.8202C51.375 23.4908 51.375 24.4594 50.6795 24.9314C50.2076 25.2791 50.1828 25.3288 50.5554 25.3288C51.1266 25.3288 52.2195 24.2359 52.2195 23.6398C52.2195 22.5966 51.6234 22.2489 49.7109 22.1496C48.5435 22.0999 47.9971 22.1496 48.1958 22.2986Z" fill="white"></path><path d="M56.9371 22.4724C57.1607 22.7208 57.2103 23.5901 57.1358 25.3288L57.0365 27.8125H57.6823H58.3032V24.9562V22.0999H57.4587C56.7633 22.0999 56.6639 22.1496 56.9371 22.4724Z" fill="white"></path><path d="M62.8224 22.6215C62.7231 23.0189 62.7479 23.0685 63.0211 22.845C63.2198 22.696 63.7166 22.5966 64.1637 22.6463L64.9585 22.7208L64.9336 25.2542L64.9088 27.8125H65.5297H66.1507L66.101 25.2542L66.0513 22.7208H67.0945C67.7403 22.7208 68.1128 22.5966 68.1128 22.3979C68.1128 22.1744 67.4422 22.0999 65.5297 22.0999C63.1453 22.0999 62.9466 22.1247 62.8224 22.6215Z" fill="white"></path><path d="M72.4089 24.9562C71.3161 27.3903 71.1919 27.8125 71.5893 27.8125C71.8874 27.8125 72.0861 27.5641 72.1854 26.9184C72.3593 26.049 72.3593 26.049 73.5266 26.1236C74.5946 26.1981 74.7188 26.2477 74.9424 26.9929C75.1162 27.6635 75.2901 27.8125 75.8614 27.8125C76.532 27.8125 76.5568 27.7877 76.2339 27.2412C76.0352 26.9432 75.4391 25.6516 74.9175 24.3849C74.3959 23.1431 73.8992 22.0999 73.8247 22.0999C73.7502 22.0999 73.1044 23.3914 72.4089 24.9562ZM73.924 24.1862C73.9985 24.5091 74.1476 24.9562 74.2221 25.1797C74.3463 25.5026 74.1972 25.5771 73.6011 25.5771C72.7318 25.5771 72.707 25.5523 73.1292 24.4098C73.477 23.4411 73.7253 23.3666 73.924 24.1862Z" fill="white"></path><path d="M81.0065 22.4476C81.2052 22.696 81.2797 23.6398 81.23 25.3039L81.1555 27.8125H82.9687C84.6328 27.8125 84.757 27.7877 84.757 27.2661C84.757 26.7693 84.7321 26.7445 84.4341 27.1667C84.2105 27.4648 83.8628 27.589 83.2667 27.5145L82.3974 27.4399V24.7575V22.0999H81.5529C80.8575 22.0999 80.783 22.1496 81.0065 22.4476Z" fill="white"></path><path d="M16.0298 25.0057C18.1906 25.0554 21.6679 25.0554 23.7294 25.0057C25.8158 24.9809 24.0523 24.9312 19.8051 24.9312C15.5579 24.9312 13.8689 24.9809 16.0298 25.0057Z" fill="white"></path><path d="M90.5408 25.0057C92.7017 25.0554 96.179 25.0554 98.2405 25.0057C100.327 24.9809 98.5634 24.9312 94.3161 24.9312C90.0938 24.9312 88.38 24.9809 90.5408 25.0057Z" fill="white"></path></svg>