<svg xmlns="http://www.w3.org/2000/svg" width="115" height="36" viewBox="0 0 115 36" fill="none"><path d="M13.7949 16.6072L18.4297 14.3424L13.7949 12.0537V16.6072Z" stroke="white" stroke-width="0.739749"></path><path d="M13.7949 16.6071V21.1606L23.0644 16.6071L18.4297 14.3423L13.7949 16.6071Z" stroke="white" stroke-width="0.739749"></path><path d="M13.7949 21.1604H27.6992V18.8722L23.0644 16.5835L13.7949 21.1604Z" stroke="white" stroke-width="0.739749"></path><path d="M13.7949 7.5V12.0535L18.4297 14.3183L23.0644 12.0535L13.7949 7.5Z" stroke="white" stroke-width="0.739749"></path><path d="M13.7949 7.5L23.0644 12.0535L27.6992 9.78872V7.5H13.7949Z" stroke="white" stroke-width="0.739749"></path><path d="M23.0625 12.0539L18.4277 14.3187L23.0625 16.5835L27.6972 18.8722V9.76514L23.0625 12.0539Z" stroke="white" stroke-width="0.739749"></path><path d="M94.1728 15.758C93.7794 15.758 93.3863 15.7816 92.9958 15.8286C92.2752 15.9465 91.8914 16.3003 91.8914 16.9376C91.8847 17.054 91.9044 17.1704 91.949 17.2784C91.9935 17.3864 92.0619 17.4833 92.1492 17.5623C92.2364 17.6413 92.3404 17.7003 92.4536 17.7351C92.5668 17.7699 92.6864 17.7796 92.8039 17.7636C92.9965 17.7685 93.188 17.7333 93.3657 17.6602C93.5434 17.5872 93.7033 17.4779 93.8349 17.3397C93.9665 17.2015 94.0668 17.0374 94.1291 16.8584C94.1914 16.6793 94.2144 16.4892 94.1966 16.3008L94.1728 15.758ZM92.2757 19.0139C91.9921 19.0369 91.7067 19.0001 91.4386 18.9061C91.1705 18.8121 90.926 18.6629 90.7213 18.4686C90.5166 18.2743 90.3565 18.0393 90.2516 17.7793C90.1468 17.5193 90.0996 17.2403 90.1133 16.961C90.1133 15.8286 90.8577 15.1445 92.0822 14.8614C92.7695 14.7245 93.471 14.669 94.1717 14.6962C94.1717 13.729 93.7635 13.3986 92.7309 13.3986C92.0736 13.4157 91.4273 13.5684 90.8339 13.8469V12.4548C91.511 12.1794 92.2382 12.0429 92.971 12.0537C95.1335 12.0537 95.9006 13.021 95.9006 14.8157V17.4789H96.7429V18.8237H94.3415L94.2214 18.1396H94.1977C93.9703 18.4238 93.6776 18.6511 93.3437 18.8029C93.0097 18.9546 92.644 19.0266 92.2763 19.0128L92.2757 19.0139ZM70.5914 15.7569C70.198 15.7569 69.8049 15.7805 69.4144 15.8275C68.6938 15.9455 68.3099 16.2992 68.3099 16.9366C68.3033 17.0529 68.323 17.1693 68.3676 17.2773C68.4121 17.3853 68.4805 17.4823 68.5677 17.5612C68.655 17.6402 68.7589 17.6992 68.8722 17.734C68.9854 17.7688 69.105 17.7785 69.2225 17.7625C69.4151 17.7675 69.6065 17.7322 69.7842 17.6592C69.962 17.5861 70.1219 17.4769 70.2535 17.3386C70.3851 17.2004 70.4853 17.0364 70.5477 16.8573C70.61 16.6782 70.633 16.4882 70.6152 16.2997C70.5951 16.1199 70.587 15.9389 70.5908 15.758L70.5914 15.7569ZM68.6943 19.0128C68.4107 19.0358 68.1253 18.9991 67.8572 18.905C67.5891 18.811 67.3446 18.6618 67.1399 18.4675C66.9352 18.2732 66.7751 18.0382 66.6702 17.7782C66.5654 17.5182 66.5182 17.2393 66.5318 16.9599C66.5318 15.8275 67.2763 15.1434 68.5008 14.8603C69.1881 14.7234 69.8896 14.6679 70.5903 14.6951C70.5903 13.7279 70.1821 13.3975 69.1733 13.3975C68.516 13.4146 67.8696 13.5673 67.2763 13.8458V12.4548C67.9534 12.1794 68.6806 12.0429 69.4134 12.0537C71.5758 12.0537 72.3673 13.021 72.3673 14.8157V17.4789H73.208V18.8237H70.8065L70.6622 18.1396H70.6384C70.406 18.4244 70.1088 18.6517 69.7709 18.8033C69.4329 18.955 69.0634 19.0267 68.6922 19.0128H68.6943ZM43.9111 15.758C43.5177 15.758 43.1247 15.7816 42.7342 15.8286C42.0135 15.9465 41.6297 16.3003 41.6297 16.9376C41.623 17.054 41.6427 17.1704 41.6873 17.2784C41.7319 17.3864 41.8002 17.4833 41.8875 17.5623C41.9747 17.6413 42.0787 17.7003 42.1919 17.7351C42.3051 17.7699 42.4248 17.7796 42.5423 17.7636C42.7348 17.7685 42.9263 17.7333 43.104 17.6602C43.2817 17.5872 43.4416 17.4779 43.5732 17.3397C43.7048 17.2015 43.8051 17.0374 43.8674 16.8584C43.9298 16.6793 43.9528 16.4892 43.9349 16.3008L43.9111 15.758ZM42.0378 19.0139C41.7542 19.0369 41.4688 19.0001 41.2007 18.9061C40.9327 18.8121 40.6881 18.6629 40.4834 18.4686C40.2787 18.2743 40.1186 18.0393 40.0137 17.7793C39.9089 17.5193 39.8617 17.2403 39.8754 16.961C39.8754 15.8286 40.6198 15.1445 41.8443 14.8614C42.5316 14.7245 43.2331 14.669 43.9338 14.6962C43.9338 13.729 43.5256 13.3986 42.5168 13.3986C41.8595 13.4157 41.2132 13.5684 40.6198 13.8469V12.4548C41.2969 12.1794 42.0241 12.0429 42.7569 12.0537C44.9194 12.0537 45.7108 13.021 45.7108 14.8157V17.4789H46.5758V18.8237H44.1749L44.0322 18.1407H44.0084C43.7666 18.4205 43.4646 18.6441 43.124 18.7951C42.7835 18.9461 42.413 19.0209 42.0395 19.0139H42.0378ZM79.1419 15.4982C79.1419 14.2479 78.5174 13.422 77.5568 13.422C76.5961 13.422 75.9716 14.2479 75.9716 15.4749C75.9716 16.7018 76.5717 17.5511 77.5086 17.5511C78.4693 17.5745 79.1419 16.7252 79.1419 15.4982ZM80.9189 15.4982C80.9189 17.5745 79.7182 18.99 77.9649 18.99C77.5933 19.0183 77.2202 18.958 76.8774 18.8142C76.5346 18.6704 76.2322 18.4474 75.996 18.1641V20.9717L74.2427 21.6797V13.5165H73.354V12.1717H75.8516L75.9716 13.0449H75.9954C76.2026 12.7154 76.4984 12.4486 76.8501 12.2737C77.2018 12.0988 77.5958 12.0227 77.9887 12.0537C79.7895 12.0537 80.9183 13.422 80.9183 15.4982H80.9189ZM55.342 12.0537C54.9243 12.0396 54.509 12.1219 54.1295 12.294C53.75 12.4662 53.4168 12.7233 53.1568 13.0449H53.133L53.013 12.1717H50.3953V13.5165H51.3798V18.8487H53.1568V15.758C53.1568 14.1066 54.0456 13.4931 54.8138 13.4931C55.5345 13.4931 55.8702 13.9414 55.8702 14.9804V18.8498H57.6235V14.5793C57.5997 12.928 56.8071 12.0548 55.342 12.0548V12.0537ZM63.3627 17.4104C61.5619 17.4104 60.505 16.2073 60.505 14.2962C60.505 12.4324 61.5614 11.1582 63.2184 11.1582C63.6151 11.1574 64.0105 11.205 64.3953 11.3V13.1877L65.9561 12.5504V10.3312C65.1356 9.87917 64.2069 9.65121 63.2665 9.67101C60.505 9.67101 58.6079 11.3463 58.6079 14.3451C58.6079 17.1761 60.2887 19.0192 63.2665 19.0192C64.2114 19.0131 65.1414 18.7866 65.9799 18.3585L65.5955 16.8957C64.9081 17.2525 64.1394 17.4311 63.3622 17.4146L63.3627 17.4104ZM99.4557 17.5092V9.24609L97.6787 9.95411V18.8487H100.296V17.5038L99.4557 17.5092ZM37.4512 16.159C37.4512 15.2858 36.8025 14.8375 35.7212 14.8375H34.041V17.5033H35.7461C36.9706 17.4799 37.4761 16.9371 37.4512 16.1584V16.159ZM34.0172 13.4687H35.4363C36.4451 13.4687 36.9501 12.9971 36.9501 12.3363C36.9501 11.5576 36.47 11.1566 35.5574 11.1566H34.0172V13.4687ZM39.3245 16.2307C39.3245 17.9532 37.9318 18.8498 35.8423 18.8498H32.2158V11.1582H31.1113V9.8123H35.5542C36.3426 9.7453 37.1341 9.90082 37.8356 10.2606C38.1426 10.4495 38.3933 10.7149 38.562 11.0299C38.7308 11.3449 38.8116 11.6981 38.7963 12.0537C38.8002 12.5065 38.6445 12.9465 38.3555 13.2992C38.0665 13.6518 37.6622 13.8953 37.2112 13.9882V14.0115C38.5319 14.224 39.3245 15.0738 39.3245 16.2291V16.2307ZM81.4217 13.516H82.3823V18.8487H84.1356V12.1717H81.4222L81.4217 13.516ZM82.3823 11.0153H84.1356V9.38791H82.3586L82.3823 11.0159V11.0153ZM46.6964 13.5165H47.6571V18.8487H49.4341V12.1717H46.6964V13.5165ZM47.6571 11.0159H49.4341V9.38791H47.6571V11.0159ZM87.8329 12.1722H89.6337V13.5165H87.8329V16.4655C87.8329 17.1968 88.001 17.6451 88.7217 17.6451C88.9889 17.629 89.2541 17.5895 89.5142 17.5272V18.8248C89.0658 18.9338 88.6071 18.997 88.1454 19.0134C86.7765 19.0134 86.0802 18.3526 86.0802 16.9137V13.5144H85.1195V12.1717H86.0802V11.0392L87.8334 10.3312V12.1717L87.8329 12.1722Z" fill="white"></path><path d="M34.976 23.8271L33.8715 27.2721L32.767 23.8276H31.8301L33.3438 28.1926H34.3278L35.8415 23.8042C35.8404 23.8271 34.976 23.8271 34.976 23.8271ZM36.5611 23.8271V28.1921H39.4907V27.484H37.4493V26.2337H39.2982V25.5496H37.4493V24.4873H39.4183V23.8037H36.5611V23.8271ZM43.2853 23.8271V26.8472L41.3883 23.8271H40.4514V28.2154H41.291V25.0285L43.2842 28.1899H44.1249V23.8271H43.2853ZM44.8704 23.8271V24.5112H46.1431V28.2154H47.0318V24.5117H48.3045V23.8271H44.8704Z" fill="white"></path><path d="M51.6659 23.8272H52.5547V26.4697C52.6008 26.942 52.4635 27.414 52.1703 27.7912C51.9914 27.9718 51.7731 28.1102 51.5319 28.196C51.2907 28.2819 51.0328 28.3129 50.7777 28.2867C50.5227 28.3106 50.2655 28.2785 50.0247 28.1928C49.7838 28.1071 49.5654 27.9699 49.385 27.7912C49.0838 27.4172 48.938 26.945 48.9769 26.4697V23.8272H49.8657V26.5169C49.848 26.6416 49.8559 26.7684 49.8889 26.89C49.9218 27.0116 49.9792 27.1254 50.0576 27.2249C50.2471 27.4065 50.5013 27.5082 50.7661 27.5082C51.0308 27.5082 51.285 27.4065 51.4745 27.2249C51.5529 27.1254 51.6103 27.0116 51.6432 26.89C51.6762 26.7684 51.6841 26.6416 51.6665 26.5169V23.8272H51.6659ZM55.7006 24.6531C55.5339 24.5354 55.3278 24.4847 55.1243 24.5113H54.4999V25.8796H55.1243C55.3267 25.8917 55.5279 25.8422 55.7006 25.7377C55.774 25.6826 55.8355 25.6137 55.8814 25.5349C55.9273 25.4561 55.9568 25.3691 55.9679 25.279C55.9791 25.1888 55.9718 25.0974 55.9465 25.0101C55.9212 24.9228 55.8784 24.8413 55.8206 24.7705C55.7935 24.7203 55.7517 24.6792 55.7006 24.6526V24.6531ZM56.1088 28.215L55.0762 26.5153H54.5237V28.215H53.6349V23.8272H55.2438C55.6412 23.7999 56.0371 23.8991 56.3726 24.1103C56.5079 24.2163 56.6204 24.3477 56.7034 24.4968C56.7864 24.646 56.8384 24.8099 56.8563 24.979C56.8742 25.1481 56.8576 25.319 56.8075 25.4818C56.7574 25.6445 56.6748 25.7958 56.5645 25.9268C56.4001 26.1222 56.1841 26.2693 55.9401 26.3517L57.117 28.1922L56.1082 28.2155L56.1088 28.215Z" fill="white"></path><path d="M57.8848 23.8271V28.1921H60.8144V27.484H58.773V26.2337H60.6219V25.5496H58.773V24.4873H60.7419V23.8037H57.8848V23.8271Z" fill="white"></path><path d="M63.0261 28.2625C62.4078 28.2622 61.8137 28.0261 61.3691 27.6038L61.8016 26.9904C62.1275 27.3001 62.551 27.4915 63.0024 27.5332C63.5305 27.5332 63.7949 27.3207 63.7949 26.9904C63.7949 26.66 63.4586 26.5421 63.2905 26.4714C63.1224 26.4008 62.5461 26.2117 62.4255 26.165C62.1768 26.0922 61.9585 25.9429 61.8028 25.739C61.6471 25.5351 61.5621 25.2875 61.5605 25.0325C61.5605 24.4663 61.9687 23.7822 63.1694 23.7822C63.7192 23.787 64.2485 23.9883 64.6583 24.3484L64.2739 24.938C63.9571 24.6541 63.5496 24.4873 63.1213 24.4663C62.665 24.4663 62.4006 24.6315 62.4006 24.9619C62.4006 25.2923 62.7369 25.4102 62.8807 25.4808C63.0245 25.5515 63.6014 25.7406 63.7214 25.7873C63.9848 25.8492 64.2188 25.9975 64.3847 26.2078C64.5506 26.418 64.6386 26.6776 64.634 26.9436C64.634 27.581 64.1777 28.3119 62.9532 28.3119" fill="white"></path></svg>