<svg xmlns="http://www.w3.org/2000/svg" width="115" height="36" viewBox="0 0 115 36" fill="none"><path fill-rule="evenodd" clip-rule="evenodd" d="M15.1041 18.2169L15.1358 27.9338L24.4607 27.9668L33.7855 28V18.2499V8.5H24.429H15.0723L15.1041 18.2169ZM31.9268 18.1846V25.9323H24.4917H17.0566V18.1846V10.4369H24.4917H31.9268V18.1846ZM20.5775 13.1379C20.5493 13.1675 20.5263 14.7218 20.5263 16.5921V19.9924H21.3317H22.1372V16.582V13.1716L21.3829 13.1278C20.9682 13.1037 20.6057 13.1083 20.5775 13.1379ZM23.6242 18.2492V23.3497H24.4297H25.2352V18.2492V13.1486H24.4297H23.6242V18.2492ZM26.8461 16.5705V19.9924H27.6516H28.457V16.5705V13.1486H27.6516H26.8461V16.5705ZM38.8662 18.0555V20.3798H39.2379H39.6097V19.4759V18.572H41.3262C42.9052 18.572 43.0762 18.5485 43.4598 18.2791C43.9549 17.9315 44.1585 17.3401 43.9917 16.7342C43.924 16.4882 43.7056 16.1967 43.4598 16.024C43.0672 15.7485 42.9198 15.7312 40.9544 15.7312H38.8662V18.0555ZM49.4778 16.28C48.7106 17.6667 47.4165 20.1719 47.4165 20.2704C47.4165 20.3306 47.5699 20.3794 47.7573 20.3787C48.0245 20.378 48.159 20.2665 48.3806 19.8622L48.6631 19.3467H50.2476H51.832L52.1105 19.8633C52.3394 20.2877 52.4558 20.3798 52.7632 20.3798C52.9691 20.3798 53.1189 20.3306 53.0961 20.2704C53.0734 20.2104 52.5269 19.1644 51.8817 17.9461L50.7085 15.7312H50.245C49.8298 15.7312 49.7497 15.7885 49.4778 16.28ZM57.4286 17.928C57.4084 19.1363 57.4105 20.1822 57.4332 20.2523C57.456 20.3224 57.6093 20.3798 57.774 20.3798H58.0735V18.5074C58.0735 17.4776 58.1198 16.6351 58.1765 16.6351C58.2331 16.6351 59.0464 17.4776 59.9837 18.5074C61.6124 20.2969 61.7093 20.3798 62.1731 20.3798H62.6585V18.0555V15.7312H62.2867H61.915V17.6035C61.915 18.6333 61.8732 19.468 61.822 19.4583C61.7708 19.4488 60.9763 18.6141 60.0562 17.6035C58.5176 15.9138 58.3464 15.7649 57.9243 15.7487L57.4652 15.7312L57.4286 17.928ZM66.8717 16.054C66.8717 16.3744 66.88 16.3768 67.9869 16.3768H69.1022V16.7642V17.1516H68.3587C67.6483 17.1516 67.6152 17.1659 67.6152 17.4744C67.6152 17.7829 67.6483 17.7972 68.3587 17.7972H69.1022V19.0885V20.3798H69.474H69.8457V19.0885V17.7972H70.5979C71.307 17.7972 71.3477 17.7806 71.3104 17.5067C71.2752 17.2493 71.1895 17.2117 70.5583 17.1774C69.8602 17.1394 69.8457 17.1309 69.8457 16.7577V16.3768H70.961C72.0679 16.3768 72.0763 16.3744 72.0763 16.054V15.7312H69.474H66.8717V16.054ZM76.2895 18.0555V20.3798H78.7059H81.1223V20.057V19.7341H79.0712H77.02L77.0575 19.0562L77.0949 18.3783L78.3961 18.3598L79.6972 18.3414L79.7364 18.0047L79.7757 17.6681H78.4043H77.033V17.0224V16.3768H79.0776H81.1223V16.054V15.7312H78.7059H76.2895V18.0555ZM85.4875 18.0151L85.5214 20.3152L85.8622 20.356L86.2029 20.3969V19.4844V18.572H87.4144H88.6258L89.2749 19.4759C89.8252 20.2421 89.9803 20.3798 90.294 20.3798C90.4974 20.3798 90.664 20.3466 90.664 20.306C90.664 20.2655 90.4102 19.8618 90.1 19.4089L89.5362 18.5854L89.9067 18.3858C90.7468 17.9331 90.9271 16.9461 90.3026 16.2175L89.9414 15.7957L87.6975 15.7553L85.4536 15.7148L85.4875 18.0151ZM96.0702 17.9777C95.414 19.2206 94.8772 20.2695 94.8772 20.3086C94.8772 20.3477 95.0434 20.3798 95.2465 20.3798C95.5524 20.3798 95.659 20.2913 95.8685 19.8633L96.1215 19.3467H97.7273H99.3332L99.5861 19.8633C99.7956 20.2913 99.9022 20.3798 100.208 20.3798C100.411 20.3798 100.575 20.3363 100.572 20.2829C100.569 20.2296 100.045 19.1983 99.406 17.9909L98.2452 15.7957L97.7541 15.7569L97.2631 15.7179L96.0702 17.9777ZM43.2033 16.6351C43.3396 16.7771 43.4511 17.0095 43.4511 17.1516C43.4511 17.2936 43.3396 17.526 43.2033 17.6681C42.98 17.9008 42.7903 17.9263 41.2826 17.9263H39.6097V17.1516V16.3768H41.2826C42.7903 16.3768 42.98 16.4024 43.2033 16.6351ZM50.8178 17.4552C51.128 18.0484 51.3819 18.5713 51.3819 18.6173C51.3819 18.6634 50.8481 18.7011 50.1958 18.7011H49.0095L49.6054 17.539C49.9332 16.8998 50.2131 16.3768 50.2275 16.3768C50.2419 16.3768 50.5075 16.8621 50.8178 17.4552ZM89.7966 16.6351C89.9329 16.7771 90.0444 17.0095 90.0444 17.1516C90.0444 17.2936 89.9329 17.526 89.7966 17.6681C89.5733 17.9008 89.3835 17.9263 87.8758 17.9263H86.2029V17.1516V16.3768H87.8758C89.3835 16.3768 89.5733 16.4024 89.7966 16.6351ZM98.8426 18.569C98.8426 18.6492 98.4047 18.7011 97.7273 18.7011C97.0165 18.7011 96.6121 18.6509 96.6121 18.5627C96.6121 18.4351 96.9003 17.8681 97.5148 16.787L97.7587 16.3581L98.3006 17.3976C98.5987 17.9692 98.8426 18.4964 98.8426 18.569Z" fill="white"></path></svg>