<svg xmlns="http://www.w3.org/2000/svg" width="115" height="36" viewBox="0 0 115 36" fill="none"><path fill-rule="evenodd" clip-rule="evenodd" d="M76.4042 11.9883V12.9766H77.4907H78.5771V11.9883V11H77.4907H76.4042V11.9883ZM96.0479 15.8797C96.0482 19.0657 96.0803 20.8686 96.1406 21.074C96.2656 21.5006 96.7584 21.9965 97.2253 22.1654C97.5316 22.2763 97.7916 22.2958 98.5018 22.2611C99.5848 22.2084 100.222 22.0223 100.215 21.7605C100.209 21.5158 99.9933 20.3942 99.9437 20.3471C99.9214 20.3261 99.6896 20.3513 99.4286 20.4031C99.0435 20.4797 98.9057 20.4755 98.6984 20.3813C98.2174 20.1628 98.223 20.2205 98.2216 15.4267L98.2203 11H97.1339H96.0474L96.0479 15.8797ZM15.2178 16.0856L15.2208 20.9241L15.5257 20.3573C16.4698 18.6027 17.3174 18.0085 20.4693 16.8923C22.8163 16.0609 23.6417 15.5555 24.7168 14.2915C25.3172 13.5855 26.2054 12.0364 26.3088 11.5147L26.3619 11.2471H20.7884H15.2148L15.2178 16.0856ZM31.2075 16.7186V22.2006L34.2279 22.1992C37.5942 22.1976 38.0546 22.1485 38.951 21.6958C39.5963 21.3699 40.1031 20.8404 40.2958 20.2907C40.4941 19.725 40.4368 18.604 40.1818 18.0646C39.9502 17.5743 39.3246 16.9931 38.8146 16.7943C38.4588 16.6557 38.3016 16.5179 38.4991 16.5179C38.5417 16.5179 38.7702 16.3531 39.0068 16.1515C39.6477 15.6056 39.9371 14.9515 39.9381 14.0472C39.9387 13.4644 39.9008 13.2697 39.7117 12.8843C39.4172 12.2841 38.9341 11.7835 38.3836 11.5083L37.9436 11.2883L34.5755 11.2624L31.2075 11.2366V16.7186ZM49.5161 11.3728C48.6954 11.5686 47.8321 12.0482 47.1487 12.6878C44.7842 14.9014 44.8587 18.6298 47.3121 20.8592C47.9678 21.455 48.4309 21.739 49.1886 22.0098C49.9544 22.2835 51.0849 22.348 51.9806 22.1691C53.3201 21.9017 54.718 21.0359 55.2192 20.1633L55.4517 19.7584L54.5993 19.2912C54.1305 19.0342 53.7112 18.8253 53.6678 18.8269C53.6242 18.8286 53.4508 19.0232 53.2825 19.2593C52.9528 19.7219 52.2855 20.1618 51.6789 20.3168C51.138 20.4549 50.1786 20.3748 49.6947 20.1511C48.0495 19.3906 47.2498 17.2262 47.9111 15.3238C48.3998 13.9178 49.4644 13.1175 50.84 13.1216C51.9616 13.125 52.8532 13.5607 53.3358 14.3409L53.5609 14.7049L54.3439 14.1967C54.7746 13.9173 55.1472 13.6386 55.1719 13.5776C55.2718 13.3309 54.3725 12.3565 53.625 11.9018C52.8905 11.4549 52.3072 11.3106 51.1115 11.2796C50.354 11.26 49.8709 11.2883 49.5161 11.3728ZM80.9819 11.5491C80.95 11.5792 80.9239 12.1722 80.9239 12.8668V14.1296H80.4024H79.8809V14.912V15.6944H80.396H80.9109L80.9392 18.3092C80.9667 20.8612 80.9723 20.9335 81.1718 21.3175C81.5404 22.0267 82.1809 22.3231 83.3141 22.3089C84.0805 22.2993 85.4152 21.9546 85.5004 21.7443C85.5629 21.59 85.1801 20.224 85.0743 20.224C85.0292 20.224 84.7751 20.2838 84.5097 20.3569C84.1141 20.4659 83.9656 20.4724 83.6857 20.3929C83.1264 20.2342 83.0899 20.0631 83.117 17.7319L83.1403 15.7355L84.0312 15.7121L84.9221 15.6886V14.9091V14.1296H84.0094H83.0968V12.8119V11.4941H82.0683C81.5026 11.4941 81.0137 11.5189 80.9819 11.5491ZM26.3563 13.2497C25.8521 14.1676 25.2702 14.8862 24.4006 15.6643C23.5168 16.4553 22.7796 16.8355 20.4298 17.7125C19.4977 18.0605 18.5073 18.4594 18.2291 18.5991C17.2623 19.0844 16.2277 20.3945 15.7311 21.762C15.6384 22.0174 15.5625 22.2391 15.5625 22.2547C15.5625 22.2702 18.0853 22.283 21.1686 22.283H26.7748V17.4239C26.7748 14.7514 26.7649 12.5652 26.753 12.5658C26.7411 12.5663 26.5625 12.874 26.3563 13.2497ZM37.1179 13.2676C37.5196 13.4888 37.726 13.8935 37.7261 14.4603C37.7264 15.0694 37.5137 15.4377 37.0245 15.6754C36.6595 15.8528 36.5572 15.8612 35.0319 15.8401L33.4239 15.8179L33.3998 14.5448C33.3865 13.8446 33.3963 13.221 33.4214 13.159C33.4583 13.0677 33.785 13.0514 35.1403 13.0733C36.6345 13.0972 36.8462 13.1181 37.1179 13.2676ZM59.4023 14.0514C59.1101 14.0876 58.6994 14.1597 58.4896 14.2117C57.9869 14.3365 56.6741 14.9353 56.6741 15.04C56.6741 15.1421 57.2701 16.2709 57.3241 16.2709C57.3457 16.2709 57.6093 16.144 57.9097 15.9889C58.6944 15.5837 59.3537 15.4243 60.0953 15.4605C61.232 15.5159 61.7441 15.9668 61.8596 17.0141L61.9168 17.5323L61.7074 17.4734C61.5922 17.4409 61.146 17.3549 60.7157 17.2821C58.8659 16.9693 57.0713 17.5926 56.4437 18.7661C55.6136 20.3184 56.7791 22.1475 58.7167 22.3329C59.773 22.4341 61.002 22.0356 61.762 21.3456C61.9925 21.1364 62.1935 20.9652 62.2089 20.9652C62.2243 20.9652 62.237 21.0856 62.2371 21.2329C62.2376 21.6035 62.5306 22.023 62.8878 22.1644C63.1876 22.283 64.1873 22.3271 64.446 22.233C64.5591 22.1919 64.5835 22.0319 64.5835 21.3316C64.5835 20.4839 64.5825 20.4796 64.3445 20.3717L64.1055 20.2634L64.0514 18.3701C64.0216 17.3288 63.9562 16.3573 63.906 16.2115C63.4772 14.9637 62.4711 14.2397 60.8968 14.0458C60.2017 13.9602 60.1385 13.9604 59.4023 14.0514ZM70.3399 14.0471C69.677 14.141 68.9803 14.4959 68.4427 15.0134L67.9733 15.4654V14.7975V14.1296H67.0607H66.148V19.8148V25.5L67.2128 25.4769L68.2775 25.4537L68.3006 23.1512L68.3237 20.8485L68.5359 21.1444C69.1665 22.0237 70.6187 22.5228 71.847 22.2823C73.3233 21.9933 74.4439 20.8456 74.7986 19.2594C75.4691 16.2612 73.2255 13.6384 70.3399 14.0471ZM89.2819 14.0504C88.6105 14.1367 88.0027 14.3202 87.3123 14.6448C86.519 15.0179 86.5381 14.9726 86.8909 15.6403C87.0621 15.9645 87.2141 16.242 87.2284 16.2572C87.2427 16.2724 87.6221 16.1118 88.0716 15.9004C88.7773 15.5684 88.9825 15.5101 89.578 15.4722C90.7045 15.4003 91.3075 15.6459 91.6237 16.3055C91.7812 16.6341 91.8537 17.5071 91.7233 17.5053C91.6874 17.5048 91.4625 17.4453 91.2235 17.373C90.5316 17.1637 89.0228 17.1782 88.2671 17.4014C86.7721 17.8431 86.0696 18.7155 86.158 20.0207C86.2062 20.7327 86.4506 21.188 87.055 21.6921C88.2403 22.6807 90.3019 22.5372 91.647 21.3723L92.1143 20.9676L92.1702 21.2986C92.2056 21.5085 92.3327 21.74 92.5176 21.9311C92.7866 22.2092 92.8539 22.2354 93.3836 22.2673C93.6993 22.2863 94.0955 22.2774 94.2638 22.2475L94.5698 22.1931V21.3421V20.4911L94.3091 20.3887C94.1656 20.3325 94.0421 20.2816 94.0347 20.2758C94.0271 20.27 93.997 19.3757 93.9678 18.2886C93.9156 16.3475 93.9102 16.303 93.6706 15.8083C93.2671 14.9754 92.4177 14.3414 91.4368 14.1411C90.8128 14.0136 89.8748 13.9742 89.2819 14.0504ZM76.4042 18.1625V22.2006H77.4915H78.5788L78.5563 18.1857L78.5337 14.1708L77.4689 14.1476L76.4042 14.1245V18.1625ZM71.3458 15.9899C72.2685 16.4255 72.7086 17.2086 72.6526 18.3148C72.5351 20.6361 69.8548 21.4129 68.5726 19.4971C68.3283 19.132 68.321 19.09 68.321 18.0504C68.321 17.0275 68.3312 16.9658 68.5503 16.6661C69.1521 15.8433 70.3973 15.542 71.3458 15.9899ZM37.5192 17.7172C37.9713 18.0374 38.1098 18.2971 38.144 18.8884C38.1714 19.3628 38.147 19.4816 37.9729 19.7223C37.5272 20.3381 37.5003 20.3448 35.33 20.3725L33.3804 20.3975V19.0068C33.3804 18.2418 33.4086 17.5894 33.4429 17.5568C33.4774 17.5243 34.3546 17.5088 35.3925 17.5225C37.14 17.5456 37.2972 17.5599 37.5192 17.7172ZM61.4575 18.5442L61.8891 18.6656L61.8861 19.1772C61.8826 19.7499 61.796 19.9407 61.3965 20.2566C60.7091 20.8002 59.5159 20.9935 58.9118 20.6591C58.0824 20.2001 58.0283 19.1741 58.808 18.6901C59.3958 18.3252 60.4691 18.2661 61.4575 18.5442ZM91.3104 18.5211L91.745 18.6283L91.7703 19.2099C91.7933 19.737 91.774 19.8159 91.5656 20.0506C90.8883 20.8134 89.4194 21.0662 88.6563 20.5513C88.3464 20.3422 88.1107 19.788 88.1886 19.4518C88.4101 18.4962 89.6772 18.1184 91.3104 18.5211Z" fill="white"></path></svg>