<svg xmlns="http://www.w3.org/2000/svg" width="115" height="36" viewBox="0 0 115 36" fill="none"><path d="M23.0972 7.03674C23.0972 7.05964 22.8545 7.10086 22.5614 7.13292C22.2637 7.16497 21.9386 7.20619 21.8378 7.22909C21.7371 7.25199 21.531 7.28404 21.3799 7.29778C21.2287 7.3161 21.0685 7.35274 21.0272 7.37564C20.9814 7.39396 20.8578 7.43517 20.7525 7.45349C20.6426 7.47639 20.441 7.5405 20.3037 7.59546C20.1663 7.65042 20.0106 7.70537 19.9602 7.71911C19.9098 7.73285 19.7953 7.77407 19.7083 7.81528C19.6213 7.85192 19.4747 7.91604 19.3877 7.95267C19.3007 7.98931 19.1954 8.03969 19.1587 8.05801C19.1221 8.07632 18.8748 8.19997 18.6092 8.33278C18.023 8.6213 17.2857 9.1159 16.8598 9.50517C16.7407 9.61509 16.6262 9.7021 16.6079 9.7021C16.5025 9.7021 15.4996 10.7692 15.0187 11.392C14.3959 12.2026 13.6219 13.6543 13.4846 14.2817C13.4617 14.3688 13.425 14.4924 13.3975 14.5565C13.1731 15.1015 12.9533 16.2189 12.88 17.2081C12.8251 17.9409 12.88 19.2507 12.9854 19.6628C13.0129 19.7636 13.0495 19.9468 13.0724 20.075C13.1411 20.4826 13.3518 21.2703 13.4296 21.4214C13.4571 21.4718 13.48 21.5542 13.48 21.6046C13.48 21.655 13.512 21.7741 13.5533 21.8702C13.5945 21.9664 13.6586 22.1038 13.6906 22.1816C13.9471 22.7953 14.5745 23.8944 14.9409 24.3799C15.9988 25.7904 17.2994 26.8849 18.7924 27.6131C19.1816 27.8055 19.5847 27.9932 19.6854 28.0344C19.7862 28.0711 19.951 28.1352 20.0518 28.1718C20.2395 28.2451 20.5143 28.3321 20.9219 28.4512C21.0501 28.4878 21.2654 28.5336 21.4028 28.5474C21.5402 28.5657 21.7279 28.5977 21.8149 28.616C21.902 28.6389 22.2271 28.6847 22.5385 28.7122C22.8454 28.7443 23.0972 28.7855 23.0972 28.8084C23.0972 28.8267 23.3674 28.845 23.6926 28.845C24.0223 28.845 24.288 28.8267 24.288 28.8084C24.288 28.7855 24.5307 28.7443 24.8284 28.7122C25.1214 28.6802 25.4695 28.6389 25.5932 28.6115C25.7214 28.5886 25.9458 28.5474 26.0969 28.5245C26.5137 28.4558 26.88 28.3459 27.6998 28.0344C28.46 27.7413 29.9118 26.8941 30.3972 26.459C30.5163 26.3491 30.6582 26.2346 30.6995 26.2117C30.8369 26.1339 31.3818 25.5935 31.8398 25.076C32.2565 24.6043 32.3115 24.531 32.6229 24.0593C32.7099 23.9311 32.8336 23.7479 32.8977 23.6471C32.9664 23.5464 33.0855 23.3449 33.1679 23.1983C33.2457 23.0564 33.3694 22.8274 33.4427 22.6946C33.5114 22.5663 33.6167 22.3328 33.6671 22.1816C33.722 22.0305 33.809 21.7924 33.8594 21.655C33.9144 21.5176 33.9785 21.339 34.0014 21.2657C34.1113 20.8948 34.235 20.4276 34.2533 20.3269C34.267 20.2628 34.3036 20.0796 34.3403 19.9147C34.4502 19.4018 34.5464 18.4492 34.5464 17.8997C34.5464 17.1532 34.3861 15.935 34.1983 15.2572C34.038 14.671 33.9785 14.4787 33.9235 14.3504C33.8319 14.1306 33.7358 13.865 33.6488 13.5948C33.603 13.4574 33.5205 13.2696 33.4701 13.1826C33.4152 13.0956 33.3144 12.9079 33.2412 12.7705C33.1725 12.6331 33.09 12.4774 33.058 12.427C32.9481 12.2255 32.3619 11.3599 32.2016 11.1538C31.9039 10.7692 31.0521 9.88529 30.8185 9.71126C30.6949 9.62424 30.4888 9.45938 30.3606 9.34489C29.7194 8.79533 28.3272 8.02595 27.3105 7.66416C27.2235 7.6321 27.077 7.58172 26.9899 7.54967C26.9029 7.52219 26.7564 7.48097 26.6694 7.45807C26.5824 7.43975 26.4587 7.40312 26.3946 7.38022C26.3305 7.35274 26.1656 7.32068 26.0282 7.30236C25.8908 7.28862 25.6847 7.25199 25.5703 7.22909C25.4558 7.20619 25.1214 7.16039 24.8284 7.13292C24.5307 7.10086 24.288 7.05964 24.288 7.03674C24.288 7.01842 24.0223 7.00011 23.6926 7.00011C23.3674 7.00011 23.0972 7.01842 23.0972 7.03674ZM25.0665 8.51597C25.181 8.53887 25.3459 8.57093 25.4329 8.58467C25.6023 8.60756 25.9778 8.69916 26.3946 8.81823C26.7197 8.90982 27.2281 9.11132 27.7456 9.35863C27.9746 9.46396 28.1898 9.56471 28.2265 9.58303C28.2631 9.59677 28.3593 9.65172 28.4325 9.7021C28.5104 9.75248 28.6111 9.81201 28.6615 9.83491C28.7806 9.89445 29.1195 10.1463 29.7011 10.5997C30.5987 11.3096 31.533 12.4911 32.1421 13.6864C32.4764 14.3459 32.5725 14.5932 32.7374 15.2206C32.8565 15.6648 32.8885 15.8022 32.9435 16.0907C32.971 16.2418 33.0168 16.48 33.0442 16.6174C33.1358 17.1074 33.145 18.408 33.0626 18.9896C32.9755 19.5667 32.8748 20.0842 32.7969 20.304C32.774 20.3773 32.7328 20.5284 32.7099 20.6383C32.6046 21.1558 32.1466 22.1816 31.7665 22.7541C31.6932 22.8686 31.5925 23.0335 31.5421 23.1205C31.3589 23.4594 30.8643 24.0456 30.1957 24.7279C29.8705 25.0577 28.7852 25.8866 28.5012 26.0194C28.4646 26.0377 28.373 26.0927 28.2951 26.143C28.2219 26.1934 28.1257 26.2438 28.0891 26.2621C28.0112 26.2896 27.8876 26.3445 27.4342 26.5506C27.2647 26.6285 27.0999 26.6926 27.0678 26.6926C27.0357 26.6926 26.9854 26.7155 26.9579 26.743C26.9304 26.7705 26.8388 26.8071 26.7564 26.83C26.6694 26.8483 26.5411 26.8895 26.4633 26.9124C26.303 26.972 25.9137 27.0773 25.5932 27.1506C25.1031 27.2696 23.8162 27.3887 23.3949 27.3566C22.5019 27.288 21.7966 27.178 21.2654 27.0269C20.812 26.8941 20.18 26.6789 20.038 26.6056C19.8228 26.4911 19.3603 26.2804 19.3236 26.2804C19.2458 26.2804 18.0047 25.4698 17.9222 25.3691C17.9085 25.3508 17.7757 25.2408 17.6246 25.1264C17.1941 24.7966 16.2278 23.7387 15.8935 23.2304C15.3576 22.4152 14.744 21.1237 14.6295 20.5559C14.6112 20.4689 14.5699 20.3498 14.5425 20.2948C14.5104 20.2399 14.4875 20.1208 14.4875 20.0292C14.4875 19.9376 14.46 19.7361 14.4234 19.5804C14.2081 18.6324 14.2081 17.286 14.4188 16.1594C14.4554 15.9716 14.4967 15.7427 14.5058 15.6556C14.5928 14.955 15.3347 13.3154 15.9622 12.4361C16.6308 11.5019 17.4093 10.7417 18.4535 10.0227C18.9206 9.69752 18.9435 9.68378 19.6396 9.35863C19.8915 9.23956 20.148 9.12048 20.2121 9.08843C20.2762 9.05637 20.4502 8.99225 20.6013 8.94646C20.7525 8.90524 20.9265 8.84571 20.9906 8.81823C21.1051 8.77243 21.2058 8.74953 21.6547 8.64878C21.7829 8.6213 21.989 8.57551 22.1126 8.54803C22.6439 8.42438 24.5398 8.40606 25.0665 8.51597Z" fill="white"></path><path d="M24.0842 10.088C24.075 10.1155 24.0705 13.683 24.075 18.0154L24.0888 25.8924L24.272 25.9061C24.5925 25.9382 25.6184 25.7366 26.026 25.5672C26.1084 25.5306 26.2046 25.5031 26.2412 25.5031C26.3053 25.5031 26.4336 25.4527 26.8366 25.2741C26.9373 25.2283 27.1434 25.1367 27.2945 25.068C28.3479 24.6101 29.5202 23.6575 30.2621 22.6637C30.656 22.1416 31.2101 21.2669 31.2101 21.1753C31.2101 21.1387 31.1552 21.0929 31.0865 21.0791C31.0132 21.0608 30.9079 21.0242 30.8438 20.9921C30.5232 20.8318 30.2988 20.7402 30.2347 20.7402C30.198 20.7402 30.111 20.8502 30.0423 20.9784C29.9736 21.1112 29.8042 21.3722 29.6668 21.5554C29.5294 21.7432 29.3645 21.9676 29.305 22.0546C29.1356 22.3111 28.8791 22.5767 28.531 22.8698C28.357 23.0209 28.1601 23.1904 28.096 23.2499C27.6655 23.6529 26.5618 24.2208 25.5726 24.5505C25.1742 24.6879 25.2108 25.3703 25.2108 17.9879C25.2108 12.071 25.22 11.439 25.2841 11.4115C25.3619 11.384 25.6642 11.4573 25.8657 11.5626C25.939 11.5993 26.026 11.6267 26.0672 11.6267C26.1038 11.6267 26.1908 11.6542 26.255 11.6863C26.4794 11.8008 26.6992 11.8924 26.7954 11.9153C27.1113 11.984 28.5036 13.0235 29.0165 13.5777C29.2638 13.8479 29.9004 14.7363 30.0423 15.0019C30.111 15.1348 30.198 15.2447 30.2347 15.2447C30.3034 15.2447 30.5736 15.1302 30.8529 14.9882C30.917 14.9516 31.004 14.9241 31.0407 14.9241C31.0819 14.9241 31.1414 14.892 31.1827 14.8554C31.2468 14.7913 31.2376 14.7592 31.1094 14.544C30.9766 14.3333 30.7384 13.9715 30.3308 13.3762C30.1339 13.0968 29.2684 12.1992 28.9203 11.929C28.1189 11.2924 27.7525 11.068 27.0655 10.7841C26.8411 10.6879 26.5984 10.5826 26.5297 10.5459C26.4656 10.5093 26.3786 10.4818 26.3374 10.4818C26.3007 10.4818 26.2 10.4544 26.1176 10.4177C25.5497 10.1796 24.1346 9.95059 24.0842 10.088Z" fill="white"></path><path d="M22.4999 10.1461L22.1427 10.2148L22.1335 17.4094L22.1198 24.6086L22.0144 24.6224C21.9137 24.6361 21.584 24.5491 21.2954 24.4255C21.2222 24.3934 21.0665 24.3339 20.952 24.2881C20.091 23.9492 19.3674 23.4775 18.6621 22.7859C18.1217 22.2593 17.6729 21.6548 17.3615 21.0274C17.2837 20.8716 17.1921 20.7434 17.1554 20.7434C17.1188 20.7388 17.0043 20.7801 16.9036 20.8259C16.7982 20.8716 16.6059 20.9632 16.4776 21.0182C16.3448 21.0777 16.2258 21.151 16.2166 21.1831C16.1662 21.3113 16.8211 22.4104 17.2837 22.96C17.8515 23.6423 18.1446 23.9125 18.9598 24.517C19.3766 24.8285 19.4819 24.8972 19.5781 24.9338C19.6147 24.9475 19.8345 25.0437 20.0589 25.1536C20.2879 25.2635 20.5627 25.3872 20.6772 25.433C20.7917 25.4742 20.952 25.5383 21.0344 25.5749C21.1168 25.6116 21.213 25.6391 21.2496 25.6391C21.2863 25.6391 21.3825 25.6665 21.4649 25.7032C21.5473 25.7398 21.7397 25.7902 21.8908 25.8222C22.2526 25.8955 23.1639 26.0009 23.2097 25.9734C23.2281 25.9642 23.2418 22.3784 23.2418 18.0094V10.0683L23.0494 10.0728C22.9395 10.0774 22.6922 10.1095 22.4999 10.1461Z" fill="white"></path><path d="M42.7298 14.0854C42.7114 14.0991 42.6977 15.757 42.6977 17.7628C42.6977 21.2983 42.6931 21.422 42.6061 21.6784C42.455 22.1181 42.2764 22.2509 41.8367 22.2509C41.3238 22.2509 41.0857 21.9624 41.0032 21.2434C40.9757 21.0052 40.9666 20.7579 40.9803 20.6938C41.0261 20.4786 40.9483 20.4603 40.0827 20.474L39.2859 20.4877L39.2721 20.7625C39.2584 21.0144 39.2813 21.2251 39.3958 22.0036C39.4507 22.3837 39.5881 22.631 39.9224 22.9608C40.4079 23.437 40.8429 23.5882 41.7589 23.5882C43.1648 23.5927 44.0258 23.1165 44.3784 22.141C44.5616 21.6327 44.5754 21.3075 44.5754 17.6117V14.0533H43.6686C43.1694 14.0533 42.7435 14.0671 42.7298 14.0854Z" fill="white"></path><path d="M55.1718 16.2924C54.8879 16.3977 54.5765 16.6038 54.3429 16.8511C54.2467 16.9519 54.1552 17.016 54.1368 16.9977C54.1185 16.9839 54.1048 16.8511 54.1048 16.7046C54.1048 16.558 54.0819 16.4252 54.0544 16.4069C53.9765 16.3611 52.4469 16.3794 52.4149 16.4298C52.4011 16.4527 52.392 18.0418 52.4011 19.9561L52.4103 23.4412H53.2804H54.146L54.1643 20.9087C54.1735 19.0677 54.1918 18.3349 54.233 18.2113C54.3658 17.8174 54.7093 17.5793 55.1535 17.5793C55.3825 17.5793 55.4512 17.5976 55.5748 17.7029C55.6527 17.7716 55.758 17.909 55.8038 18.0143C55.8817 18.1838 55.8908 18.3761 55.8908 20.8217V23.4412L56.7747 23.4321L57.654 23.4183L57.6769 20.8308C57.6952 18.8341 57.7135 18.2113 57.7593 18.1059C57.9059 17.7762 58.2265 17.5793 58.6203 17.5793C58.9271 17.5793 59.1058 17.6709 59.2477 17.8998C59.3485 18.0601 59.3485 18.0785 59.3622 20.7484L59.376 23.4412H60.2415H61.1116V20.5377C61.1116 17.8037 61.1071 17.6205 61.0246 17.3594C60.8964 16.961 60.7727 16.7412 60.5804 16.5763C60.2827 16.3153 60.0492 16.2374 59.4675 16.2145C58.9867 16.1962 58.9271 16.2054 58.6295 16.3199C58.2356 16.4756 57.8601 16.7733 57.7456 17.0251C57.6998 17.1305 57.6357 17.2129 57.599 17.2129C57.5624 17.2129 57.4846 17.103 57.425 16.9656C57.2968 16.6771 56.9991 16.4344 56.6007 16.2924C56.2572 16.1733 55.5107 16.1733 55.1718 16.2924Z" fill="white"></path><path d="M65.055 16.3114C64.7894 16.4213 64.3268 16.7786 64.2856 16.9022C64.2719 16.948 64.2307 16.9846 64.194 16.9846C64.1437 16.9846 64.1299 16.9159 64.1299 16.7144C64.1299 16.5633 64.107 16.4259 64.0795 16.4076C64.0383 16.3847 63.2002 16.3755 62.4721 16.3893C62.3942 16.3893 62.3896 16.6412 62.3896 21.0422V25.6951L62.5637 25.6722C62.8247 25.6402 64.0521 25.3196 64.1208 25.2646C64.162 25.228 64.1757 24.9303 64.1757 24.0556C64.1757 22.7642 64.1757 22.7687 64.4551 23.0573C64.8077 23.4328 65.229 23.5977 65.8015 23.5931C66.1404 23.5931 66.4564 23.5198 66.7128 23.387C67.038 23.2175 67.496 22.7046 67.5692 22.4207C67.7982 21.5276 67.8349 21.3261 67.8852 20.5934C67.9356 19.9065 67.931 19.6912 67.8669 18.9997C67.8257 18.5555 67.7524 18.0563 67.6975 17.8777C67.6471 17.6991 67.5876 17.493 67.5692 17.4197C67.4593 17.003 67.0884 16.5908 66.6121 16.3572C66.3785 16.2427 66.2961 16.229 65.8244 16.2198C65.3664 16.2061 65.2657 16.2198 65.055 16.3114ZM65.5771 17.6762C65.8885 17.8685 66.0167 18.1937 66.0946 18.9768C66.1587 19.6134 66.1587 20.1583 66.0946 20.827C65.9984 21.8711 65.7465 22.2512 65.1558 22.2512C64.423 22.2512 64.1757 21.6513 64.1757 19.879C64.1757 18.1616 64.423 17.58 65.1558 17.58C65.3481 17.58 65.4672 17.6075 65.5771 17.6762Z" fill="white"></path><path d="M45.8908 16.379C45.8496 16.3881 45.813 16.4202 45.813 16.4477C45.7946 17.9223 45.8267 22.076 45.8588 22.273C45.9137 22.6119 46.0419 22.8821 46.2526 23.1202C46.4633 23.3538 46.6877 23.4637 47.1273 23.5553C47.6723 23.6698 48.2035 23.5919 48.7073 23.3171C48.918 23.2026 49.2935 22.8363 49.2935 22.7493C49.2935 22.7264 49.3256 22.708 49.3622 22.708C49.4126 22.708 49.4309 22.7905 49.44 23.0607L49.4538 23.4179H50.2781H51.1025L51.1162 19.9007C51.1254 16.5759 51.1208 16.3881 51.0475 16.3835C50.7178 16.3744 49.4172 16.3881 49.3988 16.4019C49.3897 16.411 49.3851 17.4506 49.3851 18.71C49.3851 20.0518 49.3668 21.1372 49.3393 21.3341C49.2523 21.9387 48.9317 22.2501 48.3867 22.2501C47.9013 22.2501 47.6952 22.0715 47.6036 21.586C47.5716 21.4074 47.5532 20.4686 47.5532 18.8657C47.5532 17.5239 47.5487 16.411 47.5349 16.4019C47.512 16.379 46.0007 16.3606 45.8908 16.379Z" fill="white"></path><path fill-rule="evenodd" clip-rule="evenodd" d="M73.1508 14.1674C73.255 14.2173 73.4454 14.3064 73.5738 14.3653C73.7023 14.4243 73.9096 14.5633 74.0345 14.6743C74.3086 14.9178 74.7711 15.7461 74.7711 15.9936C74.7711 16.0916 74.7958 16.187 74.8259 16.2057C74.8561 16.2243 74.8822 16.5192 74.8841 16.8611C74.8868 17.3831 74.8704 17.4895 74.7815 17.5258C74.6512 17.579 73.2014 17.5902 73.0121 17.5394C72.903 17.5101 72.8682 17.4416 72.8428 17.2065C72.7128 16.0017 72.5253 15.6893 71.9025 15.6404C71.4927 15.6081 71.0827 15.9635 71.0827 16.351C71.0827 16.471 71.0557 16.6195 71.0227 16.6811C70.9558 16.8061 70.8886 17.8783 70.8929 18.7541C70.8969 19.5782 70.9593 20.9021 70.9969 20.9632C71.0147 20.9918 71.0416 21.1216 71.0567 21.2515C71.1027 21.6461 71.2666 21.8812 71.5789 22.0005C71.8239 22.094 71.8931 22.0968 72.123 22.0226C72.2678 21.9758 72.4293 21.8793 72.4817 21.8081C72.6378 21.5964 72.7361 21.3854 72.7361 21.2618C72.7361 21.1979 72.7647 21.128 72.7997 21.1064C72.8348 21.0847 72.8633 20.7992 72.8633 20.4691C72.8633 19.9292 72.8761 19.8643 72.9951 19.8006C73.08 19.7552 73.4593 19.7374 74.0603 19.7507L74.9937 19.7713L74.9865 20.1528C74.9764 20.6928 74.8915 21.4034 74.8207 21.5411C74.7877 21.6053 74.7473 21.7341 74.731 21.8272C74.6995 22.0061 74.5048 22.4143 74.3728 22.5779C74.0918 22.9259 73.6216 23.3249 73.4865 23.3299C73.462 23.3308 73.4062 23.3673 73.3625 23.411C73.3188 23.4547 73.2046 23.4905 73.1087 23.4905C73.0128 23.4905 72.9167 23.5191 72.8951 23.5541C72.8407 23.642 71.1804 23.6355 70.8964 23.5462C70.7715 23.507 70.6121 23.4448 70.5421 23.408C70.4722 23.3712 70.3064 23.2829 70.1737 23.2118C69.8686 23.0482 69.4037 22.547 69.2682 22.2354C69.211 22.104 69.138 21.9468 69.1059 21.8861C69.0739 21.8254 69.0477 21.7037 69.0477 21.6159C69.0477 21.528 69.0191 21.4561 68.9841 21.4561C68.9491 21.4561 68.9205 21.3435 68.9205 21.2059C68.9205 21.0683 68.8888 20.8752 68.8499 20.7768C68.8065 20.6667 68.7747 20.0102 68.7672 19.072C68.7557 17.634 68.7792 17.2498 68.9206 16.5607C68.9529 16.4034 68.998 16.1813 69.0208 16.0673C69.0437 15.9532 69.0877 15.8442 69.1186 15.8251C69.1496 15.806 69.1749 15.7477 69.1749 15.6957C69.1749 15.5565 69.5966 14.9212 69.8437 14.6883C70.1685 14.3821 70.7665 14.1248 71.3052 14.0595C71.7363 14.0072 72.9668 14.0791 73.1508 14.1674ZM90.1607 14.9787V15.8646L89.1591 15.8471L88.1575 15.8296L88.1396 15.0081C88.1263 14.3941 88.1423 14.1732 88.2032 14.1337C88.248 14.1046 88.7068 14.0834 89.2227 14.0868L90.1607 14.0928V14.9787ZM93.5342 14.5538C93.5359 14.5911 93.5346 15.0293 93.5313 15.5276L93.5253 16.4336H94.0023H94.4792L94.5199 16.65C94.5422 16.7691 94.5503 17.0909 94.5378 17.3652L94.5151 17.864L94.0243 17.8826L93.5335 17.9011L93.536 19.8304C93.5379 21.3549 93.5566 21.7844 93.625 21.878C93.6923 21.9701 93.7941 21.9965 94.0824 21.9965C94.2863 21.9965 94.4743 22.0251 94.5 22.06C94.5709 22.1565 94.558 23.4136 94.4856 23.4584C94.4127 23.5034 92.6937 23.5161 92.4367 23.4735C92.2299 23.4392 91.9452 23.2624 91.8141 23.0867C91.4963 22.6608 91.4961 22.6588 91.4961 17.9736C91.4961 17.9213 91.3756 17.8958 91.1273 17.8958C90.9244 17.8958 90.7241 17.8615 90.6821 17.8195C90.6327 17.7701 90.6058 17.513 90.6058 17.0884V16.4336H91.0669H91.5279L91.5167 15.7711C91.502 14.9116 91.5163 14.8645 91.804 14.8221C92.2587 14.7551 92.4829 14.7002 92.5628 14.6364C92.6074 14.6009 92.66 14.5878 92.6795 14.6074C92.6991 14.627 92.8174 14.6077 92.9423 14.5645C93.2214 14.4679 93.53 14.4623 93.5342 14.5538ZM78.8411 16.2672C79.716 16.3856 80.3099 16.714 80.6058 17.2433C80.6495 17.3215 80.6853 17.4374 80.6853 17.5008C80.6853 17.5642 80.7132 17.6441 80.7474 17.6782C80.7852 17.716 80.817 18.738 80.8284 20.2816C80.8387 21.6793 80.868 22.8873 80.8934 22.966C80.9906 23.2666 80.9982 23.3907 80.9226 23.4388C80.8795 23.4661 80.4498 23.4889 79.9679 23.4895C79.2439 23.4903 79.0863 23.4739 79.0617 23.3951C79.0453 23.3427 79.013 23.2497 78.9899 23.1885C78.9669 23.1273 78.9526 23.0557 78.9581 23.0296C78.9778 22.9365 78.9017 22.9849 78.6579 23.2203C78.3396 23.5277 78.0294 23.6176 77.2877 23.6176C76.7899 23.6176 76.6444 23.5941 76.444 23.4811C76.1282 23.3029 75.8151 22.9575 75.6457 22.6004C75.4705 22.2313 75.4124 21.1639 75.5429 20.712C75.6817 20.2313 76.4881 19.4852 76.8688 19.4852C76.9276 19.4852 76.9953 19.4656 77.0192 19.4417C77.0779 19.383 77.5035 19.227 77.6769 19.2006C77.7535 19.1889 77.847 19.1603 77.8846 19.1371C77.9221 19.1139 78.0659 19.0837 78.204 19.07C78.4545 19.0451 78.8706 18.7579 78.8065 18.6542C78.7894 18.6266 78.8045 18.586 78.84 18.564C79.0099 18.459 78.7476 17.8096 78.5096 17.7458C77.9097 17.5851 77.5056 17.8748 77.5056 18.4656V18.7258L76.5994 18.7081L75.6932 18.6905L75.7078 18.2374C75.7157 17.9881 75.7563 17.702 75.7978 17.6016C75.8393 17.5011 75.8758 17.4047 75.8788 17.3872C75.8976 17.2769 76.2236 16.9072 76.4636 16.724C76.7553 16.5014 77.1481 16.3594 77.76 16.2554C78.2285 16.1758 78.1602 16.1751 78.8411 16.2672ZM85.5579 16.277C85.8595 16.3202 86.1878 16.4762 86.3786 16.6668C86.4301 16.7184 86.4723 16.7398 86.4723 16.7143C86.4723 16.6182 86.803 17.0477 86.9048 17.276C86.9632 17.4071 87.0329 17.5144 87.0596 17.5144C87.0863 17.5144 87.1082 17.6088 87.1082 17.7242C87.1082 17.8396 87.1339 17.9612 87.1654 17.9944C87.3595 18.1996 87.3608 21.7934 87.1668 21.9933C87.1346 22.0265 87.1082 22.1195 87.1082 22.1999C87.1082 22.2803 87.0796 22.3461 87.0446 22.3461C87.0096 22.3461 86.981 22.4033 86.981 22.4733C86.981 22.5432 86.931 22.6538 86.8697 22.719C86.8085 22.7843 86.6679 22.9399 86.5573 23.0648C86.4466 23.1898 86.2115 23.3653 86.0347 23.4548C85.7567 23.5956 85.6316 23.6176 85.1071 23.6176C84.7453 23.6176 84.5009 23.592 84.5009 23.5541C84.5009 23.5191 84.4502 23.4905 84.3882 23.4905C84.3262 23.4905 84.176 23.4084 84.0543 23.3081L83.8331 23.1257L83.8541 23.9829C83.8656 24.4544 83.8586 24.9055 83.8386 24.9855C83.8009 25.1357 83.5491 25.2638 83.1994 25.3108C83.0957 25.3247 82.9827 25.3642 82.9482 25.3987C82.9138 25.4332 82.8201 25.4613 82.74 25.4613C82.66 25.4613 82.4582 25.5122 82.2917 25.5743C82.1251 25.6365 81.946 25.6866 81.8935 25.6856C81.8098 25.684 81.796 25.1347 81.7806 21.2018C81.771 18.7366 81.7787 16.6553 81.7977 16.5766C81.8317 16.4364 81.8509 16.4336 82.7533 16.4336C83.7074 16.4336 83.7051 16.4329 83.6775 16.7038C83.6615 16.8611 83.7376 16.8412 83.9849 16.6233C84.1033 16.519 84.2392 16.4336 84.2869 16.4336C84.3346 16.4336 84.3737 16.4096 84.3737 16.3803C84.3737 16.3247 85.0517 16.1856 85.1763 16.2155C85.2156 16.2249 85.3873 16.2526 85.5579 16.277ZM97.9882 16.2727C98.3174 16.3241 98.6583 16.3859 98.7458 16.4101C98.9638 16.4704 99.6361 16.9302 99.6361 17.0191C99.6361 17.0587 99.674 17.1363 99.7205 17.1915C99.7669 17.2467 99.8527 17.4702 99.9112 17.6882C100.002 18.0247 100.018 18.4364 100.018 20.41C100.018 22.3978 100.033 22.782 100.122 23.0557C100.211 23.3277 100.214 23.3845 100.138 23.4322C100.089 23.4632 99.6722 23.4889 99.2111 23.4895L98.3729 23.4905L98.2413 23.3059C98.169 23.2043 98.1087 23.0684 98.1073 23.0039C98.1052 22.9086 98.0881 22.9165 98.0165 23.0454C97.8008 23.4343 97.3216 23.6153 96.5034 23.6167C95.8326 23.6178 95.495 23.4856 95.1514 23.087C94.8678 22.7581 94.8326 22.7114 94.8077 22.6322C94.7968 22.5972 94.7592 22.4971 94.7244 22.4097C94.6209 22.1499 94.646 20.8251 94.7595 20.566C94.9589 20.1105 95.5145 19.6603 96.1702 19.4231C96.2402 19.3978 96.3976 19.341 96.52 19.2968C96.6424 19.2526 96.7998 19.2123 96.8698 19.2073C96.9397 19.2024 97.0345 19.1743 97.0803 19.1448C97.1262 19.1155 97.255 19.0788 97.3665 19.0633C97.5924 19.0319 97.8626 18.915 97.934 18.8178C97.9597 18.7828 97.9811 18.5843 97.9817 18.3767C97.983 17.8697 97.8387 17.7051 97.393 17.7051C97.1246 17.7051 97.0534 17.7334 96.8953 17.9026C96.7437 18.0647 96.7108 18.1555 96.7108 18.4112V18.7223H95.7899H94.869L94.8302 18.5678C94.7234 18.1421 95.0669 17.2166 95.464 16.8604C95.7316 16.6203 96.3945 16.3082 96.6563 16.2989C96.7737 16.2948 96.9556 16.2696 97.0605 16.2429C97.3412 16.1715 97.3392 16.1714 97.9882 16.2727ZM90.1432 19.952L90.1289 23.4587H89.1432H88.1575L88.1409 20.0256C88.1319 18.1374 88.1386 16.5556 88.1558 16.5105C88.1798 16.4479 88.4204 16.4305 89.1724 16.4368L90.1576 16.4452L90.1432 19.952ZM84.2672 17.931C84.0733 18.0159 84.0244 18.0917 83.955 18.4152C83.7891 19.1874 83.7921 20.7551 83.9607 21.4432C84.0663 21.8743 84.0904 21.9139 84.3007 22.0017C84.6197 22.135 85.0594 22.0032 85.0957 21.7634C85.1028 21.7167 85.1305 21.6435 85.1573 21.6006C85.2604 21.4357 85.2902 21.0672 85.2901 19.962C85.29 18.7346 85.2562 18.4231 85.0928 18.1466C84.9135 17.8431 84.6344 17.7702 84.2672 17.931ZM78.623 20.3172C78.4856 20.3841 78.2921 20.4388 78.1929 20.4388C77.8701 20.4388 77.5116 20.7298 77.5077 20.9951C77.5066 21.0738 77.477 21.1382 77.442 21.1382C77.407 21.1382 77.3784 21.2526 77.3784 21.3925C77.3784 21.5323 77.407 21.6468 77.442 21.6468C77.477 21.6468 77.5056 21.731 77.5056 21.8339C77.5056 22.0539 77.7017 22.219 77.963 22.219C78.1536 22.219 78.5728 22.008 78.6839 21.8561C78.8287 21.6581 78.9096 21.2126 78.8916 20.7129L78.8729 20.1955L78.623 20.3172ZM97.6647 20.3753C97.6122 20.4092 97.4902 20.4373 97.3935 20.4379C97.118 20.4394 96.7108 20.7221 96.7108 20.9119C96.7108 20.9623 96.6822 21.0212 96.6472 21.0428C96.6122 21.0644 96.5836 21.2335 96.5836 21.4186C96.5836 22.0399 96.9881 22.3753 97.469 22.1528C97.7982 22.0006 97.824 21.9807 97.8469 21.8625C97.8597 21.7963 97.8927 21.7278 97.9202 21.7104C97.9477 21.6929 97.9802 21.371 97.9923 20.9951C98.0133 20.3463 98.008 20.3116 97.8873 20.3126C97.8173 20.3132 97.7171 20.3414 97.6647 20.3753Z" fill="white"></path><path d="M101.067 14.6535L102.975 14.1767V23.4269H101.067V14.6535Z" fill="white"></path></svg>