<svg xmlns="http://www.w3.org/2000/svg" width="114" height="36" viewBox="0 0 114 36" fill="none"><path fill-rule="evenodd" clip-rule="evenodd" d="M8.52518 20.4787C8.72498 20.9114 8.98972 21.3122 9.31056 21.6676C8.62785 22.0273 7.86331 22.2105 7.08877 22.2C4.72312 22.2 3.00635 20.6681 3.00635 18.2229C3.00635 15.7602 4.81082 14.2279 7.08877 14.2279C7.82003 14.2163 8.54178 14.3918 9.18312 14.7373C8.878 15.1083 8.63051 15.5217 8.44871 15.964C8.06686 15.8145 7.6592 15.739 7.24818 15.7415C6.91316 15.7218 6.57772 15.7727 6.26437 15.8909C5.95101 16.009 5.66698 16.1916 5.43132 16.4265C5.19567 16.6614 5.01384 16.943 4.89803 17.2526C4.78221 17.5623 4.7351 17.8926 4.75985 18.2216C4.74185 18.5549 4.796 18.8882 4.91872 19.1994C5.04143 19.5106 5.22993 19.7927 5.47175 20.0271C5.71358 20.2614 6.00323 20.4427 6.32158 20.5589C6.63994 20.6751 6.97975 20.7236 7.31859 20.7012C7.73248 20.7029 8.14293 20.6274 8.5282 20.4787H8.52518ZM13.2828 14.2266C15.613 14.2266 17.2948 15.8451 17.2948 18.2216C17.3003 18.7417 17.2008 19.2577 17.0021 19.7398C16.8034 20.2219 16.5094 20.6605 16.1371 21.0302C15.7649 21.3999 15.3217 21.6934 14.8333 21.8937C14.3449 22.094 13.8209 22.1972 13.2917 22.1972C12.7624 22.1972 12.2385 22.094 11.7501 21.8937C11.2616 21.6934 10.8185 21.3999 10.4462 21.0302C10.0739 20.6605 9.77994 20.2219 9.58122 19.7398C9.38251 19.2577 9.28303 18.7417 9.28853 18.2216C9.28853 15.8439 10.9707 14.2266 13.2828 14.2266ZM13.2828 15.6901C11.9868 15.6901 11.0399 16.6718 11.0399 18.2216C11.0399 19.7544 11.9864 20.7352 13.2828 20.7352C14.6142 20.7352 15.5431 19.7544 15.5431 18.2216C15.5431 16.6718 14.6151 15.6901 13.2828 15.6901ZM18.399 22.0251V14.3985H20.1331V22.0251H18.399ZM18.1705 12.0548C18.1705 11.7715 18.285 11.4999 18.4887 11.2997C18.6925 11.0994 18.9688 10.9869 19.257 10.9869C19.5451 10.9869 19.8215 11.0994 20.0252 11.2997C20.229 11.4999 20.3435 11.7715 20.3435 12.0548C20.3435 12.338 20.229 12.6096 20.0252 12.8098C19.8215 13.0101 19.5451 13.1226 19.257 13.1226C18.9688 13.1226 18.6925 13.0101 18.4887 12.8098C18.285 12.6096 18.1705 12.338 18.1705 12.0548ZM21.6459 14.8792C22.7835 14.4585 23.9873 14.237 25.2026 14.2249C27.1825 14.2249 28.4426 14.9658 28.4426 17.1181V22.0251H26.7254V17.2743C26.7254 16.1704 26.0247 15.7759 25.0605 15.7759C24.4919 15.7721 23.9257 15.8475 23.3787 16.0001V22.0251H21.6481V14.8792H21.6459ZM29.8972 10.3156H31.6308V14.604C32.187 14.355 32.7909 14.2258 33.402 14.2253C35.645 14.2253 37.3268 15.6371 37.3268 18.0827C37.3268 20.5454 35.6623 22.1979 32.7907 22.1979C31.8053 22.1952 30.8276 22.0264 29.9002 21.699V10.3173L29.8972 10.3156ZM31.6308 20.5789C32.0243 20.6876 32.4317 20.7397 32.8404 20.7335C34.4349 20.7335 35.5741 19.8728 35.5741 18.1163C35.5906 17.8036 35.5404 17.4911 35.4267 17.1987C35.313 16.9062 35.1383 16.6404 34.9139 16.4182C34.6895 16.1961 34.4204 16.0225 34.1237 15.9086C33.827 15.7946 33.5094 15.7429 33.1912 15.7568C32.6488 15.7471 32.1125 15.8716 31.6317 16.1186V20.5768L31.6308 20.5789ZM42.335 16.9109C42.335 16.0837 41.7042 15.7058 40.8459 15.7058C40.055 15.7092 39.2799 15.9231 38.6029 16.3249V14.8439C39.3765 14.4297 40.2449 14.2165 41.1258 14.2245C42.8249 14.2245 44.0336 14.9131 44.0336 16.8242V21.8697C43.1614 22.0743 42.2679 22.1784 41.3712 22.1801C39.3563 22.1801 37.8845 21.5772 37.8845 19.8554C37.8845 18.3052 39.2332 17.5482 41.4757 17.5482H42.3345V16.9113L42.335 16.9109ZM42.335 18.6844H41.6006C40.391 18.6844 39.6026 19.0283 39.6026 19.8036C39.6026 20.5959 40.337 20.9076 41.3902 20.9076C41.7073 20.9027 42.0235 20.8744 42.3363 20.8227V18.6874L42.335 18.6844ZM45.2955 19.9582C45.9713 20.4839 46.7995 20.7852 47.6607 20.8188C48.4318 20.8188 48.9398 20.5607 48.9398 19.9582C48.9398 19.3378 48.4845 19.1141 47.4857 18.8542C45.8739 18.4929 45.1905 17.8556 45.1905 16.53C45.1905 14.9802 46.382 14.2227 47.9583 14.2227C48.7421 14.2007 49.5153 14.404 50.1832 14.8078V16.378C49.5657 15.8917 48.8021 15.6193 48.011 15.6031C47.2576 15.6031 46.855 15.9649 46.855 16.4638C46.855 16.9627 47.1872 17.2221 48.081 17.4624C49.8522 17.8416 50.6216 18.4963 50.6216 19.8737C50.6216 21.4753 49.3779 22.1983 47.6961 22.1983C46.8531 22.2142 46.0222 21.9998 45.2959 21.5789V19.9603L45.2955 19.9582ZM52.995 18.5995V18.6339C53.1009 19.9926 54.2911 20.7343 55.5007 20.7343C56.4277 20.7635 57.3404 20.5047 58.1091 19.9947V21.4935C57.2876 21.9854 56.3377 22.2305 55.3763 22.1987C52.957 22.1987 51.3115 20.6838 51.3115 18.273C51.3115 15.8451 52.9229 14.2266 55.0609 14.2266C57.3207 14.2266 58.3873 15.6557 58.3873 17.7392V18.6003L52.995 18.5995ZM56.7621 17.4955C56.7271 16.3067 56.1318 15.6528 55.0099 15.6528C54.0116 15.6528 53.2759 16.3415 53.0478 17.4955H56.7621Z" fill="white"></path><path fill-rule="evenodd" clip-rule="evenodd" d="M64.8587 10.0007C64.9335 10.0007 65.0052 10.0299 65.0581 10.0819C65.111 10.1339 65.1407 10.2044 65.1407 10.2779V25.7234C65.1407 25.7598 65.1334 25.7959 65.1193 25.8295C65.1051 25.8632 65.0843 25.8937 65.0581 25.9195C65.0319 25.9452 65.0008 25.9656 64.9666 25.9796C64.9324 25.9935 64.8957 26.0007 64.8587 26.0007C64.8217 26.0007 64.785 25.9935 64.7508 25.9796C64.7165 25.9656 64.6855 25.9452 64.6593 25.9195C64.6331 25.8937 64.6123 25.8632 64.5981 25.8295C64.584 25.7959 64.5767 25.7598 64.5767 25.7234V10.2779C64.5767 10.2044 64.6064 10.1339 64.6593 10.0819C64.7122 10.0299 64.7839 10.0007 64.8587 10.0007Z" fill="white"></path><path fill-rule="evenodd" clip-rule="evenodd" d="M74.8821 22.0405H73.9157L70.9258 14.4186H71.8006L74.412 21.2453L77.0231 14.4186H77.8719L74.8821 22.0405ZM82.6218 19.2807H78.3135V19.3061C78.2971 19.5883 78.3398 19.8708 78.439 20.1361C78.5382 20.4014 78.6919 20.6438 78.8903 20.8483C79.0888 21.0528 79.3279 21.2151 79.5928 21.3251C79.8577 21.4351 80.1427 21.4904 80.4303 21.4877C81.1335 21.51 81.8221 21.2872 82.3743 20.8585V21.6287C81.7985 22.0016 81.1194 22.1899 80.4303 22.1679C78.7852 22.1679 77.5315 21.064 77.5315 19.242C77.5315 17.5611 78.7066 16.3166 80.2337 16.3166C81.6701 16.3166 82.6231 17.1632 82.6231 18.755V19.2811L82.6218 19.2807ZM78.3653 18.6391H81.8395C81.7876 17.4711 81.1482 16.9963 80.1944 16.9963C79.3066 16.9963 78.5886 17.5865 78.3666 18.6391H78.3653ZM83.494 22.0393V16.7412C84.2606 16.4689 85.0684 16.3254 85.8834 16.3166C87.3194 16.3166 88.1942 16.8686 88.1942 18.2672V22.0393H87.4123V18.4209C87.4123 17.2787 86.5915 17.035 85.8195 17.035C85.2992 17.0396 84.7817 17.1087 84.279 17.2405V22.0384L83.494 22.0393ZM88.675 17.0991V16.4448H89.5494V15.0861H90.3331V16.4448H91.9388V17.0991H90.3331V20.5124C90.3331 21.2308 90.6203 21.5136 91.1539 21.5136C91.5267 21.4977 91.8899 21.392 92.2114 21.2058V21.8851C91.8312 22.0744 91.4103 22.1712 90.9841 22.1675C90.1633 22.1675 89.5477 21.7429 89.5477 20.5893V17.0987L88.675 17.0991ZM97.3937 16.4448V21.9752C96.7394 22.0981 96.0752 22.1626 95.4091 22.1679C93.764 22.1679 92.824 21.6159 92.824 20.2173V16.4444H93.6076V20.1808C93.6076 21.2325 94.4565 21.5021 95.3572 21.5021C95.776 21.5012 96.1944 21.4755 96.61 21.4253V16.4461L97.3937 16.4448ZM99.5066 17.3687V22.0393H98.7238V16.9594C99.3575 16.5662 100.091 16.357 100.841 16.3561C101.162 16.3574 101.482 16.3962 101.794 16.4716V17.2286C101.468 17.1306 101.129 17.0831 100.788 17.0876C100.344 17.0718 99.9034 17.1691 99.5088 17.37L99.5066 17.3687ZM106.868 19.2794H102.559V19.3049C102.543 19.587 102.585 19.8695 102.685 20.1348C102.784 20.4001 102.938 20.6425 103.136 20.847C103.334 21.0515 103.574 21.2138 103.838 21.3238C104.103 21.4338 104.388 21.4892 104.676 21.4864C105.379 21.5086 106.068 21.2857 106.62 20.8572V21.6274C106.044 22.0003 105.365 22.1886 104.676 22.1666C103.031 22.1666 101.778 21.0627 101.778 19.2408C101.778 17.5598 102.953 16.3153 104.48 16.3153C105.917 16.3153 106.87 17.162 106.87 18.7538V19.2798L106.868 19.2794ZM102.612 18.6378H106.085C106.032 17.4698 105.394 16.9951 104.44 16.9951C103.552 16.9976 102.835 17.5882 102.612 18.6404L102.612 18.6378ZM107.466 21.7174V20.8449C107.893 21.2639 108.469 21.5033 109.072 21.5124C109.79 21.5124 110.247 21.2427 110.247 20.6139C110.247 19.9464 109.751 19.7647 108.85 19.4717C107.845 19.138 107.414 18.7274 107.414 17.829C107.414 16.8409 108.172 16.3149 109.203 16.3149C109.754 16.2948 110.297 16.4432 110.758 16.7395V17.5738C110.335 17.1888 109.78 16.9735 109.203 16.9705C108.577 16.9705 108.172 17.3042 108.172 17.8303C108.172 18.3432 108.485 18.6128 109.359 18.8824C110.353 19.1775 111.018 19.5494 111.018 20.5634C111.018 21.6673 110.143 22.1675 109.074 22.1675C108.504 22.1847 107.943 22.0279 107.467 21.7187L107.466 21.7174Z" fill="white"></path><path fill-rule="evenodd" clip-rule="evenodd" d="M74.8821 22.0405H73.9157L70.9258 14.4186H71.8006L74.412 21.2453L77.0231 14.4186H77.8719L74.8821 22.0405ZM82.6218 19.2807H78.3135V19.3061C78.2971 19.5883 78.3398 19.8708 78.439 20.1361C78.5382 20.4014 78.6919 20.6438 78.8903 20.8483C79.0888 21.0528 79.3279 21.2151 79.5928 21.3251C79.8577 21.4351 80.1427 21.4904 80.4303 21.4877C81.1335 21.51 81.8221 21.2872 82.3743 20.8585V21.6287C81.7985 22.0016 81.1194 22.1899 80.4303 22.1679C78.7852 22.1679 77.5315 21.064 77.5315 19.242C77.5315 17.5611 78.7066 16.3166 80.2337 16.3166C81.6701 16.3166 82.6231 17.1632 82.6231 18.755V19.2811L82.6218 19.2807ZM78.3653 18.6391H81.8395C81.7876 17.4711 81.1482 16.9963 80.1944 16.9963C79.3066 16.9963 78.5886 17.5865 78.3666 18.6391H78.3653ZM83.494 22.0393V16.7412C84.2606 16.4689 85.0684 16.3254 85.8834 16.3166C87.3194 16.3166 88.1942 16.8686 88.1942 18.2672V22.0393H87.4123V18.4209C87.4123 17.2787 86.5915 17.035 85.8195 17.035C85.2992 17.0396 84.7817 17.1087 84.279 17.2405V22.0384L83.494 22.0393ZM88.675 17.0991V16.4448H89.5494V15.0861H90.3331V16.4448H91.9388V17.0991H90.3331V20.5124C90.3331 21.2308 90.6203 21.5136 91.1539 21.5136C91.5267 21.4977 91.8899 21.392 92.2114 21.2058V21.8851C91.8312 22.0744 91.4103 22.1712 90.9841 22.1675C90.1633 22.1675 89.5477 21.7429 89.5477 20.5893V17.0987L88.675 17.0991ZM97.3937 16.4448V21.9752C96.7394 22.0981 96.0752 22.1626 95.4091 22.1679C93.764 22.1679 92.824 21.6159 92.824 20.2173V16.4444H93.6076V20.1808C93.6076 21.2325 94.4565 21.5021 95.3572 21.5021C95.776 21.5012 96.1944 21.4755 96.61 21.4253V16.4461L97.3937 16.4448ZM99.5066 17.3687V22.0393H98.7238V16.9594C99.3575 16.5662 100.091 16.357 100.841 16.3561C101.162 16.3574 101.482 16.3962 101.794 16.4716V17.2286C101.468 17.1306 101.129 17.0831 100.788 17.0876C100.344 17.0718 99.9034 17.1691 99.5088 17.37L99.5066 17.3687ZM106.868 19.2794H102.559V19.3049C102.543 19.587 102.585 19.8695 102.685 20.1348C102.784 20.4001 102.938 20.6425 103.136 20.847C103.334 21.0515 103.574 21.2138 103.838 21.3238C104.103 21.4338 104.388 21.4892 104.676 21.4864C105.379 21.5086 106.068 21.2857 106.62 20.8572V21.6274C106.044 22.0003 105.365 22.1886 104.676 22.1666C103.031 22.1666 101.778 21.0627 101.778 19.2408C101.778 17.5598 102.953 16.3153 104.48 16.3153C105.917 16.3153 106.87 17.162 106.87 18.7538V19.2798L106.868 19.2794ZM102.612 18.6378H106.085C106.032 17.4698 105.394 16.9951 104.44 16.9951C103.552 16.9976 102.835 17.5882 102.612 18.6404L102.612 18.6378ZM107.466 21.7174V20.8449C107.893 21.2639 108.469 21.5033 109.072 21.5124C109.79 21.5124 110.247 21.2427 110.247 20.6139C110.247 19.9464 109.751 19.7647 108.85 19.4717C107.845 19.138 107.414 18.7274 107.414 17.829C107.414 16.8409 108.172 16.3149 109.203 16.3149C109.754 16.2948 110.297 16.4432 110.758 16.7395V17.5738C110.335 17.1888 109.78 16.9735 109.203 16.9705C108.577 16.9705 108.172 17.3042 108.172 17.8303C108.172 18.3432 108.485 18.6128 109.359 18.8824C110.353 19.1775 111.018 19.5494 111.018 20.5634C111.018 21.6673 110.143 22.1675 109.074 22.1675C108.504 22.1847 107.943 22.0279 107.467 21.7187L107.466 21.7174Z" fill="white"></path></svg>