<svg xmlns="http://www.w3.org/2000/svg" width="114" height="36" viewBox="0 0 114 36" fill="none"><path fill-rule="evenodd" clip-rule="evenodd" d="M14.0015 13.8924V22.2847H57.0005H99.9996V13.8924V5.5H57.0005H14.0015V13.8924ZM22.01 9.85724C22.3767 10.1792 22.6767 10.5088 22.6767 10.5899C22.6767 10.6708 22.4617 10.8781 22.1988 11.0505C21.7466 11.3467 21.6943 11.3428 21.2304 10.9779C20.5441 10.4379 19.7447 10.4749 19.3584 11.0644C18.9151 11.7411 19.2447 12.1373 21.052 13.1001C22.8148 14.0393 23.3155 14.7271 23.1816 16.0257C22.9417 18.3492 19.6641 19.1213 17.8293 17.2865C17.4874 16.9445 17.2075 16.5896 17.2075 16.498C17.2075 16.4061 17.4735 16.174 17.7986 15.982C18.344 15.6597 18.4032 15.6568 18.5646 15.9452C18.6608 16.117 18.8323 16.2004 18.9456 16.1304C19.0612 16.0589 19.0984 16.0891 19.0305 16.1992C18.7385 16.6715 20.1081 17.1111 20.9153 16.804C21.5254 16.5721 21.7268 16.3143 21.7309 15.7604C21.7347 15.2427 21.2544 14.827 19.9103 14.1847C18.1435 13.3404 17.4125 12.2275 17.7809 10.9432C18.123 9.74974 18.8183 9.30259 20.3599 9.28373C21.2002 9.27355 21.4405 9.35709 22.01 9.85724ZM32.0705 9.95682L32.012 10.6418L30.739 10.635L29.466 10.6284V14.3819V18.1357H28.7117H27.9573V14.3508V10.566L26.6843 10.6131L25.4113 10.6603L25.3528 9.96606L25.2942 9.27185H28.7117H32.1292L32.0705 9.95682ZM40.3126 9.97907C40.3403 10.3336 40.2705 10.5967 40.1468 10.6033C40.0291 10.6095 39.0629 10.6048 37.9998 10.5929L36.0668 10.5711V11.8073V13.0437H37.9527H39.8386V13.7038V14.3638H37.9527H36.0668V15.5897V16.8155H38.2356H40.4044V17.4756V18.1357H37.4812H34.558V13.6989V9.26204L37.4113 9.31409L40.2645 9.36614L40.3126 9.97907ZM48.0358 12.2422C48.7438 13.876 49.6043 15.8701 49.9485 16.6741L50.5741 18.1357H49.7556H48.9371L48.5112 16.997L48.0854 15.8583L46.5661 15.9126L45.047 15.9669L44.6317 17.0041C44.2289 18.0107 44.193 18.0431 43.4236 18.1002C42.9876 18.1327 42.6715 18.0902 42.7213 18.0059C42.7967 17.8781 45.1119 12.4204 46.1263 9.97907C46.2879 9.59019 46.494 9.27185 46.5844 9.27185C46.6749 9.27185 47.328 10.6084 48.0358 12.2422ZM57.8492 9.78859C59.4294 10.6092 60.2066 11.9219 60.2066 13.7703C60.2066 15.5063 59.549 16.7099 58.1525 17.5299C57.3747 17.9865 57.0605 18.0474 55.1618 18.1083L53.0401 18.1764V13.6998V9.22338L55.0675 9.31013C56.6305 9.37689 57.2676 9.48647 57.8492 9.78859ZM64.776 11.1578C65.1922 12.1432 65.7192 13.4669 65.9466 14.0994L66.3604 15.2495L67.5555 12.2607L68.7508 9.27185H69.4967C70.0159 9.27185 70.2148 9.34351 70.1516 9.50759C69.0156 12.4585 66.4811 18.3083 66.3564 18.2673C66.1976 18.2153 62.4791 9.72711 62.4727 9.40254C62.471 9.31862 62.8182 9.27619 63.2444 9.30825L64.019 9.36614L64.776 11.1578ZM74.351 13.7038V18.1357H73.5967H72.8423V13.7038V9.27185H73.5967H74.351V13.7038ZM83.2149 9.93192V10.592H81.1404H79.0658V11.8178V13.0437H80.9518H82.8377V13.7038V14.3638H80.9518H79.0658V15.5897V16.8155H81.2347H83.4035V17.4756V18.1357H80.4803H77.5571V13.7038V9.27185H80.386H83.2149V9.93192ZM88.1098 12.0487C88.5813 13.524 89.0305 14.7333 89.1084 14.7361C89.1863 14.7388 89.2498 14.6548 89.2498 14.5494C89.2498 14.0977 91.3981 9.26506 91.5729 9.32333C91.7832 9.3933 93.9369 14.2814 93.9599 14.741C93.9678 14.8966 94.4014 13.7298 94.9235 12.1479L95.8726 9.27185H96.6317C97.1636 9.27185 97.3625 9.34238 97.2965 9.50759C97.2446 9.63734 96.5516 11.674 95.7563 14.0338C94.9612 16.3937 94.2455 18.3243 94.1661 18.3243C94.0463 18.3243 91.932 13.4073 91.6521 12.4779C91.5993 12.3031 91.4471 12.483 91.2531 12.9494C89.7656 16.5244 88.9698 18.3243 88.8759 18.3243C88.8148 18.3243 88.096 16.3937 87.2789 14.0338C86.4617 11.674 85.7533 9.63187 85.7051 9.49552C85.639 9.31013 85.8227 9.26261 86.4347 9.30693L87.2526 9.36614L88.1098 12.0487ZM54.5488 13.6821V16.8155H55.3937C56.5211 16.8155 57.6708 16.3318 58.1532 15.6544C58.7173 14.8621 58.8291 13.1535 58.3733 12.2893C58.1819 11.9263 57.922 11.6506 57.7958 11.6764C57.6697 11.7024 57.5874 11.6232 57.6135 11.5004C57.6832 11.1706 56.8619 10.8306 55.6332 10.6808L54.5488 10.5486V13.6821ZM46.1932 13.0429C45.9244 13.6339 45.4964 14.5524 45.4964 14.5524C45.4964 14.5524 46.0869 14.5524 46.6176 14.5524H47.5502L47.1166 13.5623C46.878 13.0177 46.5337 12.2893 46.5337 12.2893C46.5337 12.2893 46.327 12.749 46.1932 13.0429ZM18.0817 24.7502C17.368 25.3114 17.368 26.6131 18.0817 27.1744C18.6565 27.6266 19.6136 27.6839 20.1415 27.2979C20.6784 26.9052 20.3425 26.7253 19.7713 27.0995C19.1104 27.5325 18.4221 27.3298 18.0392 26.5893C17.7584 26.0466 17.7577 25.9427 18.0304 25.3712C18.3947 24.6071 19.0899 24.3785 19.745 24.8079C20.0078 24.9801 20.2524 25.0335 20.3148 24.9324C20.4674 24.6855 19.7935 24.3592 19.1314 24.3592C18.8274 24.3592 18.3549 24.5352 18.0817 24.7502ZM23.1608 25.7392C22.86 26.4841 22.5328 27.2 22.4336 27.3296C22.3127 27.4878 22.3288 27.5653 22.4827 27.5653C22.6088 27.5653 22.7565 27.3956 22.8106 27.1881C22.8898 26.8853 23.0679 26.8109 23.714 26.8109C24.3601 26.8109 24.5381 26.8853 24.6173 27.1881C24.6715 27.3956 24.8055 27.5653 24.9149 27.5653C25.063 27.5653 23.9823 24.6591 23.747 24.4236C23.7253 24.4021 23.4616 24.994 23.1608 25.7392ZM27.3915 25.9623C27.3915 26.9052 27.4692 27.5653 27.5801 27.5653C27.6838 27.5653 27.7587 27.5016 27.7465 27.4239C27.6806 27.0075 27.8255 26.8468 28.3637 26.7391C29.2028 26.5712 29.466 26.2927 29.466 25.5726C29.466 24.8173 28.9163 24.3592 28.0095 24.3592H27.3915V25.9623ZM31.8234 25.9623C31.8234 26.9052 31.9011 27.5653 32.012 27.5653C32.1229 27.5653 32.2006 26.9052 32.2006 25.9623C32.2006 25.0193 32.1229 24.3592 32.012 24.3592C31.9011 24.3592 31.8234 25.0193 31.8234 25.9623ZM34.8881 24.4956L35.501 24.5718V26.0685C35.501 26.8919 35.5647 27.5655 35.6424 27.5657C35.7201 27.5659 35.7839 26.9092 35.7839 26.1066V24.6472L36.3497 24.5256C36.7086 24.4484 36.4326 24.4068 35.5953 24.4117C34.8692 24.416 34.5511 24.4539 34.8881 24.4956ZM39.1931 25.7345C38.8913 26.482 38.5632 27.2 38.464 27.3296C38.3431 27.4878 38.3591 27.5653 38.513 27.5653C38.6392 27.5653 38.7868 27.3956 38.841 27.1881C38.9202 26.8853 39.0982 26.8109 39.7443 26.8109C40.3904 26.8109 40.5685 26.8853 40.6477 27.1881C40.7018 27.3956 40.8355 27.5653 40.9447 27.5653C41.0537 27.5653 40.8836 26.9926 40.5666 26.2923C40.2496 25.5921 39.9342 24.8743 39.866 24.6972C39.7777 24.4681 39.5833 24.7677 39.1931 25.7345ZM43.4219 25.9623V27.5653H44.3648C44.8835 27.5653 45.3078 27.4995 45.3078 27.419C45.3078 27.3384 44.9683 27.3049 44.5534 27.3445L43.7991 27.4163V25.8878C43.7991 24.9944 43.7206 24.3592 43.6105 24.3592C43.4996 24.3592 43.4219 25.0193 43.4219 25.9623ZM50.4017 24.925C50.3989 25.2881 50.343 26.0306 50.2776 26.5752C50.1954 27.2598 50.225 27.5653 50.3736 27.5653C50.5082 27.5653 50.5884 27.1783 50.5884 26.5281C50.5884 25.9576 50.6576 25.4908 50.7423 25.4908C50.827 25.4908 51.0868 25.8303 51.3201 26.2452C51.5532 26.6601 51.7756 26.9995 51.8142 26.9995C51.8529 26.9995 52.0753 26.6601 52.3084 26.2452C52.5416 25.8303 52.8015 25.4908 52.8862 25.4908C52.9709 25.4908 53.0401 25.9576 53.0401 26.5281C53.0401 27.0985 53.125 27.5653 53.2287 27.5653C53.4484 27.5653 53.4631 27.117 53.2962 25.5198L53.1753 24.3621L52.5184 25.4122C52.1571 25.9898 51.7969 26.3923 51.7179 26.3066C51.6389 26.221 51.3115 25.7265 50.9905 25.2079L50.407 24.2649L50.4017 24.925ZM57.0056 24.3896C57.0028 24.4583 56.7067 25.2009 56.3476 26.0398C55.9885 26.8788 55.7705 27.5653 55.8635 27.5653C55.9563 27.5653 56.086 27.3956 56.1519 27.1881C56.2454 26.8932 56.4372 26.8109 57.0309 26.8109C57.6316 26.8109 57.8107 26.8898 57.8888 27.1881C57.9431 27.3956 58.1057 27.5653 58.25 27.5653C58.4489 27.5653 58.465 27.4855 58.3162 27.2353C58.2083 27.0537 57.8703 26.3112 57.5654 25.5851C57.2602 24.859 57.0085 24.3211 57.0056 24.3896ZM60.6781 25.9451C60.6781 26.8362 60.7418 27.5653 60.8195 27.5653C60.8972 27.5653 60.961 27.0561 60.961 26.4338C60.961 25.8114 61.0247 25.3097 61.1024 25.319C61.1801 25.328 61.6895 25.8365 62.234 26.4487L63.2241 27.5617V25.9606C63.2241 24.9043 63.1522 24.3592 63.0129 24.3592C62.8712 24.3592 62.8286 24.7325 62.8835 25.4908C62.9284 26.1132 62.9365 26.6224 62.9014 26.6224C62.8661 26.6224 62.3517 26.1054 61.7578 25.4736L60.6781 24.3249V25.9451ZM66.8124 24.3896C66.8096 24.4583 66.5135 25.2009 66.1544 26.0398C65.7953 26.8788 65.5773 27.5653 65.6703 27.5653C65.7631 27.5653 65.8929 27.3956 65.9587 27.1881C66.0522 26.8932 66.244 26.8109 66.8377 26.8109C67.4384 26.8109 67.6175 26.8898 67.6956 27.1881C67.7499 27.3956 67.875 27.5653 67.9736 27.5653C68.0722 27.5653 68.1058 27.4167 68.0481 27.2349C67.8746 26.6885 66.8179 24.2553 66.8124 24.3896ZM70.8121 24.5548C69.9242 24.9114 69.8037 26.6991 70.6286 27.277C71.5768 27.941 73.2195 27.4063 73.2195 26.4338C73.2195 26.1284 73.0937 26.0566 72.5594 26.0566C72.1964 26.0566 71.8993 26.1297 71.8993 26.219C71.8993 26.3083 72.1115 26.341 72.3708 26.2914C73.0124 26.1688 73.003 26.697 72.3563 27.1208C71.7387 27.5253 70.9916 27.2988 70.5913 26.5856C70.2241 25.9315 70.4845 25.1391 71.1968 24.7423C71.667 24.4803 71.7671 24.4831 72.2744 24.7724C72.5822 24.9478 72.8755 25.0238 72.9264 24.9414C73.0484 24.744 72.183 24.356 71.6547 24.3711C71.4262 24.3777 71.0471 24.4603 70.8121 24.5548ZM75.4992 25.9623L75.4677 27.5653H76.5123C77.0869 27.5653 77.5571 27.501 77.5571 27.4226C77.5571 27.3439 77.1752 27.3102 76.7084 27.3471L75.8598 27.4146V26.7464C75.8598 26.0973 75.8828 26.0762 76.6613 26.006L77.4628 25.9338L76.6613 25.901C75.8728 25.8685 75.8598 25.8569 75.8598 25.1889V24.5099L76.7084 24.5774C77.1752 24.6144 77.5571 24.5807 77.5571 24.502C77.5571 24.4236 77.1013 24.3592 76.544 24.3592H75.5309L75.4992 25.9623ZM82.6838 24.6893C82.4877 25.0763 82.8307 27.5653 83.08 27.5653C83.1707 27.5653 83.196 27.332 83.1366 27.0467C83.077 26.7613 83.0148 26.04 82.9982 25.4436C82.9816 24.8473 82.9418 24.3592 82.9095 24.3592C82.8773 24.3592 82.7756 24.5077 82.6838 24.6893ZM85.6666 25.9623V27.5653H86.7038C87.2743 27.5653 87.7411 27.501 87.7411 27.4226C87.7411 27.3439 87.3592 27.3102 86.8924 27.3471L86.0438 27.4146V26.7464C86.0438 26.0973 86.0668 26.0762 86.8453 26.006L87.6468 25.9338L86.8453 25.901C86.0638 25.8687 86.0438 25.8518 86.0438 25.2183C86.0438 24.5788 86.0579 24.5674 86.9396 24.4979C87.8256 24.4281 87.8233 24.4269 86.751 24.3932L85.6666 24.3592V25.9623ZM90.0063 25.9151C90.0051 26.8909 90.0813 27.5653 90.1928 27.5653C90.2975 27.5653 90.3853 27.0408 90.3903 26.3866L90.3991 25.2079L91.498 26.4036L92.597 27.5991L92.5736 25.9804C92.5608 25.09 92.4866 24.3609 92.4088 24.3604C92.3309 24.3598 92.2673 24.8684 92.2673 25.4908C92.2673 26.1194 92.1836 26.6224 92.0787 26.6224C91.975 26.6224 91.8865 26.5586 91.882 26.4809C91.8775 26.4032 91.4541 25.8727 90.9411 25.3022L90.0084 24.2649L90.0063 25.9151ZM95.2376 24.4956L95.8506 24.5718V26.0685C95.8506 26.9407 95.9292 27.5653 96.0392 27.5653C96.1495 27.5653 96.2278 26.9294 96.2278 26.0345V24.5039L96.6992 24.594C96.9585 24.6436 97.1707 24.611 97.1707 24.5216C97.1707 24.4324 96.5978 24.3728 95.8977 24.3894C95.1977 24.406 94.9004 24.4539 95.2376 24.4956ZM28.6051 24.7317C28.9668 24.8692 29.0889 25.0501 29.0889 25.4484C29.0889 26.0941 28.7833 26.4338 28.2025 26.4338C27.8077 26.4338 27.7687 26.3491 27.7687 25.4908C27.7687 24.496 27.8325 24.4381 28.6051 24.7317ZM80.1265 25.3109C79.9268 26.8986 79.8962 27.5653 80.0231 27.5653C80.1699 27.5653 80.386 26.5961 80.386 25.9387C80.386 25.6924 80.4709 25.4908 80.5746 25.4908C80.6783 25.4908 80.7635 25.5545 80.7639 25.6322C80.7643 25.7099 80.9406 26.0626 81.156 26.4157L81.5473 27.0578L82.0224 26.2614C82.2836 25.8233 82.4548 25.4223 82.403 25.3705C82.3511 25.3186 82.1548 25.5366 81.9668 25.855C81.5464 26.5663 81.434 26.5748 81.1568 25.9151C81.0368 25.6298 80.7798 25.1883 80.5853 24.9337L80.2321 24.4709L80.1265 25.3109ZM24.1017 25.9681C24.2028 26.473 24.166 26.5281 23.7281 26.5281C23.1731 26.5281 23.1684 26.5139 23.4545 25.6932C23.6906 25.0161 23.9318 25.1187 24.1017 25.9681ZM40.1672 25.9717C40.3544 26.5347 40.3454 26.5469 39.7417 26.5469C39.3934 26.5469 39.1548 26.4607 39.1933 26.3489C39.6861 24.9209 39.8024 24.8756 40.1672 25.9717ZM57.5578 26.3551C57.5625 26.4675 57.3117 26.5596 57.0005 26.5596C56.6894 26.5596 56.4348 26.5416 56.4348 26.5196C56.4348 26.4977 56.5745 26.1512 56.7454 25.7495L57.056 25.0193L57.3027 25.5851C57.4383 25.8963 57.5531 26.2427 57.5578 26.3551ZM67.2845 26.0566C67.5134 26.5126 67.5002 26.5284 66.8815 26.5422C66.5295 26.5499 66.2416 26.5392 66.2416 26.5181C66.2416 26.4971 66.3809 26.1512 66.5514 25.7495C66.7517 25.2773 66.8943 25.1193 66.9544 25.3022C67.0057 25.4578 67.1542 25.7973 67.2845 26.0566ZM14.0015 29.8284C14.0015 29.9536 28.4603 30.017 57.0005 30.017C85.5408 30.017 99.9996 29.9536 99.9996 29.8284C99.9996 29.7032 85.5408 29.6398 57.0005 29.6398C28.4603 29.6398 14.0015 29.7032 14.0015 29.8284Z" fill="white"></path></svg>