<svg xmlns="http://www.w3.org/2000/svg" width="32" height="32" viewBox="0 0 32 32" fill="none"><path d="M16 32C24.8366 32 32 24.8366 32 16C32 7.16344 24.8366 0 16 0C7.16344 0 0 7.16344 0 16C0 24.8366 7.16344 32 16 32Z" fill="#627EEA"></path><path d="M16.4985 3.9978V12.8682L23.9955 16.2187L16.4985 3.9978Z" fill="white" fill-opacity="0.602"></path><path d="M16.4985 3.9978L9.00146 16.2187L16.4985 12.8682V3.9978Z" fill="white"></path><path d="M16.4985 21.9661V27.9935L23.9999 17.614L16.4985 21.9661Z" fill="white" fill-opacity="0.602"></path><path d="M16.4985 27.9935V21.9661L9.00146 17.614L16.4985 27.9935Z" fill="white"></path><path d="M16.4985 20.5709L23.9955 16.2188L16.4985 12.8683V20.5709Z" fill="white" fill-opacity="0.2"></path><path d="M9.00146 16.2188L16.4985 20.5709V12.8683L9.00146 16.2188Z" fill="white" fill-opacity="0.602"></path></svg>