<svg xmlns="http://www.w3.org/2000/svg" width="160" height="32" viewBox="0 0 160 32" fill="none"><path fill-rule="evenodd" clip-rule="evenodd" d="M38.4221 19.5401C41.6827 18.1159 43.9614 14.8625 43.9614 11.077C43.9614 5.97895 39.8287 1.84619 34.7307 1.84619C30.9451 1.84619 27.6918 4.12495 26.2676 7.38558C32.9441 7.46653 38.3411 12.8636 38.4221 19.5401Z" fill="#182954"></path><path fill-rule="evenodd" clip-rule="evenodd" d="M26.1153 30.1538C31.8931 30.1538 36.5769 25.47 36.5769 19.6923C36.5769 13.9145 31.8931 9.23071 26.1153 9.23071C20.3376 9.23071 15.6538 13.9145 15.6538 19.6923C15.6538 25.47 20.3376 30.1538 26.1153 30.1538ZM26.4106 15.7791C26.3243 15.484 25.9063 15.484 25.82 15.7791L25.0486 18.4167C25.0192 18.5174 24.9404 18.5962 24.8397 18.6256L22.2021 19.397C21.907 19.4833 21.907 19.9013 22.2021 19.9876L24.8397 20.759C24.9404 20.7884 25.0192 20.8672 25.0486 20.9679L25.82 23.6056C25.9063 23.9007 26.3243 23.9007 26.4106 23.6056L27.182 20.9679C27.2115 20.8672 27.2902 20.7884 27.3909 20.759L30.0286 19.9876C30.3237 19.9013 30.3237 19.4833 30.0286 19.397L27.3909 18.6256C27.2902 18.5962 27.2115 18.5174 27.182 18.4167L26.4106 15.7791Z" fill="#182954"></path><path d="M75.652 17.451C74.5401 17.451 73.5488 17.2464 72.6782 16.8374C71.8128 16.4283 71.1258 15.8645 70.617 15.1459C70.1083 14.4274 69.8434 13.604 69.8224 12.6756H73.1266C73.1633 13.2998 73.4256 13.8059 73.9133 14.194C74.4011 14.5821 74.9807 14.7762 75.652 14.7762C76.187 14.7762 76.659 14.6582 77.0681 14.4221C77.4824 14.1809 77.805 13.8478 78.0357 13.423C78.2717 12.993 78.3897 12.4999 78.3897 11.944C78.3897 11.3776 78.2691 10.8793 78.0279 10.4492C77.7918 10.0192 77.464 9.68351 77.0445 9.44225C76.6249 9.20099 76.145 9.07774 75.6048 9.0725C75.1328 9.0725 74.6738 9.16952 74.228 9.36358C73.7875 9.55764 73.4439 9.8225 73.1974 10.1582L70.1686 9.61533L70.9317 1.11883H80.7814V3.90379H73.7403L73.3233 7.93963H73.4177C73.7009 7.54103 74.1284 7.21061 74.7001 6.94837C75.2717 6.68613 75.9116 6.55501 76.6196 6.55501C77.5899 6.55501 78.4553 6.78316 79.2158 7.23945C79.9763 7.69575 80.5768 8.3225 81.0174 9.1197C81.4579 9.91166 81.6756 10.8242 81.6703 11.8575C81.6756 12.9431 81.4238 13.9082 80.9151 14.7526C80.4116 15.5917 79.7062 16.2526 78.7988 16.7351C77.8967 17.2124 76.8478 17.451 75.652 17.451ZM90.3635 17.5847C89.0104 17.5795 87.846 17.2464 86.8705 16.5856C85.9002 15.9248 85.1529 14.9676 84.6284 13.7141C84.1092 12.4606 83.8522 10.9527 83.8574 9.1905C83.8574 7.43351 84.117 5.93613 84.6362 4.69837C85.1607 3.46061 85.9081 2.51917 86.8784 1.87407C87.8539 1.22372 89.0156 0.898545 90.3635 0.898545C91.7114 0.898545 92.8705 1.22372 93.8408 1.87407C94.8163 2.52442 95.5663 3.46848 96.0908 4.70624C96.6153 5.93876 96.8749 7.43351 96.8696 9.1905C96.8696 10.958 96.6074 12.4685 96.0829 13.722C95.5637 14.9755 94.8189 15.9326 93.8487 16.5935C92.8784 17.2543 91.7167 17.5847 90.3635 17.5847ZM90.3635 14.7604C91.2866 14.7604 92.0235 14.2963 92.5742 13.368C93.1249 12.4396 93.3976 11.0471 93.3924 9.1905C93.3924 7.96848 93.2665 6.95099 93.0147 6.13806C92.7682 5.32512 92.4168 4.7141 91.9605 4.30501C91.5095 3.89592 90.9772 3.69138 90.3635 3.69138C89.4457 3.69138 88.7114 4.15029 88.1607 5.06813C87.61 5.98596 87.3321 7.36008 87.3268 9.1905C87.3268 10.4283 87.4501 11.4615 87.6966 12.2902C87.9483 13.1136 88.3023 13.7325 88.7586 14.1468C89.2149 14.5559 89.7499 14.7604 90.3635 14.7604ZM105.616 17.5847C104.263 17.5795 103.098 17.2464 102.123 16.5856C101.153 15.9248 100.405 14.9676 99.8808 13.7141C99.3616 12.4606 99.1046 10.9527 99.1098 9.1905C99.1098 7.43351 99.3694 5.93613 99.8887 4.69837C100.413 3.46061 101.161 2.51917 102.131 1.87407C103.106 1.22372 104.268 0.898545 105.616 0.898545C106.964 0.898545 108.123 1.22372 109.093 1.87407C110.069 2.52442 110.819 3.46848 111.343 4.70624C111.868 5.93876 112.127 7.43351 112.122 9.1905C112.122 10.958 111.86 12.4685 111.335 13.722C110.816 14.9755 110.071 15.9326 109.101 16.5935C108.131 17.2543 106.969 17.5847 105.616 17.5847ZM105.616 14.7604C106.539 14.7604 107.276 14.2963 107.827 13.368C108.377 12.4396 108.65 11.0471 108.645 9.1905C108.645 7.96848 108.519 6.95099 108.267 6.13806C108.021 5.32512 107.669 4.7141 107.213 4.30501C106.762 3.89592 106.23 3.69138 105.616 3.69138C104.698 3.69138 103.964 4.15029 103.413 5.06813C102.862 5.98596 102.584 7.36008 102.579 9.1905C102.579 10.4283 102.702 11.4615 102.949 12.2902C103.201 13.1136 103.555 13.7325 104.011 14.1468C104.467 14.5559 105.002 14.7604 105.616 14.7604ZM119.366 14.7762V3.63631H122.182V14.7762H119.366ZM115.204 10.6145V7.79802H126.344V10.6145H115.204Z" fill="#182954"></path><path d="M58.389 26.4638H57.2448C57.2122 26.2762 57.152 26.1099 57.0643 25.9651C56.9766 25.8183 56.8675 25.6939 56.7369 25.5919C56.6064 25.4899 56.4575 25.4134 56.2903 25.3624C56.1251 25.3094 55.9466 25.2829 55.7549 25.2829C55.4142 25.2829 55.1124 25.3685 54.8493 25.5399C54.5862 25.7092 54.3802 25.958 54.2313 26.2864C54.0824 26.6127 54.0079 27.0115 54.0079 27.4826C54.0079 27.9619 54.0824 28.3658 54.2313 28.6942C54.3822 29.0205 54.5882 29.2673 54.8493 29.4345C55.1124 29.5997 55.4132 29.6823 55.7518 29.6823C55.9394 29.6823 56.1149 29.6579 56.278 29.6089C56.4432 29.5579 56.5911 29.4835 56.7216 29.3856C56.8542 29.2877 56.9654 29.1673 57.0551 29.0246C57.1469 28.8818 57.2101 28.7186 57.2448 28.5351L58.389 28.5412C58.3462 28.839 58.2534 29.1184 58.1106 29.3795C57.9699 29.6405 57.7853 29.871 57.5569 30.0709C57.3284 30.2687 57.0612 30.4238 56.7553 30.5359C56.4494 30.6461 56.1098 30.7011 55.7365 30.7011C55.1858 30.7011 54.6943 30.5737 54.2619 30.3187C53.8295 30.0638 53.4888 29.6956 53.24 29.2143C52.9912 28.7329 52.8667 28.1557 52.8667 27.4826C52.8667 26.8075 52.9922 26.2303 53.2431 25.751C53.4939 25.2696 53.8356 24.9015 54.268 24.6465C54.7004 24.3916 55.1899 24.2641 55.7365 24.2641C56.0853 24.2641 56.4096 24.313 56.7094 24.4109C57.0092 24.5088 57.2764 24.6526 57.511 24.8423C57.7455 25.03 57.9383 25.2604 58.0892 25.5337C58.2422 25.805 58.3421 26.115 58.389 26.4638ZM61.1516 30.6155V24.3497H63.5012C63.9826 24.3497 64.3864 24.4334 64.7127 24.6006C65.0411 24.7679 65.2889 25.0024 65.4562 25.3043C65.6255 25.6041 65.7101 25.9539 65.7101 26.3537C65.7101 26.7555 65.6245 27.1043 65.4531 27.4C65.2838 27.6937 65.034 27.9211 64.7036 28.0823C64.3731 28.2414 63.9673 28.3209 63.4859 28.3209H61.8124V27.3786H63.3329C63.6144 27.3786 63.8449 27.3398 64.0244 27.2623C64.2039 27.1828 64.3364 27.0675 64.4221 26.9166C64.5098 26.7636 64.5537 26.576 64.5537 26.3537C64.5537 26.1314 64.5098 25.9417 64.4221 25.7846C64.3344 25.6255 64.2008 25.5052 64.0213 25.4236C63.8418 25.34 63.6103 25.2982 63.3268 25.2982H62.2866V30.6155H61.1516ZM64.3884 27.7763L65.9396 30.6155H64.673L63.1494 27.7763H64.3884ZM67.8057 24.3497H69.0876L70.6204 27.1216H70.6816L72.2143 24.3497H73.4962L71.217 28.2781V30.6155H70.085V28.2781L67.8057 24.3497ZM76.0232 30.6155V24.3497H78.3728C78.8542 24.3497 79.258 24.4395 79.5844 24.619C79.9128 24.7985 80.1606 25.0453 80.3278 25.3594C80.4971 25.6714 80.5818 26.0263 80.5818 26.424C80.5818 26.8259 80.4971 27.1828 80.3278 27.4949C80.1585 27.8069 79.9087 28.0527 79.5783 28.2322C79.2478 28.4096 78.8409 28.4983 78.3575 28.4983H76.8003V27.5652H78.2046C78.486 27.5652 78.7165 27.5163 78.896 27.4184C79.0755 27.3205 79.2081 27.1858 79.2937 27.0145C79.3814 26.8432 79.4253 26.6464 79.4253 26.424C79.4253 26.2017 79.3814 26.0059 79.2937 25.8366C79.2081 25.6673 79.0745 25.5358 78.8929 25.442C78.7135 25.3461 78.482 25.2982 78.1985 25.2982H77.1582V30.6155H76.0232ZM83.0154 25.3012V24.3497H88.0145V25.3012H86.0779V30.6155H84.952V25.3012H83.0154ZM96.0224 27.4826C96.0224 28.1577 95.896 28.736 95.6431 29.2173C95.3922 29.6966 95.0495 30.0638 94.6151 30.3187C94.1827 30.5737 93.6922 30.7011 93.1435 30.7011C92.5948 30.7011 92.1033 30.5737 91.6689 30.3187C91.2365 30.0617 90.8938 29.6936 90.6409 29.2143C90.39 28.7329 90.2646 28.1557 90.2646 27.4826C90.2646 26.8075 90.39 26.2303 90.6409 25.751C90.8938 25.2696 91.2365 24.9015 91.6689 24.6465C92.1033 24.3916 92.5948 24.2641 93.1435 24.2641C93.6922 24.2641 94.1827 24.3916 94.6151 24.6465C95.0495 24.9015 95.3922 25.2696 95.6431 25.751C95.896 26.2303 96.0224 26.8075 96.0224 27.4826ZM94.8813 27.4826C94.8813 27.0074 94.8068 26.6066 94.6579 26.2803C94.5111 25.9519 94.3071 25.7041 94.046 25.5368C93.785 25.3675 93.4841 25.2829 93.1435 25.2829C92.8029 25.2829 92.502 25.3675 92.241 25.5368C91.9799 25.7041 91.7749 25.9519 91.626 26.2803C91.4792 26.6066 91.4057 27.0074 91.4057 27.4826C91.4057 27.9578 91.4792 28.3597 91.626 28.688C91.7749 29.0144 91.9799 29.2622 92.241 29.4315C92.502 29.5987 92.8029 29.6823 93.1435 29.6823C93.4841 29.6823 93.785 29.5987 94.046 29.4315C94.3071 29.2622 94.5111 29.0144 94.6579 28.688C94.8068 28.3597 94.8813 27.9578 94.8813 27.4826ZM103.483 30.6155H102.272L104.478 24.3497H105.879L108.088 30.6155H106.876L105.203 25.6347H105.154L103.483 30.6155ZM103.523 28.1587H106.827V29.0705H103.523V28.1587ZM113.94 26.0722C113.912 25.805 113.791 25.597 113.579 25.4481C113.369 25.2992 113.096 25.2247 112.759 25.2247C112.523 25.2247 112.32 25.2604 112.151 25.3318C111.981 25.4032 111.852 25.5001 111.762 25.6225C111.672 25.7449 111.626 25.8846 111.624 26.0416C111.624 26.1722 111.654 26.2854 111.713 26.3812C111.774 26.4771 111.857 26.5587 111.961 26.626C112.065 26.6912 112.18 26.7463 112.307 26.7912C112.433 26.8361 112.561 26.8738 112.689 26.9044L113.276 27.0512C113.513 27.1063 113.74 27.1807 113.959 27.2746C114.179 27.3684 114.376 27.4867 114.549 27.6295C114.725 27.7722 114.863 27.9446 114.965 28.1465C115.067 28.3484 115.118 28.585 115.118 28.8563C115.118 29.2234 115.024 29.5467 114.837 29.8261C114.649 30.1035 114.378 30.3208 114.023 30.4778C113.67 30.6328 113.243 30.7103 112.741 30.7103C112.254 30.7103 111.83 30.6349 111.471 30.4839C111.114 30.333 110.835 30.1127 110.633 29.8231C110.433 29.5335 110.325 29.1806 110.309 28.7645H111.425C111.442 28.9828 111.509 29.1643 111.627 29.3091C111.746 29.4539 111.9 29.562 112.089 29.6334C112.281 29.7048 112.495 29.7405 112.732 29.7405C112.979 29.7405 113.195 29.7038 113.38 29.6303C113.568 29.5549 113.715 29.4509 113.821 29.3183C113.927 29.1837 113.981 29.0266 113.983 28.8471C113.981 28.684 113.933 28.5493 113.839 28.4433C113.746 28.3352 113.614 28.2454 113.445 28.174C113.277 28.1006 113.082 28.0354 112.857 27.9782L112.144 27.7947C111.628 27.6621 111.221 27.4612 110.921 27.192C110.623 26.9207 110.474 26.5607 110.474 26.112C110.474 25.7428 110.574 25.4195 110.774 25.1421C110.976 24.8648 111.25 24.6496 111.597 24.4966C111.944 24.3416 112.336 24.2641 112.775 24.2641C113.219 24.2641 113.609 24.3416 113.943 24.4966C114.28 24.6496 114.544 24.8627 114.736 25.136C114.928 25.4073 115.026 25.7194 115.033 26.0722H113.94ZM121.258 26.0722C121.23 25.805 121.109 25.597 120.897 25.4481C120.687 25.2992 120.414 25.2247 120.077 25.2247C119.841 25.2247 119.638 25.2604 119.469 25.3318C119.299 25.4032 119.17 25.5001 119.08 25.6225C118.99 25.7449 118.944 25.8846 118.942 26.0416C118.942 26.1722 118.972 26.2854 119.031 26.3812C119.092 26.4771 119.175 26.5587 119.279 26.626C119.383 26.6912 119.498 26.7463 119.625 26.7912C119.751 26.8361 119.879 26.8738 120.007 26.9044L120.594 27.0512C120.831 27.1063 121.058 27.1807 121.277 27.2746C121.497 27.3684 121.694 27.4867 121.867 27.6295C122.043 27.7722 122.181 27.9446 122.283 28.1465C122.385 28.3484 122.436 28.585 122.436 28.8563C122.436 29.2234 122.342 29.5467 122.155 29.8261C121.967 30.1035 121.696 30.3208 121.341 30.4778C120.988 30.6328 120.561 30.7103 120.059 30.7103C119.572 30.7103 119.148 30.6349 118.789 30.4839C118.432 30.333 118.153 30.1127 117.951 29.8231C117.751 29.5335 117.643 29.1806 117.627 28.7645H118.744C118.76 28.9828 118.827 29.1643 118.945 29.3091C119.064 29.4539 119.218 29.562 119.407 29.6334C119.599 29.7048 119.813 29.7405 120.05 29.7405C120.297 29.7405 120.513 29.7038 120.699 29.6303C120.886 29.5549 121.033 29.4509 121.139 29.3183C121.245 29.1837 121.299 29.0266 121.301 28.8471C121.299 28.684 121.251 28.5493 121.157 28.4433C121.064 28.3352 120.932 28.2454 120.763 28.174C120.595 28.1006 120.4 28.0354 120.175 27.9782L119.462 27.7947C118.946 27.6621 118.539 27.4612 118.239 27.192C117.941 26.9207 117.792 26.5607 117.792 26.112C117.792 25.7428 117.892 25.4195 118.092 25.1421C118.294 24.8648 118.568 24.6496 118.915 24.4966C119.262 24.3416 119.654 24.2641 120.093 24.2641C120.537 24.2641 120.927 24.3416 121.261 24.4966C121.598 24.6496 121.862 24.8627 122.054 25.136C122.246 25.4073 122.344 25.7194 122.351 26.0722H121.258ZM125.171 30.6155V24.3497H129.246V25.3012H126.306V27.0023H129.035V27.9538H126.306V29.664H129.271V30.6155H125.171ZM131.852 25.3012V24.3497H136.851V25.3012H134.915V30.6155H133.789V25.3012H131.852ZM142.943 26.0722C142.915 25.805 142.794 25.597 142.582 25.4481C142.372 25.2992 142.099 25.2247 141.762 25.2247C141.526 25.2247 141.323 25.2604 141.153 25.3318C140.984 25.4032 140.855 25.5001 140.765 25.6225C140.675 25.7449 140.629 25.8846 140.627 26.0416C140.627 26.1722 140.657 26.2854 140.716 26.3812C140.777 26.4771 140.86 26.5587 140.964 26.626C141.068 26.6912 141.183 26.7463 141.309 26.7912C141.436 26.8361 141.563 26.8738 141.692 26.9044L142.279 27.0512C142.516 27.1063 142.743 27.1807 142.962 27.2746C143.182 27.3684 143.379 27.4867 143.552 27.6295C143.727 27.7722 143.866 27.9446 143.968 28.1465C144.07 28.3484 144.121 28.585 144.121 28.8563C144.121 29.2234 144.027 29.5467 143.84 29.8261C143.652 30.1035 143.381 30.3208 143.026 30.4778C142.673 30.6328 142.246 30.7103 141.744 30.7103C141.256 30.7103 140.833 30.6349 140.474 30.4839C140.117 30.333 139.838 30.1127 139.636 29.8231C139.436 29.5335 139.328 29.1806 139.312 28.7645H140.428C140.445 28.9828 140.512 29.1643 140.63 29.3091C140.749 29.4539 140.903 29.562 141.092 29.6334C141.284 29.7048 141.498 29.7405 141.735 29.7405C141.982 29.7405 142.198 29.7038 142.383 29.6303C142.571 29.5549 142.718 29.4509 142.824 29.3183C142.93 29.1837 142.984 29.0266 142.986 28.8471C142.984 28.684 142.936 28.5493 142.842 28.4433C142.748 28.3352 142.617 28.2454 142.448 28.174C142.28 28.1006 142.085 28.0354 141.86 27.9782L141.147 27.7947C140.631 27.6621 140.223 27.4612 139.924 27.192C139.626 26.9207 139.477 26.5607 139.477 26.112C139.477 25.7428 139.577 25.4195 139.777 25.1421C139.979 24.8648 140.253 24.6496 140.6 24.4966C140.946 24.3416 141.339 24.2641 141.778 24.2641C142.222 24.2641 142.612 24.3416 142.946 24.4966C143.283 24.6496 143.547 24.8627 143.739 25.136C143.93 25.4073 144.029 25.7194 144.035 26.0722H142.943Z" fill="#182954"></path></svg>