<svg xmlns="http://www.w3.org/2000/svg" width="160" height="32" viewBox="0 0 160 32" fill="none"><path fill-rule="evenodd" clip-rule="evenodd" d="M40.461 1.68a1.7 1.7 0 0 0-2.306 0l-1.495 1.38a1.7 1.7 0 0 1-1.529.41l-1.983-.448a1.7 1.7 0 0 0-1.998 1.154l-.606 1.942a1.7 1.7 0 0 1-1.119 1.118l-1.942.605a1.7 1.7 0 0 0-1.153 2l.447 1.983a1.7 1.7 0 0 1-.41 1.529l-1.38 1.494a1.7 1.7 0 0 0 0 2.308l1.38 1.494c.38.411.533.983.41 1.528l-.447 1.985a1.7 1.7 0 0 0 1.153 2l1.942.604a1.7 1.7 0 0 1 1.12 1.118l.604 1.942a1.7 1.7 0 0 0 1.997 1.154l1.984-.447a1.7 1.7 0 0 1 1.53.41l1.494 1.38a1.7 1.7 0 0 0 2.307 0l1.496-1.38a1.7 1.7 0 0 1 1.528-.41l1.984.448a1.7 1.7 0 0 0 1.999-1.154l.604-1.942a1.7 1.7 0 0 1 1.12-1.118l1.942-.605a1.7 1.7 0 0 0 1.154-2l-.448-1.984a1.7 1.7 0 0 1 .41-1.528l1.38-1.494a1.7 1.7 0 0 0 0-2.308l-1.38-1.494a1.7 1.7 0 0 1-.41-1.529l.448-1.984a1.7 1.7 0 0 0-1.154-2l-1.942-.604a1.7 1.7 0 0 1-1.119-1.118l-.603-1.942a1.7 1.7 0 0 0-1.999-1.154l-1.984.447a1.7 1.7 0 0 1-1.528-.41l-1.495-1.38zm5.674 10.644a.923.923 0 0 0-1.345-1.264l-7.452 7.937-3.547-3.385a.923.923 0 0 0-1.274 1.335l4.22 4.028a.924.924 0 0 0 1.31-.036l8.088-8.616z" fill="#182954"></path><path d="M70.046 1.442v15.574h-3.293V4.568h-.091l-3.567 2.236V3.882l3.856-2.44h3.096zm4.788 15.771a1.776 1.776 0 0 1-1.293-.532 1.776 1.776 0 0 1-.53-1.291c0-.498.177-.923.531-1.279a1.776 1.776 0 0 1 1.295-.53c.486 0 .912.176 1.277.531.365.356.548.782.548 1.279 0 .333-.086.64-.259.919a1.96 1.96 0 0 1-.66.66 1.744 1.744 0 0 1-.905.245l-.001-.002zm10.017.016c-1.074-.001-2.032-.199-2.873-.594-.836-.395-1.5-.94-1.992-1.635-.492-.693-.748-1.489-.769-2.386h3.195c.036.603.29 1.092.76 1.467.473.376 1.032.564 1.681.564.519 0 .975-.113 1.37-.342a2.45 2.45 0 0 0 .936-.966c.228-.415.341-.892.341-1.429 0-.548-.116-1.029-.35-1.445a2.47 2.47 0 0 0-.95-.973 2.793 2.793 0 0 0-1.392-.359c-.455.001-.9.095-1.33.282-.425.188-.758.444-.996.768l-2.929-.524.74-8.213h9.52v2.692h-6.807l-.404 3.9h.09c.274-.384.687-.704 1.24-.957.552-.254 1.17-.38 1.855-.38.938 0 1.774.22 2.51.661a4.766 4.766 0 0 1 1.74 1.817c.426.765.637 1.648.631 2.646.006 1.05-.238 1.982-.73 2.798-.486.813-1.168 1.451-2.045 1.918-.87.46-1.885.691-3.04.691v-.001zm26.902-10.335h-3.33a3.236 3.236 0 0 0-.373-1.148 2.915 2.915 0 0 0-.723-.867 3.176 3.176 0 0 0-1.02-.547c-.4-.13-.818-.195-1.24-.19-.805 0-1.506.2-2.104.6-.6.395-1.063.973-1.392 1.733-.33.756-.494 1.674-.494 2.754 0 1.11.165 2.043.495 2.798.336.756.802 1.326 1.4 1.711s1.29.577 2.076.577c.44 0 .85-.058 1.225-.175a3.216 3.216 0 0 0 1.012-.51c.293-.227.54-.508.73-.827a3.25 3.25 0 0 0 .41-1.11l3.332.015a6.047 6.047 0 0 1-.646 2.068 6.22 6.22 0 0 1-1.377 1.772 6.456 6.456 0 0 1-2.052 1.232c-.79.299-1.686.449-2.684.449-1.39 0-2.63-.313-3.726-.942-1.09-.629-1.951-1.539-2.585-2.73-.629-1.192-.943-2.633-.943-4.327 0-1.698.319-3.143.957-4.334.64-1.191 1.505-2.099 2.6-2.722 1.095-.629 2.328-.943 3.697-.943.902 0 1.74.127 2.51.381.75.24 1.448.617 2.06 1.111a5.712 5.712 0 0 1 1.46 1.773c.38.7.623 1.5.73 2.403l-.002-.001zm2.3 10.12V5.337h3.142v2.038h.12c.214-.726.572-1.273 1.073-1.643a2.822 2.822 0 0 1 1.734-.562 4.722 4.722 0 0 1 1.02.115v2.874a4.21 4.21 0 0 0-.63-.122 5.648 5.648 0 0 0-.74-.053c-.476 0-.902.104-1.278.312a2.3 2.3 0 0 0-.88.852c-.214.364-.32.785-.32 1.26v6.61h-3.24zm13.03-.844V5.406h2.723v10.766h-2.722zm-4.022-4.02V9.426h10.768v2.723H123.06z" fill="#182954"></path><path d="M62.477 30.615V24.35h2.35c.48 0 .885.083 1.21.25.33.168.577.402.744.704.17.3.255.65.255 1.05 0 .401-.085.75-.257 1.046-.169.294-.419.52-.75.682-.33.16-.735.239-1.217.239H63.14v-.942h1.52c.282 0 .512-.038.692-.116a.823.823 0 0 0 .397-.346c.088-.153.132-.34.132-.563a1.15 1.15 0 0 0-.133-.569.836.836 0 0 0-.4-.36c-.18-.084-.411-.126-.695-.126h-1.04v5.317h-1.135zm3.237-2.839 1.55 2.84h-1.266l-1.523-2.84h1.239zm4.09 2.84V24.35h4.074v.95h-2.94v1.702h2.73v.951h-2.73v1.71h2.965v.952h-4.1zm11.153-4.266a1.62 1.62 0 0 0-.211-.443 1.364 1.364 0 0 0-.318-.34 1.282 1.282 0 0 0-.422-.21 1.76 1.76 0 0 0-.52-.074c-.337 0-.637.084-.9.254-.263.169-.47.418-.621.746-.15.326-.223.724-.223 1.193 0 .473.074.874.223 1.203a1.7 1.7 0 0 0 .62.748c.266.17.574.254.925.254.318 0 .593-.061.826-.183.235-.124.415-.297.542-.522.126-.226.19-.491.19-.795l.256.04h-1.7v-.887h2.541v.752c0 .537-.114 1-.342 1.392a2.342 2.342 0 0 1-.942.906c-.4.21-.858.315-1.376.315-.577 0-1.084-.129-1.52-.388a2.687 2.687 0 0 1-1.02-1.11c-.242-.482-.364-1.053-.364-1.713 0-.507.072-.96.215-1.357.144-.398.346-.735.605-1.012.26-.279.563-.491.912-.636.349-.147.728-.22 1.138-.22.347 0 .67.05.97.153.3.1.566.243.799.428a2.327 2.327 0 0 1 .875 1.505h-1.158zm6.152 4.265h-2.124V24.35h2.166c.622 0 1.157.125 1.603.376.45.249.794.607 1.035 1.074.24.467.36 1.026.36 1.676 0 .653-.12 1.214-.364 1.683-.24.468-.588.828-1.043 1.079-.453.25-.997.375-1.634.375zm-.989-.982h.934c.437 0 .8-.08 1.093-.238.291-.162.51-.401.657-.72.147-.32.22-.72.22-1.199 0-.48-.073-.877-.22-1.193a1.502 1.502 0 0 0-.651-.713c-.286-.159-.64-.238-1.065-.238h-.967v4.301zm7.07 1.05a.656.656 0 0 1-.477-.196.634.634 0 0 1-.196-.477.627.627 0 0 1 .196-.472.656.656 0 0 1 .477-.195c.18 0 .335.065.468.195a.644.644 0 0 1 .107.811.704.704 0 0 1-.245.244c-.1.06-.21.089-.33.089zm11.205-6.333h1.135v4.093c0 .449-.106.843-.318 1.184-.21.34-.506.607-.888.799-.38.19-.827.284-1.337.284s-.958-.095-1.34-.284a2.15 2.15 0 0 1-.887-.8 2.21 2.21 0 0 1-.315-1.183V24.35h1.135v3.998c0 .261.057.494.17.698.118.204.28.364.49.48.21.114.46.171.747.171.288 0 .537-.057.747-.17.212-.117.375-.277.49-.481.114-.204.17-.437.17-.698V24.35zm7.497 1.722a.837.837 0 0 0-.36-.624c-.21-.15-.485-.223-.82-.223-.238 0-.44.035-.61.107a.907.907 0 0 0-.39.29.71.71 0 0 0-.136.42c0 .13.03.243.09.34.06.095.142.176.246.244.104.065.22.12.346.165.127.046.254.083.382.114l.588.147c.236.056.464.13.682.224.22.094.417.212.59.355.176.142.315.314.417.516.102.202.153.439.153.71 0 .367-.094.69-.282.97-.187.277-.46.494-.814.652-.352.155-.78.232-1.28.232-.49 0-.912-.075-1.27-.226a1.885 1.885 0 0 1-.84-.661c-.2-.29-.307-.643-.324-1.059h1.117a.95.95 0 0 0 .202.545c.117.144.27.252.46.323.193.072.407.107.643.107.247 0 .463-.036.65-.11.187-.075.333-.18.44-.312a.748.748 0 0 0 .162-.471.598.598 0 0 0-.144-.404 1.06 1.06 0 0 0-.394-.27 3.804 3.804 0 0 0-.587-.195l-.714-.184c-.516-.132-.924-.333-1.224-.602-.298-.271-.447-.632-.447-1.08 0-.37.1-.693.3-.97.202-.278.477-.493.823-.646a2.86 2.86 0 0 1 1.178-.232c.445 0 .834.077 1.17.232.335.153.6.366.79.64.193.27.292.583.298.936h-1.092zm3.913 4.543V24.35h4.075v.95h-2.94v1.702h2.73v.951h-2.73v1.71h2.964v.952h-4.1zm6.956 0V24.35h2.35c.482 0 .886.083 1.212.25.328.168.576.402.744.704.17.3.253.65.253 1.05 0 .401-.086.75-.258 1.046-.17.294-.42.52-.75.682-.33.16-.735.239-1.217.239h-1.673v-.942h1.52c.282 0 .512-.038.692-.116a.82.82 0 0 0 .397-.346c.09-.153.133-.34.133-.563 0-.222-.044-.412-.132-.569a.833.833 0 0 0-.4-.36c-.18-.084-.41-.126-.694-.126h-1.04v5.317h-1.135zM126 27.776l1.55 2.84h-1.266l-1.523-2.84h1.238zm7.495-1.704a.837.837 0 0 0-.36-.624c-.212-.15-.485-.223-.82-.223-.238 0-.44.035-.61.107a.9.9 0 0 0-.39.29.704.704 0 0 0-.136.42c0 .13.03.243.088.34a.81.81 0 0 0 .248.244c.104.065.22.12.346.165.125.046.253.083.38.114l.59.147c.235.056.463.13.68.224.22.094.418.212.59.355.177.142.315.314.417.516.102.202.153.439.153.71 0 .367-.093.69-.28.97-.19.277-.46.494-.815.652-.353.155-.78.232-1.282.232-.487 0-.91-.075-1.27-.226a1.893 1.893 0 0 1-.838-.661c-.2-.29-.308-.643-.324-1.059h1.118c.016.219.083.4.202.545.118.144.272.252.462.323.19.072.405.107.642.107.247 0 .463-.036.65-.11.186-.075.333-.18.44-.312a.753.753 0 0 0 .16-.471.602.602 0 0 0-.142-.404 1.06 1.06 0 0 0-.395-.27 3.78 3.78 0 0 0-.588-.195l-.713-.184c-.516-.132-.924-.333-1.224-.602-.298-.271-.447-.632-.447-1.08 0-.37.1-.693.3-.97a1.98 1.98 0 0 1 .823-.646c.346-.155.738-.232 1.177-.232.445 0 .834.077 1.17.232.335.153.6.366.79.64.193.27.292.583.298.936h-1.092z" fill="#182954"></path></svg>