<svg xmlns="http://www.w3.org/2000/svg" width="160" height="32" viewBox="0 0 160 32" fill="none"><g clip-path="url(#clip0_106_29361)"><path fill-rule="evenodd" clip-rule="evenodd" d="M40.8256 1.23081H33.5839C32.8076 1.23081 32.0767 1.59703 31.612 2.2189L27.528 7.68437C27.2101 8.10983 27.0326 8.62796 27.0575 9.15849C27.4941 18.4461 35.2729 25.4227 40.8354 28.2318C41.4485 28.5415 42.1665 28.5415 42.7796 28.2318C43.3796 27.9288 44.0054 27.5773 44.645 27.1797C41.9106 25.8984 39.441 24.3383 37.6863 22.8451C37.298 22.5147 37.2511 21.9321 37.5815 21.5439C37.9119 21.1556 38.4945 21.1087 38.8828 21.4391C40.7292 23.0104 43.4638 24.6807 46.4408 25.9631C47.0269 25.5328 47.6152 25.0671 48.197 24.5679C44.9408 23.1039 41.8993 21.089 39.6952 19.1836C39.3095 18.8501 39.2672 18.2672 39.6006 17.8816C39.934 17.4959 40.5169 17.4535 40.9025 17.7869C43.1822 19.7577 46.3708 21.8164 49.6843 23.2008C50.2147 22.6783 50.7328 22.1274 51.2317 21.5494C50.1007 21.0456 49.0112 20.4777 47.994 19.8878C45.32 18.3375 43.0748 16.5954 41.8039 15.3595C41.4385 15.0041 41.4303 14.4196 41.7858 14.0542C42.1412 13.6887 42.7256 13.6806 43.0911 14.036C44.2374 15.1509 46.3566 16.8045 48.92 18.2907C50.033 18.936 51.2166 19.5421 52.4284 20.0569C52.8889 19.4369 53.3242 18.7913 53.7272 18.1213C52.1557 17.3968 50.6064 16.4427 49.1826 15.4348C46.7916 13.7424 44.6546 11.8256 43.2127 10.3696C41.6099 11.7049 39.8395 12.3142 38.2617 12.4094C36.5217 12.5144 34.816 11.9893 33.9929 10.8686L33.574 10.2983L34.016 9.74571L40.8256 1.23081ZM54.6145 16.497C55.7115 14.2674 56.433 11.8069 56.5575 9.15837C56.5824 8.62784 56.4049 8.10971 56.087 7.68426L52.003 2.2188C51.5383 1.59692 50.8074 1.2307 50.0311 1.23071L43.1895 1.2308L36.0193 10.1966C36.4929 10.4414 37.2174 10.6229 38.1505 10.5666C39.5135 10.4844 41.1489 9.8879 42.5989 8.43072L43.2735 7.75278L43.9271 8.45097C45.2557 9.87014 47.5929 12.0477 50.2492 13.928C51.6813 14.9417 53.1686 15.8418 54.6145 16.497Z" fill="#182954"></path></g><path d="M72.8452 17.2307V1.11883H83.513V3.92739H76.2516V7.76655H82.805V10.5751H76.2516V17.2307H72.8452ZM86.9431 17.4353C86.4238 17.4353 85.978 17.2517 85.6057 16.8846C85.2385 16.5122 85.055 16.0664 85.055 15.5471C85.055 15.0332 85.2385 14.5926 85.6057 14.2255C85.978 13.8583 86.4238 13.6748 86.9431 13.6748C87.4466 13.6748 87.8871 13.8583 88.2648 14.2255C88.6424 14.5926 88.8312 15.0332 88.8312 15.5471C88.8312 15.8933 88.742 16.2106 88.5637 16.4991C88.3906 16.7823 88.1625 17.0104 87.8793 17.1835C87.596 17.3513 87.284 17.4353 86.9431 17.4353ZM95.0521 1.11883V17.2307H91.6457V1.11883H95.0521ZM99.7508 17.4353C99.2315 17.4353 98.7857 17.2517 98.4134 16.8846C98.0462 16.5122 97.8627 16.0664 97.8627 15.5471C97.8627 15.0332 98.0462 14.5926 98.4134 14.2255C98.7857 13.8583 99.2315 13.6748 99.7508 13.6748C100.254 13.6748 100.695 13.8583 101.072 14.2255C101.45 14.5926 101.639 15.0332 101.639 15.5471C101.639 15.8933 101.55 16.2106 101.371 16.4991C101.198 16.7823 100.97 17.0104 100.687 17.1835C100.404 17.3513 100.092 17.4353 99.7508 17.4353ZM114.405 1.11883H117.812V11.5821C117.812 12.7569 117.531 13.7849 116.97 14.666C116.414 15.5471 115.635 16.2342 114.633 16.7272C113.632 17.215 112.465 17.4589 111.133 17.4589C109.795 17.4589 108.626 17.215 107.624 16.7272C106.622 16.2342 105.843 15.5471 105.287 14.666C104.731 13.7849 104.453 12.7569 104.453 11.5821V1.11883H107.86V11.291C107.86 11.9047 107.994 12.4501 108.261 12.9274C108.534 13.4047 108.917 13.7797 109.41 14.0524C109.903 14.3251 110.477 14.4615 111.133 14.4615C111.793 14.4615 112.368 14.3251 112.855 14.0524C113.348 13.7797 113.729 13.4047 113.996 12.9274C114.269 12.4501 114.405 11.9047 114.405 11.291V1.11883ZM121.753 17.4353C121.234 17.4353 120.788 17.2517 120.416 16.8846C120.049 16.5122 119.865 16.0664 119.865 15.5471C119.865 15.0332 120.049 14.5926 120.416 14.2255C120.788 13.8583 121.234 13.6748 121.753 13.6748C122.257 13.6748 122.697 13.8583 123.075 14.2255C123.452 14.5926 123.641 15.0332 123.641 15.5471C123.641 15.8933 123.552 16.2106 123.374 16.4991C123.201 16.7823 122.973 17.0104 122.689 17.1835C122.406 17.3513 122.094 17.4353 121.753 17.4353Z" fill="#182954"></path><path d="M64.6594 30.6155V24.3497H67.009C67.4904 24.3497 67.8942 24.4334 68.2205 24.6006C68.5489 24.7679 68.7967 25.0024 68.964 25.3043C69.1333 25.6041 69.2179 25.9539 69.2179 26.3537C69.2179 26.7555 69.1323 27.1043 68.9609 27.4C68.7916 27.6937 68.5418 27.9211 68.2114 28.0823C67.8809 28.2414 67.4751 28.3209 66.9937 28.3209H65.3202V27.3786H66.8407C67.1222 27.3786 67.3527 27.3398 67.5322 27.2623C67.7117 27.1828 67.8442 27.0675 67.9299 26.9166C68.0176 26.7636 68.0615 26.576 68.0615 26.3537C68.0615 26.1314 68.0176 25.9417 67.9299 25.7846C67.8422 25.6255 67.7086 25.5052 67.5291 25.4236C67.3496 25.34 67.1181 25.2982 66.8346 25.2982H65.7944V30.6155H64.6594ZM67.8962 27.7763L69.4474 30.6155H68.1808L66.6572 27.7763H67.8962ZM71.9858 30.6155V24.3497H76.061V25.3012H73.1208V27.0023H75.8499V27.9538H73.1208V29.664H76.0854V30.6155H71.9858ZM83.1396 26.3506C83.0886 26.1854 83.0182 26.0375 82.9285 25.907C82.8408 25.7744 82.7347 25.6612 82.6103 25.5674C82.4879 25.4736 82.3472 25.4032 82.1881 25.3563C82.029 25.3074 81.8556 25.2829 81.668 25.2829C81.3315 25.2829 81.0316 25.3675 80.7685 25.5368C80.5054 25.7061 80.2984 25.9549 80.1475 26.2833C79.9986 26.6097 79.9241 27.0074 79.9241 27.4765C79.9241 27.9497 79.9986 28.3505 80.1475 28.6789C80.2964 29.0072 80.5034 29.2571 80.7685 29.4284C81.0337 29.5977 81.3417 29.6823 81.6925 29.6823C82.0107 29.6823 82.286 29.6212 82.5185 29.4988C82.7531 29.3764 82.9336 29.203 83.06 28.9787C83.1865 28.7523 83.2497 28.4871 83.2497 28.1832L83.5067 28.223H81.8057V27.3358H84.3481V28.0884C84.3481 28.6248 84.2339 29.0888 84.0054 29.4804C83.777 29.872 83.4629 30.1739 83.0631 30.386C82.6633 30.5961 82.2044 30.7011 81.6864 30.7011C81.1091 30.7011 80.6023 30.5716 80.1658 30.3126C79.7314 30.0515 79.3918 29.6813 79.147 29.202C78.9043 28.7207 78.783 28.1496 78.783 27.4887C78.783 26.9829 78.8543 26.5311 78.9971 26.1334C79.1419 25.7357 79.3438 25.3981 79.6029 25.1207C79.8619 24.8413 80.1658 24.6292 80.5146 24.4844C80.8634 24.3375 81.2427 24.2641 81.6527 24.2641C81.9994 24.2641 82.3227 24.3151 82.6225 24.4171C82.9224 24.517 83.1885 24.6598 83.4211 24.8454C83.6556 25.031 83.8484 25.2513 83.9993 25.5062C84.1502 25.7612 84.2492 26.0426 84.2961 26.3506H83.1396ZM88.3038 24.3497V30.6155H87.1687V24.3497H88.3038ZM94.6611 26.0722C94.6326 25.805 94.5122 25.597 94.3001 25.4481C94.09 25.2992 93.8167 25.2247 93.4802 25.2247C93.2436 25.2247 93.0407 25.2604 92.8714 25.3318C92.7021 25.4032 92.5726 25.5001 92.4828 25.6225C92.3931 25.7449 92.3472 25.8846 92.3451 26.0416C92.3451 26.1722 92.3747 26.2854 92.4339 26.3812C92.4951 26.4771 92.5777 26.5587 92.6817 26.626C92.7857 26.6912 92.9009 26.7463 93.0274 26.7912C93.1539 26.8361 93.2813 26.8738 93.4098 26.9044L93.9972 27.0512C94.2338 27.1063 94.4613 27.1807 94.6795 27.2746C94.8998 27.3684 95.0966 27.4867 95.27 27.6295C95.4454 27.7722 95.5841 27.9446 95.686 28.1465C95.788 28.3484 95.839 28.585 95.839 28.8563C95.839 29.2234 95.7452 29.5467 95.5576 29.8261C95.3699 30.1035 95.0986 30.3208 94.7437 30.4778C94.3909 30.6328 93.9636 30.7103 93.4618 30.7103C92.9744 30.7103 92.5511 30.6349 92.1922 30.4839C91.8352 30.333 91.5558 30.1127 91.3539 29.8231C91.154 29.5335 91.0459 29.1806 91.0296 28.7645H92.1463C92.1626 28.9828 92.2299 29.1643 92.3482 29.3091C92.4665 29.4539 92.6205 29.562 92.8102 29.6334C93.0019 29.7048 93.2161 29.7405 93.4527 29.7405C93.6995 29.7405 93.9157 29.7038 94.1013 29.6303C94.2889 29.5549 94.4358 29.4509 94.5418 29.3183C94.6479 29.1837 94.7019 29.0266 94.704 28.8471C94.7019 28.684 94.654 28.5493 94.5602 28.4433C94.4664 28.3352 94.3348 28.2454 94.1655 28.174C93.9983 28.1006 93.8025 28.0354 93.5781 27.9782L92.8652 27.7947C92.3492 27.6621 91.9413 27.4612 91.6415 27.192C91.3437 26.9207 91.1948 26.5607 91.1948 26.112C91.1948 25.7428 91.2947 25.4195 91.4946 25.1421C91.6965 24.8648 91.9709 24.6496 92.3176 24.4966C92.6643 24.3416 93.057 24.2641 93.4955 24.2641C93.9401 24.2641 94.3297 24.3416 94.6642 24.4966C95.0007 24.6496 95.2649 24.8627 95.4566 25.136C95.6483 25.4073 95.7472 25.7194 95.7534 26.0722H94.6611ZM98.2987 25.3012V24.3497H103.298V25.3012H101.361V30.6155H100.235V25.3012H98.2987ZM105.985 30.6155V24.3497H110.06V25.3012H107.12V27.0023H109.849V27.9538H107.12V29.664H110.084V30.6155H105.985ZM112.941 30.6155V24.3497H115.29C115.772 24.3497 116.176 24.4334 116.502 24.6006C116.83 24.7679 117.078 25.0024 117.245 25.3043C117.415 25.6041 117.499 25.9539 117.499 26.3537C117.499 26.7555 117.414 27.1043 117.242 27.4C117.073 27.6937 116.823 27.9211 116.493 28.0823C116.162 28.2414 115.757 28.3209 115.275 28.3209H113.602V27.3786H115.122C115.404 27.3786 115.634 27.3398 115.814 27.2623C115.993 27.1828 116.126 27.0675 116.211 26.9166C116.299 26.7636 116.343 26.576 116.343 26.3537C116.343 26.1314 116.299 25.9417 116.211 25.7846C116.124 25.6255 115.99 25.5052 115.811 25.4236C115.631 25.34 115.4 25.2982 115.116 25.2982H114.076V30.6155H112.941ZM116.178 27.7763L117.729 30.6155H116.462L114.939 27.7763H116.178ZM120.267 30.6155V24.3497H124.342V25.3012H121.402V27.0023H124.131V27.9538H121.402V29.664H124.367V30.6155H120.267ZM129.347 30.6155H127.224V24.3497H129.39C130.012 24.3497 130.546 24.4752 130.993 24.7261C131.441 24.9749 131.786 25.3328 132.027 25.7999C132.268 26.267 132.388 26.8259 132.388 27.4765C132.388 28.1292 132.266 28.6901 132.024 29.1592C131.783 29.6283 131.435 29.9883 130.981 30.2392C130.528 30.49 129.983 30.6155 129.347 30.6155ZM128.359 29.6334H129.292C129.728 29.6334 130.092 29.5539 130.384 29.3948C130.676 29.2336 130.895 28.994 131.042 28.6758C131.189 28.3556 131.262 27.9558 131.262 27.4765C131.262 26.9972 131.189 26.5995 131.042 26.2833C130.895 25.9651 130.678 25.7275 130.39 25.5705C130.104 25.4114 129.75 25.3318 129.325 25.3318H128.359V29.6334Z" fill="#182954"></path><defs><clipPath id="clip0_106_29361"><rect width="29.5046" height="29.5385" fill="white" transform="translate(27.0552 1.23071)"></rect></clipPath></defs></svg>