<svg xmlns="http://www.w3.org/2000/svg" width="160" height="32" viewBox="0 0 160 32" fill="none"><path d="M34.8074 1.23071C30.2064 1.23071 26.4766 4.96058 26.4766 9.56154C26.4766 14.1625 26.4766 15.6892 26.4766 15.6892H30.6076C30.6076 15.6892 30.6076 11.881 30.6076 9.56154C30.6076 7.24206 32.4879 5.3617 34.8074 5.3617C37.1269 5.3617 39.0072 7.24206 39.0072 9.56154C39.0072 11.881 39.0072 15.6892 39.0072 15.6892H43.1382C43.1382 15.6892 43.1382 14.1625 43.1382 9.56154C43.1382 4.96058 39.4083 1.23071 34.8074 1.23071Z" fill="#182954"></path><path d="M26.038 12.042C23.9988 12.042 22.3457 13.6951 22.3457 15.7343V27.0768C22.3457 29.116 23.9988 30.7691 26.038 30.7691H43.577C45.6162 30.7691 47.2693 29.116 47.2693 27.0768V15.7343C47.2693 13.6951 45.6162 12.042 43.577 12.042H26.038ZM35.8403 21.6441V25.0202H33.7748V21.6441C33.158 21.2864 32.742 20.6193 32.742 19.8564C32.742 18.7175 33.6686 17.791 34.8075 17.791C35.9464 17.791 36.873 18.7175 36.873 19.8564C36.873 20.6193 36.457 21.2864 35.8403 21.6441Z" fill="#182954"></path><path d="M61.7682 1.11883V17.2307H58.3618V1.11883H61.7682ZM73.3113 5.75257C73.2484 5.11795 72.9783 4.62494 72.501 4.27355C72.0237 3.92215 71.376 3.74645 70.5578 3.74645C70.0019 3.74645 69.5324 3.82512 69.1496 3.98246C68.7667 4.13456 68.473 4.34697 68.2685 4.6197C68.0692 4.89243 67.9695 5.20187 67.9695 5.54802C67.959 5.83648 68.0193 6.08823 68.1505 6.30327C68.2868 6.5183 68.473 6.70449 68.709 6.86183C68.945 7.01393 69.2178 7.14767 69.5272 7.26306C69.8366 7.3732 70.1671 7.4676 70.5185 7.54627L71.966 7.89243C72.6688 8.04977 73.3139 8.25956 73.9013 8.5218C74.4887 8.78403 74.9975 9.10659 75.4276 9.48945C75.8576 9.87232 76.1907 10.3234 76.4267 10.8426C76.6679 11.3618 76.7912 11.9571 76.7964 12.6284C76.7912 13.6145 76.5394 14.4693 76.0412 15.1931C75.5482 15.9117 74.8349 16.4702 73.9013 16.8688C72.973 17.2622 71.8533 17.4589 70.5421 17.4589C69.2414 17.4589 68.1085 17.2596 67.1435 16.861C66.1837 16.4624 65.4337 15.8723 64.8935 15.0909C64.3585 14.3041 64.0779 13.3312 64.0517 12.1721H67.348C67.3847 12.7124 67.5394 13.1634 67.8122 13.5253C68.0901 13.8819 68.4599 14.152 68.9214 14.3356C69.3882 14.5139 69.9153 14.6031 70.5027 14.6031C71.0797 14.6031 71.5805 14.5192 72.0053 14.3513C72.4354 14.1835 72.7685 13.9501 73.0045 13.6512C73.2405 13.3522 73.3585 13.0087 73.3585 12.6206C73.3585 12.2587 73.251 11.9545 73.0359 11.708C72.8262 11.4615 72.5167 11.2517 72.1076 11.0786C71.7038 10.9055 71.2081 10.7482 70.6207 10.6066L68.8664 10.166C67.508 9.83561 66.4354 9.319 65.6487 8.6162C64.862 7.91341 64.4713 6.96673 64.4765 5.77617C64.4713 4.80064 64.7309 3.94837 65.2554 3.21935C65.7851 2.49033 66.5115 1.92127 67.4345 1.51218C68.3576 1.10309 69.4066 0.898545 70.5814 0.898545C71.7772 0.898545 72.8209 1.10309 73.7125 1.51218C74.6094 1.92127 75.3069 2.49033 75.8052 3.21935C76.3034 3.94837 76.5604 4.79278 76.5762 5.75257H73.3113ZM93.8937 9.17477C93.8937 10.9318 93.5606 12.4265 92.8946 13.659C92.2337 14.8916 91.3316 15.833 90.1883 16.4833C89.0501 17.1284 87.7704 17.451 86.3491 17.451C84.9173 17.451 83.6323 17.1258 82.4942 16.4755C81.3561 15.8251 80.4566 14.8837 79.7958 13.6512C79.1349 12.4187 78.8045 10.9265 78.8045 9.17477C78.8045 7.41778 79.1349 5.92302 79.7958 4.6905C80.4566 3.45799 81.3561 2.51917 82.4942 1.87407C83.6323 1.22372 84.9173 0.898545 86.3491 0.898545C87.7704 0.898545 89.0501 1.22372 90.1883 1.87407C91.3316 2.51917 92.2337 3.45799 92.8946 4.6905C93.5606 5.92302 93.8937 7.41778 93.8937 9.17477ZM90.44 9.17477C90.44 8.03666 90.2696 7.07687 89.9286 6.2954C89.593 5.51393 89.1183 4.92127 88.5047 4.51743C87.8911 4.11358 87.1725 3.91166 86.3491 3.91166C85.5257 3.91166 84.8071 4.11358 84.1935 4.51743C83.5799 4.92127 83.1026 5.51393 82.7617 6.2954C82.426 7.07687 82.2582 8.03666 82.2582 9.17477C82.2582 10.3129 82.426 11.2727 82.7617 12.0541C83.1026 12.8356 83.5799 13.4283 84.1935 13.8321C84.8071 14.236 85.5257 14.4379 86.3491 14.4379C87.1725 14.4379 87.8911 14.236 88.5047 13.8321C89.1183 13.4283 89.593 12.8356 89.9286 12.0541C90.2696 11.2727 90.44 10.3129 90.44 9.17477ZM102.485 0.36358L97.2923 19.6538H94.405L99.5973 0.36358H102.485ZM107.569 1.11883V17.2307H104.162V1.11883H107.569ZM110.371 17.2307V1.11883H121.228V3.92739H113.778V7.76655H120.669V10.5751H113.778V14.4221H121.259V17.2307H110.371ZM138.152 6.75956H134.706C134.643 6.31376 134.515 5.91778 134.321 5.57162C134.127 5.22022 133.878 4.92127 133.574 4.67477C133.269 4.42827 132.918 4.23945 132.519 4.10834C132.126 3.97722 131.699 3.91166 131.237 3.91166C130.403 3.91166 129.677 4.11883 129.058 4.53316C128.439 4.94225 127.959 5.54015 127.618 6.32687C127.277 7.10834 127.107 8.05764 127.107 9.17477C127.107 10.3234 127.277 11.2884 127.618 12.0699C127.964 12.8513 128.447 13.4414 129.066 13.84C129.685 14.2386 130.4 14.4379 131.213 14.4379C131.67 14.4379 132.092 14.3776 132.48 14.2569C132.873 14.1363 133.222 13.9606 133.526 13.7298C133.831 13.4938 134.082 13.208 134.282 12.8723C134.486 12.5367 134.628 12.1538 134.706 11.7237L138.152 11.7395C138.063 12.479 137.84 13.1923 137.483 13.8793C137.132 14.5611 136.657 15.1721 136.06 15.7124C135.467 16.2473 134.759 16.6721 133.935 16.9868C133.117 17.2963 132.192 17.451 131.158 17.451C129.721 17.451 128.436 17.1258 127.303 16.4755C126.176 15.8251 125.284 14.8837 124.629 13.6512C123.978 12.4187 123.653 10.9265 123.653 9.17477C123.653 7.41778 123.983 5.92302 124.644 4.6905C125.305 3.45799 126.202 2.51917 127.335 1.87407C128.468 1.22372 129.742 0.898545 131.158 0.898545C132.092 0.898545 132.957 1.02966 133.754 1.2919C134.557 1.55414 135.268 1.93701 135.886 2.4405C136.505 2.93875 137.009 3.54977 137.397 4.27355C137.79 4.99732 138.042 5.82599 138.152 6.75956Z" fill="#182954"></path><path d="M66.1628 30.6152V29.7953L68.3381 27.6629C68.5461 27.4528 68.7195 27.2662 68.8582 27.103C68.9969 26.9398 69.1009 26.7818 69.1703 26.6288C69.2396 26.4758 69.2743 26.3126 69.2743 26.1393C69.2743 25.9414 69.2294 25.7721 69.1397 25.6314C69.0499 25.4886 68.9265 25.3785 68.7695 25.301C68.6124 25.2235 68.434 25.1847 68.2341 25.1847C68.0281 25.1847 67.8476 25.2276 67.6926 25.3132C67.5376 25.3968 67.4172 25.5162 67.3315 25.6712C67.2479 25.8262 67.2061 26.0108 67.2061 26.2249H66.1261C66.1261 25.8272 66.2169 25.4815 66.3984 25.1878C66.5799 24.8941 66.8298 24.6667 67.148 24.5055C67.4682 24.3444 67.8353 24.2638 68.2494 24.2638C68.6695 24.2638 69.0387 24.3424 69.3569 24.4994C69.6751 24.6565 69.9219 24.8716 70.0973 25.145C70.2747 25.4183 70.3635 25.7303 70.3635 26.0811C70.3635 26.3157 70.3186 26.5462 70.2288 26.7726C70.1391 26.999 69.981 27.2499 69.7546 27.5252C69.5303 27.8005 69.2151 28.134 68.8093 28.5256L67.7293 29.624V29.6668H70.4583V30.6152H66.1628ZM73.4663 30.6152L76.1311 25.3408V25.2979H73.038V24.3495H77.3059V25.3193L74.6442 30.6152H73.4663ZM82.1978 30.7346C81.694 30.7346 81.2616 30.6071 80.9006 30.3521C80.5416 30.0951 80.2653 29.7249 80.0715 29.2415C79.8798 28.7561 79.7839 28.1718 79.7839 27.4885C79.786 26.8052 79.8829 26.2239 80.0746 25.7446C80.2683 25.2633 80.5447 24.8961 80.9037 24.6432C81.2647 24.3903 81.6961 24.2638 82.1978 24.2638C82.6996 24.2638 83.131 24.3903 83.492 24.6432C83.853 24.8961 84.1294 25.2633 84.3211 25.7446C84.5148 26.226 84.6117 26.8073 84.6117 27.4885C84.6117 28.1738 84.5148 28.7592 84.3211 29.2446C84.1294 29.728 83.853 30.0972 83.492 30.3521C83.133 30.6071 82.7016 30.7346 82.1978 30.7346ZM82.1978 29.7769C82.5894 29.7769 82.8984 29.5842 83.1248 29.1987C83.3533 28.8112 83.4675 28.2411 83.4675 27.4885C83.4675 26.9908 83.4155 26.5727 83.3115 26.2341C83.2074 25.8955 83.0606 25.6406 82.8709 25.4693C82.6812 25.2959 82.4569 25.2092 82.1978 25.2092C81.8083 25.2092 81.5003 25.403 81.2739 25.7905C81.0475 26.176 80.9333 26.742 80.9312 27.4885C80.9292 27.9882 80.9791 28.4084 81.0811 28.749C81.1852 29.0896 81.332 29.3466 81.5217 29.52C81.7114 29.6913 81.9368 29.7769 82.1978 29.7769ZM89.6673 30.7346C89.1635 30.7346 88.7311 30.6071 88.3701 30.3521C88.0111 30.0951 87.7347 29.7249 87.541 29.2415C87.3493 28.7561 87.2534 28.1718 87.2534 27.4885C87.2554 26.8052 87.3523 26.2239 87.544 25.7446C87.7378 25.2633 88.0142 24.8961 88.3732 24.6432C88.7342 24.3903 89.1655 24.2638 89.6673 24.2638C90.169 24.2638 90.6004 24.3903 90.9614 24.6432C91.3225 24.8961 91.5988 25.2633 91.7905 25.7446C91.9843 26.226 92.0812 26.8073 92.0812 27.4885C92.0812 28.1738 91.9843 28.7592 91.7905 29.2446C91.5988 29.728 91.3225 30.0972 90.9614 30.3521C90.6025 30.6071 90.1711 30.7346 89.6673 30.7346ZM89.6673 29.7769C90.0589 29.7769 90.3679 29.5842 90.5943 29.1987C90.8227 28.8112 90.937 28.2411 90.937 27.4885C90.937 26.9908 90.885 26.5727 90.7809 26.2341C90.6769 25.8955 90.5301 25.6406 90.3404 25.4693C90.1507 25.2959 89.9263 25.2092 89.6673 25.2092C89.2777 25.2092 88.9697 25.403 88.7433 25.7905C88.5169 26.176 88.4027 26.742 88.4007 27.4885C88.3986 27.9882 88.4486 28.4084 88.5506 28.749C88.6546 29.0896 88.8015 29.3466 88.9912 29.52C89.1808 29.6913 89.4062 29.7769 89.6673 29.7769ZM97.3693 24.3495V30.6152H96.2342V25.454H96.1975L94.732 26.3901V25.3499L96.2893 24.3495H97.3693ZM101.378 29.8626C101.192 29.8626 101.033 29.7973 100.9 29.6668C100.768 29.5342 100.703 29.3751 100.705 29.1895C100.703 29.006 100.768 28.8489 100.9 28.7184C101.033 28.5878 101.192 28.5226 101.378 28.5226C101.557 28.5226 101.713 28.5878 101.846 28.7184C101.98 28.8489 102.049 29.006 102.051 29.1895C102.049 29.314 102.016 29.4272 101.953 29.5291C101.892 29.6311 101.81 29.7127 101.708 29.7739C101.608 29.833 101.498 29.8626 101.378 29.8626ZM101.378 26.7573C101.192 26.7573 101.033 26.692 100.9 26.5615C100.768 26.4289 100.703 26.2698 100.705 26.0842C100.703 25.9006 100.768 25.7436 100.9 25.6131C101.033 25.4805 101.192 25.4142 101.378 25.4142C101.557 25.4142 101.713 25.4805 101.846 25.6131C101.98 25.7436 102.049 25.9006 102.051 26.0842C102.049 26.2066 102.016 26.3188 101.953 26.4207C101.892 26.5227 101.81 26.6043 101.708 26.6655C101.608 26.7267 101.498 26.7573 101.378 26.7573ZM104.905 30.6152V29.7953L107.08 27.6629C107.288 27.4528 107.462 27.2662 107.601 27.103C107.739 26.9398 107.843 26.7818 107.913 26.6288C107.982 26.4758 108.017 26.3126 108.017 26.1393C108.017 25.9414 107.972 25.7721 107.882 25.6314C107.792 25.4886 107.669 25.3785 107.512 25.301C107.355 25.2235 107.176 25.1847 106.976 25.1847C106.77 25.1847 106.59 25.2276 106.435 25.3132C106.28 25.3968 106.16 25.5162 106.074 25.6712C105.99 25.8262 105.948 26.0108 105.948 26.2249H104.868C104.868 25.8272 104.959 25.4815 105.141 25.1878C105.322 24.8941 105.572 24.6667 105.89 24.5055C106.211 24.3444 106.578 24.2638 106.992 24.2638C107.412 24.2638 107.781 24.3424 108.099 24.4994C108.417 24.6565 108.664 24.8716 108.84 25.145C109.017 25.4183 109.106 25.7303 109.106 26.0811C109.106 26.3157 109.061 26.5462 108.971 26.7726C108.881 26.999 108.723 27.2499 108.497 27.5252C108.273 27.8005 107.957 28.134 107.552 28.5256L106.472 29.624V29.6668H109.201V30.6152H104.905ZM114.295 30.7346C113.791 30.7346 113.359 30.6071 112.998 30.3521C112.639 30.0951 112.363 29.7249 112.169 29.2415C111.977 28.7561 111.881 28.1718 111.881 27.4885C111.883 26.8052 111.98 26.2239 112.172 25.7446C112.366 25.2633 112.642 24.8961 113.001 24.6432C113.362 24.3903 113.793 24.2638 114.295 24.2638C114.797 24.2638 115.228 24.3903 115.589 24.6432C115.95 24.8961 116.227 25.2633 116.418 25.7446C116.612 26.226 116.709 26.8073 116.709 27.4885C116.709 28.1738 116.612 28.7592 116.418 29.2446C116.227 29.728 115.95 30.0972 115.589 30.3521C115.23 30.6071 114.799 30.7346 114.295 30.7346ZM114.295 29.7769C114.687 29.7769 114.996 29.5842 115.222 29.1987C115.451 28.8112 115.565 28.2411 115.565 27.4885C115.565 26.9908 115.513 26.5727 115.409 26.2341C115.305 25.8955 115.158 25.6406 114.968 25.4693C114.779 25.2959 114.554 25.2092 114.295 25.2092C113.906 25.2092 113.598 25.403 113.371 25.7905C113.145 26.176 113.031 26.742 113.029 27.4885C113.027 27.9882 113.076 28.4084 113.178 28.749C113.282 29.0896 113.429 29.3466 113.619 29.52C113.809 29.6913 114.034 29.7769 114.295 29.7769ZM119.449 30.6152V29.7953L121.624 27.6629C121.832 27.4528 122.005 27.2662 122.144 27.103C122.283 26.9398 122.387 26.7818 122.456 26.6288C122.525 26.4758 122.56 26.3126 122.56 26.1393C122.56 25.9414 122.515 25.7721 122.425 25.6314C122.336 25.4886 122.212 25.3785 122.055 25.301C121.898 25.2235 121.72 25.1847 121.52 25.1847C121.314 25.1847 121.133 25.2276 120.978 25.3132C120.823 25.3968 120.703 25.5162 120.617 25.6712C120.534 25.8262 120.492 26.0108 120.492 26.2249H119.412C119.412 25.8272 119.503 25.4815 119.684 25.1878C119.866 24.8941 120.116 24.6667 120.434 24.5055C120.754 24.3444 121.121 24.2638 121.535 24.2638C121.955 24.2638 122.325 24.3424 122.643 24.4994C122.961 24.6565 123.208 24.8716 123.383 25.145C123.561 25.4183 123.649 25.7303 123.649 26.0811C123.649 26.3157 123.604 26.5462 123.515 26.7726C123.425 26.999 123.267 27.2499 123.04 27.5252C122.816 27.8005 122.501 28.134 122.095 28.5256L121.015 29.624V29.6668H123.744V30.6152H119.449ZM126.523 30.6152V29.7953L128.698 27.6629C128.906 27.4528 129.079 27.2662 129.218 27.103C129.357 26.9398 129.461 26.7818 129.53 26.6288C129.599 26.4758 129.634 26.3126 129.634 26.1393C129.634 25.9414 129.589 25.7721 129.5 25.6314C129.41 25.4886 129.286 25.3785 129.129 25.301C128.972 25.2235 128.794 25.1847 128.594 25.1847C128.388 25.1847 128.207 25.2276 128.052 25.3132C127.897 25.3968 127.777 25.5162 127.691 25.6712C127.608 25.8262 127.566 26.0108 127.566 26.2249H126.486C126.486 25.8272 126.577 25.4815 126.758 25.1878C126.94 24.8941 127.19 24.6667 127.508 24.5055C127.828 24.3444 128.195 24.2638 128.609 24.2638C129.029 24.2638 129.399 24.3424 129.717 24.4994C130.035 24.6565 130.282 24.8716 130.457 25.145C130.635 25.4183 130.723 25.7303 130.723 26.0811C130.723 26.3157 130.678 26.5462 130.589 26.7726C130.499 26.999 130.341 27.2499 130.114 27.5252C129.89 27.8005 129.575 28.134 129.169 28.5256L128.089 29.624V29.6668H130.818V30.6152H126.523Z" fill="#182954"></path></svg>