<svg xmlns="http://www.w3.org/2000/svg" width="160" height="32" viewBox="0 0 160 32" fill="none"><g clip-path="url(#clip0_2051_4048)"><path d="m23.71 12.678-.487 1.011c-.553 1.15-.83 1.726-1.275 2.008a1.84 1.84 0 0 1-1.077.284c-.525-.026-1.05-.392-2.098-1.121-.93-.645-1.394-.968-1.875-1.013a1.84 1.84 0 0 0-1.012.195c-.43.22-.741.693-1.364 1.638l-3.087 4.683c-.528.802-.793 1.203-1.173 1.42a1.838 1.838 0 0 1-.596.215c-.432.077-.892-.063-1.811-.342-.883-.268-1.324-.402-1.742-.335-.202.033-.399.1-.58.197-.373.2-.642.574-1.182 1.321l-2.562 3.55c-.16.22-.239.33-.3.448a1.84 1.84 0 0 0-.189.585c-.02.133-.02.27-.02.54 0 .793 0 1.19.12 1.506a1.84 1.84 0 0 0 1.066 1.065c.315.121.712.121 1.504.121h23.058c1.734 0 2.6 0 3.14-.538.538-.54.538-1.406.538-3.14v-12.7c0-6.356 0-9.533-1.43-9.86-1.43-.327-2.808 2.537-5.563 8.264v.002z" fill="#182954"></path><path d="m49.888 5.095-.572 2.18h-10.51l.565-2.18H49.89zm-5.462 12.07-5.36-6.38.008-1.959h2.648c.59 0 1.084-.11 1.481-.329.397-.219.695-.517.893-.893.199-.376.3-.804.306-1.285-.005-.722-.217-1.31-.635-1.765-.412-.46-1.094-.69-2.045-.69h-2.916l.643-2.75h2.272c1.332 0 2.442.201 3.33.604.894.396 1.562.963 2.007 1.7.448.736.675 1.614.68 2.632-.005.905-.156 1.694-.454 2.367a3.994 3.994 0 0 1-1.387 1.684c-.628.45-1.446.784-2.454 1.003l-.125.048 4.797 5.87v.14h-3.69zm5.478-16.05-.588 2.21h-8.652l.588-2.21h8.652zm2.712 16.05L59.27 3.999v-.112h-7.751V1.115h11.26V3.93l-6.66 13.235h-3.504zM70.698.895a6.927 6.927 0 0 1 2.382.416 5.484 5.484 0 0 1 2.054 1.325c.605.606 1.084 1.41 1.434 2.414.355.997.535 2.222.54 3.674 0 1.365-.154 2.582-.462 3.653-.304 1.066-.74 1.972-1.31 2.719a5.723 5.723 0 0 1-2.06 1.708c-.805.386-1.704.58-2.696.58-1.071 0-2.017-.206-2.838-.619a5.323 5.323 0 0 1-1.982-1.7 5.297 5.297 0 0 1-.901-2.43h3.345c.13.586.404 1.04.823 1.364.417.318.935.477 1.55.477 1.046 0 1.84-.454 2.384-1.363.544-.914.818-2.165.823-3.754h-.11a3.84 3.84 0 0 1-.972 1.215c-.418.34-.893.603-1.403.775a5.016 5.016 0 0 1-1.669.275c-.945 0-1.789-.223-2.53-.667a4.78 4.78 0 0 1-1.756-1.833c-.429-.779-.642-1.668-.642-2.665-.006-1.076.243-2.035.744-2.876a5.243 5.243 0 0 1 2.1-1.975c.905-.482 1.955-.72 3.151-.714zm.023 2.665a2.66 2.66 0 0 0-1.409.376c-.404.248-.739.596-.97 1.011-.236.423-.35.896-.346 1.419 0 .527.115 1.003.345 1.426.227.41.556.756.955 1.003a2.65 2.65 0 0 0 1.395.368 2.685 2.685 0 0 0 1.96-.823c.25-.26.446-.561.587-.9.141-.34.212-.7.212-1.082-.002-.488-.126-.968-.362-1.395a2.76 2.76 0 0 0-.971-1.019 2.598 2.598 0 0 0-1.396-.384zm10.076 13.808a1.83 1.83 0 0 1-1.332-.548 1.83 1.83 0 0 1-.55-1.332c0-.512.184-.95.55-1.317a1.83 1.83 0 0 1 1.332-.547c.501 0 .94.182 1.317.548.375.367.563.806.563 1.318 0 .345-.088.66-.266.948-.172.282-.399.51-.68.682a1.796 1.796 0 0 1-.934.251v-.002zm10.104.016a7.254 7.254 0 0 1-2.391-.415 5.45 5.45 0 0 1-2.055-1.325c-.605-.612-1.085-1.422-1.44-2.43-.351-1.008-.526-2.247-.526-3.715.005-1.348.158-2.552.461-3.612.31-1.067.748-1.97 1.318-2.713a5.765 5.765 0 0 1 2.061-1.691c.799-.393 1.694-.59 2.687-.59 1.071 0 2.017.21 2.837.628.82.413 1.477.975 1.974 1.685.5.707.813 1.53.91 2.39H93.39c-.13-.558-.404-.997-.821-1.316-.42-.317-.937-.477-1.553-.477-1.046 0-1.84.455-2.383 1.364-.538.91-.812 2.145-.823 3.707h.112c.234-.47.565-.883.97-1.215a4.43 4.43 0 0 1 1.403-.777 5.063 5.063 0 0 1 1.67-.274c.95 0 1.797.223 2.54.673a4.776 4.776 0 0 1 1.755 1.833c.43.779.642 1.67.642 2.673 0 1.086-.253 2.053-.76 2.899a5.268 5.268 0 0 1-2.109 1.99c-.897.475-1.943.71-3.133.704zm-.016-2.665c.523 0 .99-.125 1.403-.376.412-.251.736-.59.971-1.019.235-.429.353-.909.353-1.442 0-.533-.117-1.01-.352-1.435a2.652 2.652 0 0 0-.956-1.01 2.602 2.602 0 0 0-1.394-.376c-.393 0-.756.073-1.09.22-.33.146-.619.35-.87.611a2.943 2.943 0 0 0-.791 1.998 2.82 2.82 0 0 0 1.325 2.445c.413.257.88.385 1.403.385h-.001zm8.519 2.445V1.115h3.394V8.19h.21l5.778-7.075h4.067L106.896 8.3l6.026 8.865h-4.058l-4.397-6.598-1.67 2.037v4.56h-3.393l-.001.001zm34.485-10.43h-3.433a3.346 3.346 0 0 0-.384-1.184 2.99 2.99 0 0 0-.743-.892 3.277 3.277 0 0 0-1.05-.564A4.008 4.008 0 0 0 127 3.898c-.832 0-1.555.206-2.172.619-.616.407-1.094 1.003-1.434 1.786-.34.78-.51 1.725-.51 2.838 0 1.145.17 2.107.51 2.885.345.779.825 1.366 1.442 1.763.617.398 1.33.596 2.14.596.454 0 .875-.06 1.26-.18a3.31 3.31 0 0 0 1.043-.526c.302-.234.557-.523.752-.853.21-.352.354-.74.423-1.144l3.433.017a6.2 6.2 0 0 1-.666 2.132 6.398 6.398 0 0 1-1.42 1.825 6.642 6.642 0 0 1-2.115 1.269c-.814.308-1.736.463-2.765.463-1.432 0-2.712-.324-3.84-.972-1.124-.648-2.012-1.586-2.665-2.814-.648-1.227-.972-2.713-.972-4.458 0-1.75.33-3.24.987-4.468.66-1.228 1.552-2.162 2.68-2.805 1.13-.649 2.4-.973 3.81-.973.93 0 1.79.13 2.585.392a6.565 6.565 0 0 1 2.124 1.143 5.87 5.87 0 0 1 1.505 1.826c.393.72.644 1.545.753 2.476v-.002zm2.37 10.43V5.127h3.236v2.1h.126c.22-.747.588-1.311 1.105-1.693a2.91 2.91 0 0 1 1.787-.58 4.932 4.932 0 0 1 1.05.118v2.962c-.213-.058-.43-.1-.65-.125a5.843 5.843 0 0 0-.76-.056c-.492 0-.93.107-1.317.322-.377.205-.69.508-.91.878-.22.375-.328.81-.328 1.3v6.81h-3.34zm13.428-.87V5.197h2.806v11.096h-2.806zm-4.145-4.146V9.342h11.098v2.807H145.54z" fill="#182954"></path><path d="M41.29 28.555h1.024l.607.786.434.513 1.04 1.335h-1.098l-.707-.897-.302-.425-.996-1.31h-.002zm3.252-1.024c0 .673-.126 1.25-.378 1.728-.25.478-.59.843-1.024 1.098-.43.254-.92.38-1.466.38a2.85 2.85 0 0 1-1.468-.38 2.725 2.725 0 0 1-1.024-1.101c-.25-.48-.375-1.055-.375-1.725 0-.673.125-1.248.375-1.726.252-.48.593-.846 1.024-1.1a2.85 2.85 0 0 1 1.469-.38c.547 0 1.036.126 1.467.38.433.254.774.62 1.024 1.1.251.478.378 1.053.378 1.725h-.001zm-1.137 0c0-.473-.073-.872-.222-1.198a1.65 1.65 0 0 0-.61-.74 1.616 1.616 0 0 0-.899-.253c-.338-.001-.637.083-.898.252-.26.167-.464.414-.613.74-.146.325-.219.725-.219 1.198 0 .473.073.873.22 1.2.148.326.352.573.612.741.26.168.56.251.899.251.34.001.64-.082.9-.249a1.67 1.67 0 0 0 .61-.74c.147-.327.222-.727.222-1.2h-.002zm3.38-2.173v-.948h4.98v.947h-1.93v5.294h-1.121v-5.293h-1.928zm7.656 5.294v-6.24h2.342c.48 0 .882.083 1.207.25.326.166.572.4.74.7.168.298.252.647.252 1.045 0 .4-.085.748-.256 1.043-.169.292-.417.519-.747.679-.33.16-.734.238-1.214.238H55.1v-.938h1.514c.28 0 .51-.039.69-.116a.815.815 0 0 0 .396-.342c.087-.154.131-.34.131-.561.001-.222-.043-.411-.13-.567a.834.834 0 0 0-.4-.36c-.178-.084-.408-.125-.69-.125h-1.037v5.296h-1.132zm3.226-2.827 1.545 2.828h-1.26l-1.517-2.827h1.234-.001zm4.074 2.828v-6.24h1.13v5.294h2.75v.947h-3.88zm5.522-6.24h1.277l1.526 2.76h.061l1.527-2.76h1.277l-2.27 3.913v2.328h-1.128v-2.327l-2.27-3.914zm11.758.947v-.948H84v.947h-1.93v5.294h-1.122v-5.293H79.02zm7.656 5.294v-6.24h2.34c.48 0 .883.083 1.208.25.327.166.573.4.74.7.169.298.253.647.253 1.045 0 .4-.086.748-.256 1.043-.168.292-.416.519-.746.679-.33.16-.733.238-1.212.238h-1.668v-.938h1.514c.281 0 .511-.039.69-.116a.817.817 0 0 0 .396-.342 1.12 1.12 0 0 0 .13-.561c0-.222-.044-.411-.131-.567a.836.836 0 0 0-.399-.36c-.18-.084-.41-.125-.692-.125h-1.036v5.296h-1.131zm3.224-2.827 1.545 2.828h-1.26l-1.519-2.827H89.9zm4.876 2.828h-1.208l2.198-6.24h1.396l2.2 6.241h-1.207l-1.667-4.96h-.048l-1.664 4.961zm.04-2.446h3.292v.908h-3.292v-.908zm9.2 2.447h-2.114v-6.24h2.157c.618 0 1.15.125 1.596.375.448.247.79.604 1.03 1.07.24.465.36 1.021.36 1.67 0 .65-.122 1.208-.363 1.675-.23.456-.592.831-1.04 1.076-.45.25-.993.374-1.627.374v.001zm-.984-.977h.93c.435 0 .797-.08 1.088-.238.29-.16.51-.398.656-.716.146-.32.22-.718.22-1.196s-.075-.874-.222-1.19a1.497 1.497 0 0 0-.648-.709c-.285-.159-.638-.238-1.06-.238h-.963v4.285zm7.936-5.264v6.241h-1.13v-6.24h1.13zm8.07 0v6.241h-1.005l-2.942-4.25h-.05v4.251h-1.13v-6.24h1.01l2.94 4.254h.054v-4.255h1.124zm7.13 1.993a1.612 1.612 0 0 0-.21-.442 1.38 1.38 0 0 0-.317-.338 1.282 1.282 0 0 0-.42-.21 1.76 1.76 0 0 0-.517-.074 1.62 1.62 0 0 0-.897.253 1.705 1.705 0 0 0-.62.745c-.146.325-.22.722-.22 1.19 0 .47.073.87.222 1.197.147.327.353.576.618.746.263.17.57.254.92.254.317 0 .59-.061.823-.183a1.3 1.3 0 0 0 .54-.52 1.61 1.61 0 0 0 .187-.791l.256.038h-1.694v-.883h2.532v.75c0 .534-.114.996-.342 1.386-.22.384-.546.698-.938.903-.398.21-.856.314-1.373.314-.575 0-1.08-.13-1.515-.387-.433-.26-.77-.63-1.015-1.107-.242-.48-.363-1.048-.363-1.706 0-.505.072-.955.215-1.35.13-.375.336-.718.603-1.01.258-.278.56-.49.907-.633a2.9 2.9 0 0 1 1.135-.22c.345 0 .668.05.966.152.3.1.564.242.796.427.473.368.785.906.87 1.5h-1.152zm8.694-1.994 1.625 4.912h.063l1.622-4.913h1.244l-2.202 6.241h-1.397l-2.197-6.24h1.242zm12.334 3.12c0 .672-.126 1.248-.378 1.728-.25.477-.59.843-1.024 1.097-.43.254-.92.38-1.465.38a2.853 2.853 0 0 1-1.47-.38 2.732 2.732 0 0 1-1.025-1.1c-.25-.48-.375-1.055-.375-1.726 0-.674.125-1.25.375-1.727.252-.479.594-.845 1.024-1.1.432-.254.922-.38 1.47-.38.544 0 1.033.126 1.464.38.433.255.775.621 1.023 1.1.253.479.38 1.053.38 1.726zm-1.137 0c0-.474-.074-.873-.223-1.198a1.65 1.65 0 0 0-.61-.74c-.268-.172-.58-.26-.898-.254-.34 0-.64.085-.9.253-.26.168-.464.415-.613.742-.146.325-.22.724-.22 1.198 0 .472.075.873.222 1.2.146.325.35.572.61.74.26.167.56.25.9.25.34 0 .64-.083.898-.25.26-.168.465-.415.61-.74.15-.327.223-.728.223-1.2zm3.923 3.12v-6.24h1.13v5.294h2.75v.947h-3.88zm7.207.068a.655.655 0 0 1-.475-.196.62.62 0 0 1-.195-.474.606.606 0 0 1 .195-.47.652.652 0 0 1 .475-.194.64.64 0 0 1 .466.194.642.642 0 0 1 .107.808.698.698 0 0 1-.244.244.63.63 0 0 1-.33.088z" fill="#182954"></path></g><defs><clipPath id="clip0_2051_4048"><rect width="160" height="31.877" fill="white"></rect></clipPath></defs></svg>