<?xml version="1.0" encoding="utf-8"?>
<!-- Generator: Adobe Illustrator 26.0.1, SVG Export Plug-In . SVG Version: 6.00 Build 0)  -->
<svg version="1.1" id="Layer_1" xmlns="http://www.w3.org/2000/svg" xmlns:xlink="http://www.w3.org/1999/xlink" x="0px" y="0px"
	 viewBox="0 0 120 48" style="enable-background:new 0 0 120 48;" xml:space="preserve">
<style type="text/css">
	.st0{fill:#FFFFFF;stroke:#F2F2F2;}
	.st1{clip-path:url(#SVGID_00000111169207062249945960000000652759160466372273_);}
	.st2{fill-rule:evenodd;clip-rule:evenodd;fill:#182954;}
	.st3{fill:#182954;}
</style>
<g>
	<path class="st0" d="M8,0.5h104c4.1,0,7.5,3.4,7.5,7.5v32c0,4.1-3.4,7.5-7.5,7.5H8c-4.1,0-7.5-3.4-7.5-7.5V8C0.5,3.9,3.9,0.5,8,0.5
		z"/>
	<g>
		<defs>
			<rect id="SVGID_1_" x="20.9" y="12.9" width="21.7" height="21.7"/>
		</defs>
		<clipPath id="SVGID_00000083771348680192762150000017044923202616790933_">
			<use xlink:href="#SVGID_1_"  style="overflow:visible;"/>
		</clipPath>
		<g style="clip-path:url(#SVGID_00000083771348680192762150000017044923202616790933_);">
			<path class="st2" d="M31.1,12.9h-5.3c-0.6,0-1.1,0.3-1.4,0.7l-3,4c-0.2,0.3-0.4,0.7-0.3,1.1c0.3,6.8,6,12,10.1,14
				c0.5,0.2,1,0.2,1.4,0c0.4-0.2,0.9-0.5,1.4-0.8c-2-0.9-3.8-2.1-5.1-3.2c-0.3-0.2-0.3-0.7-0.1-1c0.2-0.3,0.7-0.3,1-0.1
				c1.4,1.2,3.4,2.4,5.6,3.3c0.4-0.3,0.9-0.7,1.3-1c-2.4-1.1-4.6-2.6-6.3-4c-0.3-0.2-0.3-0.7-0.1-1c0.2-0.3,0.7-0.3,1-0.1
				c1.7,1.4,4,3,6.5,4c0.4-0.4,0.8-0.8,1.1-1.2c-0.8-0.4-1.6-0.8-2.4-1.2c-2-1.1-3.6-2.4-4.6-3.3c-0.3-0.3-0.3-0.7,0-1
				c0.3-0.3,0.7-0.3,1,0c0.8,0.8,2.4,2,4.3,3.1c0.8,0.5,1.7,0.9,2.6,1.3c0.3-0.5,0.7-0.9,1-1.4c-1.2-0.5-2.3-1.2-3.3-2
				c-1.8-1.2-3.3-2.7-4.4-3.7c-1.2,1-2.5,1.4-3.6,1.5c-1.3,0.1-2.5-0.3-3.1-1.1l-0.3-0.4l0.3-0.4L31.1,12.9L31.1,12.9z M41.2,24.1
				c0.8-1.6,1.3-3.4,1.4-5.4c0-0.4-0.1-0.8-0.3-1.1l-3-4c-0.3-0.5-0.9-0.7-1.4-0.7l-5,0l-5.3,6.6c0.3,0.2,0.9,0.3,1.6,0.3
				c1-0.1,2.2-0.5,3.3-1.6l0.5-0.5l0.5,0.5c1,1,2.7,2.6,4.6,4C39,23,40.1,23.6,41.2,24.1z"/>
		</g>
	</g>
	<path class="st3" d="M54.6,24.8V12.9h7.8V15h-5.3v2.8h4.8v2.1h-4.8v4.9L54.6,24.8L54.6,24.8z M65,24.9c-0.4,0-0.7-0.1-1-0.4
		c-0.3-0.3-0.4-0.6-0.4-1c0-0.4,0.1-0.7,0.4-1c0.3-0.3,0.6-0.4,1-0.4c0.4,0,0.7,0.1,1,0.4c0.3,0.3,0.4,0.6,0.4,1
		c0,0.3-0.1,0.5-0.2,0.7c-0.1,0.2-0.3,0.4-0.5,0.5C65.4,24.9,65.2,24.9,65,24.9z M70.9,12.9v11.8h-2.5V12.9
		C68.4,12.9,70.9,12.9,70.9,12.9z M74.4,24.9c-0.4,0-0.7-0.1-1-0.4c-0.3-0.3-0.4-0.6-0.4-1c0-0.4,0.1-0.7,0.4-1
		c0.3-0.3,0.6-0.4,1-0.4c0.4,0,0.7,0.1,1,0.4c0.3,0.3,0.4,0.6,0.4,1c0,0.3-0.1,0.5-0.2,0.7c-0.1,0.2-0.3,0.4-0.5,0.5
		C74.9,24.9,74.6,24.9,74.4,24.9z M85.1,12.9h2.5v7.7c0,0.9-0.2,1.6-0.6,2.3c-0.4,0.6-1,1.2-1.7,1.5c-0.7,0.4-1.6,0.5-2.6,0.5
		c-1,0-1.8-0.2-2.6-0.5c-0.7-0.4-1.3-0.9-1.7-1.5c-0.4-0.6-0.6-1.4-0.6-2.3v-7.7h2.5v7.5c0,0.5,0.1,0.9,0.3,1.2
		c0.2,0.4,0.5,0.6,0.8,0.8c0.4,0.2,0.8,0.3,1.3,0.3c0.5,0,0.9-0.1,1.3-0.3c0.4-0.2,0.6-0.5,0.8-0.8c0.2-0.4,0.3-0.8,0.3-1.2
		C85.1,20.4,85.1,12.9,85.1,12.9z M90.6,24.9c-0.4,0-0.7-0.1-1-0.4c-0.3-0.3-0.4-0.6-0.4-1c0-0.4,0.1-0.7,0.4-1
		c0.3-0.3,0.6-0.4,1-0.4c0.4,0,0.7,0.1,1,0.4c0.3,0.3,0.4,0.6,0.4,1c0,0.3-0.1,0.5-0.2,0.7c-0.1,0.2-0.3,0.4-0.5,0.5
		C91,24.9,90.8,24.9,90.6,24.9z"/>
	<path class="st3" d="M48.7,35.1v-4.6h1.7c0.4,0,0.7,0.1,0.9,0.2c0.2,0.1,0.4,0.3,0.5,0.5c0.1,0.2,0.2,0.5,0.2,0.8
		c0,0.3-0.1,0.6-0.2,0.8c-0.1,0.2-0.3,0.4-0.6,0.5c-0.2,0.1-0.5,0.2-0.9,0.2h-1.2v-0.7h1.1c0.2,0,0.4,0,0.5-0.1
		c0.1-0.1,0.2-0.1,0.3-0.3c0.1-0.1,0.1-0.3,0.1-0.4s0-0.3-0.1-0.4c-0.1-0.1-0.2-0.2-0.3-0.3c-0.1-0.1-0.3-0.1-0.5-0.1h-0.8v3.9H48.7
		z M51.1,33l1.1,2.1h-0.9L50.2,33C50.2,33,51.1,33,51.1,33z M54.1,35.1v-4.6h3v0.7h-2.2v1.3h2v0.7h-2v1.3h2.2v0.7H54.1z M62.3,32
		c0-0.1-0.1-0.2-0.2-0.3c-0.1-0.1-0.1-0.2-0.2-0.2c-0.1-0.1-0.2-0.1-0.3-0.2c-0.1,0-0.2-0.1-0.4-0.1c-0.2,0-0.5,0.1-0.7,0.2
		c-0.2,0.1-0.3,0.3-0.5,0.5c-0.1,0.2-0.2,0.5-0.2,0.9c0,0.3,0.1,0.6,0.2,0.9c0.1,0.2,0.3,0.4,0.5,0.6c0.2,0.1,0.4,0.2,0.7,0.2
		c0.2,0,0.4,0,0.6-0.1c0.2-0.1,0.3-0.2,0.4-0.4c0.1-0.2,0.1-0.4,0.1-0.6l0.2,0h-1.3v-0.7h1.9v0.6c0,0.4-0.1,0.7-0.3,1
		c-0.2,0.3-0.4,0.5-0.7,0.7c-0.3,0.2-0.6,0.2-1,0.2c-0.4,0-0.8-0.1-1.1-0.3c-0.3-0.2-0.6-0.5-0.7-0.8c-0.2-0.4-0.3-0.8-0.3-1.3
		c0-0.4,0.1-0.7,0.2-1c0.1-0.3,0.3-0.5,0.4-0.7c0.2-0.2,0.4-0.4,0.7-0.5c0.3-0.1,0.5-0.2,0.8-0.2c0.3,0,0.5,0,0.7,0.1
		c0.2,0.1,0.4,0.2,0.6,0.3c0.2,0.1,0.3,0.3,0.4,0.5c0.1,0.2,0.2,0.4,0.2,0.6H62.3z M66.1,30.5v4.6h-0.8v-4.6H66.1z M70.8,31.8
		c0-0.2-0.1-0.3-0.3-0.5c-0.2-0.1-0.4-0.2-0.6-0.2c-0.2,0-0.3,0-0.4,0.1c-0.1,0.1-0.2,0.1-0.3,0.2c-0.1,0.1-0.1,0.2-0.1,0.3
		c0,0.1,0,0.2,0.1,0.2c0,0.1,0.1,0.1,0.2,0.2c0.1,0,0.2,0.1,0.3,0.1c0.1,0,0.2,0.1,0.3,0.1l0.4,0.1c0.2,0,0.3,0.1,0.5,0.2
		c0.2,0.1,0.3,0.2,0.4,0.3c0.1,0.1,0.2,0.2,0.3,0.4c0.1,0.1,0.1,0.3,0.1,0.5c0,0.3-0.1,0.5-0.2,0.7c-0.1,0.2-0.3,0.4-0.6,0.5
		c-0.3,0.1-0.6,0.2-0.9,0.2c-0.4,0-0.7-0.1-0.9-0.2c-0.3-0.1-0.5-0.3-0.6-0.5c-0.1-0.2-0.2-0.5-0.2-0.8h0.8c0,0.2,0.1,0.3,0.1,0.4
		c0.1,0.1,0.2,0.2,0.3,0.2c0.1,0.1,0.3,0.1,0.5,0.1c0.2,0,0.3,0,0.5-0.1c0.1-0.1,0.2-0.1,0.3-0.2c0.1-0.1,0.1-0.2,0.1-0.3
		c0-0.1,0-0.2-0.1-0.3c-0.1-0.1-0.2-0.1-0.3-0.2c-0.1-0.1-0.3-0.1-0.4-0.1L69.5,33c-0.4-0.1-0.7-0.2-0.9-0.4
		c-0.2-0.2-0.3-0.5-0.3-0.8c0-0.3,0.1-0.5,0.2-0.7c0.1-0.2,0.4-0.4,0.6-0.5c0.3-0.1,0.5-0.2,0.9-0.2c0.3,0,0.6,0.1,0.9,0.2
		c0.2,0.1,0.4,0.3,0.6,0.5c0.1,0.2,0.2,0.4,0.2,0.7L70.8,31.8L70.8,31.8z M73.5,31.2v-0.7h3.7v0.7h-1.4v3.9h-0.8v-3.9
		C74.9,31.2,73.5,31.2,73.5,31.2z M79.1,35.1v-4.6h3v0.7h-2.2v1.3h2v0.7h-2v1.3h2.2v0.7C82.1,35.1,79.1,35.1,79.1,35.1z M84.2,35.1
		v-4.6h1.7c0.4,0,0.7,0.1,0.9,0.2c0.2,0.1,0.4,0.3,0.5,0.5c0.1,0.2,0.2,0.5,0.2,0.8c0,0.3-0.1,0.6-0.2,0.8c-0.1,0.2-0.3,0.4-0.6,0.5
		c-0.2,0.1-0.5,0.2-0.9,0.2h-1.2v-0.7h1.1c0.2,0,0.4,0,0.5-0.1c0.1-0.1,0.2-0.1,0.3-0.3c0.1-0.1,0.1-0.3,0.1-0.4s0-0.3-0.1-0.4
		c-0.1-0.1-0.2-0.2-0.3-0.3c-0.1-0.1-0.3-0.1-0.5-0.1h-0.8v3.9C85.1,35.1,84.2,35.1,84.2,35.1z M86.6,33l1.1,2.1h-0.9L85.7,33
		C85.7,33,86.6,33,86.6,33z M89.6,35.1v-4.6h3v0.7h-2.2v1.3h2v0.7h-2v1.3h2.2v0.7C92.6,35.1,89.6,35.1,89.6,35.1z M96.3,35.1h-1.6
		v-4.6h1.6c0.5,0,0.9,0.1,1.2,0.3c0.3,0.2,0.6,0.4,0.8,0.8c0.2,0.3,0.3,0.8,0.3,1.2c0,0.5-0.1,0.9-0.3,1.2c-0.2,0.3-0.4,0.6-0.8,0.8
		C97.2,35,96.8,35.1,96.3,35.1z M95.6,34.4h0.7c0.3,0,0.6-0.1,0.8-0.2c0.2-0.1,0.4-0.3,0.5-0.5c0.1-0.2,0.2-0.5,0.2-0.9
		c0-0.4-0.1-0.6-0.2-0.9c-0.1-0.2-0.3-0.4-0.5-0.5c-0.2-0.1-0.5-0.2-0.8-0.2h-0.7C95.6,31.2,95.6,34.4,95.6,34.4z"/>
</g>
</svg>
