<svg xmlns="http://www.w3.org/2000/svg" width="60" height="60" viewBox="0 0 60 60" fill="none"><path d="M19.7363 49.342H25.2626L23.4205 52.4999H19.7363V49.342Z" fill="#1517D6"></path><path d="M19.7363 49.342H25.2626L23.4205 52.4999H19.7363V49.342Z" fill="#0A0C73"></path><path d="M21.3164 49.342H26.8427L25.0006 52.4999H21.3164V49.342Z" fill="#1517D6"></path><path d="M21.3164 49.342H26.8427L25.0006 52.4999H21.3164V49.342Z" fill="url(#paint0_linear_210_3102)" style="mix-blend-mode:luminosity"></path><path d="M11.8418 49.342H17.3681L15.526 52.4999H11.8418V49.342Z" fill="#1517D6"></path><path d="M11.8418 49.342H17.3681L15.526 52.4999H11.8418V49.342Z" fill="#0A0C73"></path><path d="M40.2627 49.342H34.7364L36.5785 52.4999H40.2627V49.342Z" fill="#1517D6"></path><path d="M40.2627 49.342H34.7364L36.5785 52.4999H40.2627V49.342Z" fill="#0A0C73"></path><path d="M48.1582 49.342H42.6319L44.474 52.4999H48.1582V49.342Z" fill="#1517D6"></path><path d="M48.1582 49.342H42.6319L44.474 52.4999H48.1582V49.342Z" fill="#0A0C73"></path><path d="M49.7363 49.342H44.21L46.0521 52.4999H49.7363V49.342Z" fill="#1517D6"></path><path d="M49.7363 49.342H44.21L46.0521 52.4999H49.7363V49.342Z" fill="url(#paint1_linear_210_3102)" style="mix-blend-mode:luminosity"></path><rect x="3.94727" y="7.5" width="42.6316" height="42.6316" rx="4.73684" fill="#1517D6"></rect><rect x="3.94727" y="7.5" width="42.6316" height="42.6316" rx="4.73684" fill="url(#paint2_linear_210_3102)" style="mix-blend-mode:luminosity"></rect><rect x="13.8156" y="7.89474" width="41.8421" height="41.8421" rx="4.34211" fill="url(#paint3_linear_210_3102)" stroke="url(#paint4_linear_210_3102)" stroke-width="0.789474"></rect><rect x="17.7629" y="11.8421" width="33.9474" height="33.9474" rx="2.76316" stroke="url(#paint5_linear_210_3102)" stroke-width="0.789474"></rect><path fill-rule="evenodd" clip-rule="evenodd" d="M27.4796 36.0729C31.4877 40.0809 37.9859 40.0809 41.9939 36.0729C46.002 32.0649 46.002 25.5666 41.9939 21.5586C37.9859 17.5506 31.4877 17.5506 27.4796 21.5586C23.4716 25.5666 23.4716 32.0649 27.4796 36.0729ZM31.3 30.2733L28.6213 32.9521C26.9331 30.4621 26.9331 27.1694 28.6213 24.6794L31.3 27.3582C30.9063 28.2875 30.9063 29.344 31.3 30.2733ZM33.2793 32.2525L30.6005 34.9313C33.0905 36.6195 36.3831 36.6195 38.8731 34.9313L36.1943 32.2525C35.265 32.6463 34.2086 32.6463 33.2793 32.2525ZM38.1735 30.2733L40.8523 32.9521C42.5405 30.4621 42.5405 27.1694 40.8523 24.6795L38.1735 27.3582C38.5673 28.2875 38.5673 29.344 38.1735 30.2733ZM36.1943 25.379L38.8731 22.7002C36.3831 21.0121 33.0905 21.0121 30.6005 22.7002L33.2793 25.379C34.2086 24.9853 35.265 24.9853 36.1943 25.379Z" fill="white"></path><path d="M49.7363 17.7632C49.7363 16.8911 50.4432 16.1842 51.3153 16.1842V20.921C50.4432 20.921 49.7363 20.2141 49.7363 19.3421V17.7632Z" fill="#1517D6"></path><path d="M49.7363 17.7632C49.7363 16.8911 50.4432 16.1842 51.3153 16.1842V20.921C50.4432 20.921 49.7363 20.2141 49.7363 19.3421V17.7632Z" fill="url(#paint6_linear_210_3102)" style="mix-blend-mode:luminosity"></path><path d="M49.7363 38.2895C49.7363 37.4175 50.4432 36.7106 51.3153 36.7106V41.4474C50.4432 41.4474 49.7363 40.7405 49.7363 39.8685V38.2895Z" fill="#1517D6"></path><path d="M49.7363 38.2895C49.7363 37.4175 50.4432 36.7106 51.3153 36.7106V41.4474C50.4432 41.4474 49.7363 40.7405 49.7363 39.8685V38.2895Z" fill="url(#paint7_linear_210_3102)" style="mix-blend-mode:luminosity"></path><rect x="19.7363" y="22.5" width="1.57895" height="11.8421" rx="0.789474" fill="#1517D6"></rect><rect x="19.7363" y="22.5" width="1.57895" height="11.8421" rx="0.789474" fill="url(#paint8_linear_210_3102)" style="mix-blend-mode:luminosity"></rect><mask id="mask0_210_3102" style="mask-type:alpha" maskUnits="userSpaceOnUse" x="13" y="7" width="44" height="44"><rect x="13.8156" y="7.89474" width="41.8421" height="41.8421" rx="4.34211" fill="url(#paint9_linear_210_3102)" stroke="url(#paint10_linear_210_3102)" stroke-width="0.789474"></rect></mask><g mask="url(#mask0_210_3102)"><rect x="7.10547" y="-4.16174" width="41.4134" height="71.3813" transform="rotate(-30 7.10547 -4.16174)" fill="url(#paint11_linear_210_3102)"></rect></g><defs><linearGradient id="paint0_linear_210_3102" x1="23.5119" y1="48.4975" x2="23.5024" y2="52.5043" gradientUnits="userSpaceOnUse"><stop stop-color="white" stop-opacity="0.4"></stop><stop offset="0.940848" stop-opacity="0.5"></stop></linearGradient><linearGradient id="paint1_linear_210_3102" x1="47.5408" y1="48.4975" x2="47.5504" y2="52.5043" gradientUnits="userSpaceOnUse"><stop stop-color="white" stop-opacity="0.4"></stop><stop offset="0.940848" stop-opacity="0.5"></stop></linearGradient><linearGradient id="paint2_linear_210_3102" x1="20.8839" y1="-3.90155" x2="20.6585" y2="50.1897" gradientUnits="userSpaceOnUse"><stop stop-color="white" stop-opacity="0.4"></stop><stop offset="0.940848" stop-opacity="0.5"></stop></linearGradient><linearGradient id="paint3_linear_210_3102" x1="48.663" y1="7.5" x2="3.52212" y2="38.3131" gradientUnits="userSpaceOnUse"><stop stop-color="#5375FF"></stop><stop offset="1" stop-color="#0033FF"></stop></linearGradient><linearGradient id="paint4_linear_210_3102" x1="14.9618" y1="47.8878" x2="56.4779" y2="13.4691" gradientUnits="userSpaceOnUse"><stop stop-color="#10CF84"></stop><stop offset="1" stop-color="#10CF84" stop-opacity="0"></stop></linearGradient><linearGradient id="paint5_linear_210_3102" x1="18.6237" y1="44.356" x2="61.6879" y2="-3.97279" gradientUnits="userSpaceOnUse"><stop stop-color="#10CF84"></stop><stop offset="1" stop-color="#10CF84" stop-opacity="0"></stop></linearGradient><linearGradient id="paint6_linear_210_3102" x1="50.3636" y1="14.9174" x2="50.2885" y2="20.9267" gradientUnits="userSpaceOnUse"><stop stop-color="white" stop-opacity="0.4"></stop><stop offset="0.940848" stop-opacity="0.5"></stop></linearGradient><linearGradient id="paint7_linear_210_3102" x1="50.3636" y1="35.4437" x2="50.2885" y2="41.453" gradientUnits="userSpaceOnUse"><stop stop-color="white" stop-opacity="0.4"></stop><stop offset="0.940848" stop-opacity="0.5"></stop></linearGradient><linearGradient id="paint8_linear_210_3102" x1="20.5258" y1="12.6316" x2="19.9193" y2="34.3444" gradientUnits="userSpaceOnUse"><stop stop-color="white" stop-opacity="0.4"></stop><stop offset="0.940848" stop-opacity="0.5"></stop></linearGradient><linearGradient id="paint9_linear_210_3102" x1="48.663" y1="7.5" x2="3.52212" y2="38.3131" gradientUnits="userSpaceOnUse"><stop stop-color="#5375FF"></stop><stop offset="1" stop-color="#0033FF"></stop></linearGradient><linearGradient id="paint10_linear_210_3102" x1="14.9618" y1="47.8878" x2="56.4779" y2="13.4691" gradientUnits="userSpaceOnUse"><stop stop-color="#10CF84"></stop><stop offset="1" stop-color="#10CF84" stop-opacity="0"></stop></linearGradient><linearGradient id="paint11_linear_210_3102" x1="-27.3483" y1="-53.4334" x2="37.0625" y2="27.6045" gradientUnits="userSpaceOnUse"><stop stop-color="white"></stop><stop offset="1" stop-color="white" stop-opacity="0"></stop></linearGradient></defs></svg>