<svg xmlns="http://www.w3.org/2000/svg" width="60" height="60" viewBox="0 0 60 60" fill="none"><path fill-rule="evenodd" clip-rule="evenodd" d="M21 15C21 10.0294 25.0294 6 30 6C34.9706 6 39 10.0294 39 15V21.75H34.5V15C34.5 12.5147 32.4853 10.5 30 10.5C27.5147 10.5 25.5 12.5147 25.5 15V21.75H21V15Z" fill="url(#paint0_linear_210_3101)"></path><rect x="11.25" y="21.75" width="37.5" height="32.25" rx="4.5" fill="#1517D6"></rect><rect x="11.25" y="21.75" width="37.5" height="32.25" rx="4.5" fill="url(#paint1_linear_210_3101)" style="mix-blend-mode:luminosity"></rect><rect x="16.875" y="22.125" width="31.5" height="31.5" rx="4.125" fill="url(#paint2_linear_210_3101)" stroke="url(#paint3_linear_210_3101)" stroke-width="0.75"></rect><circle cx="32.625" cy="34.875" r="4.125" fill="white"></circle><path d="M30.75 38.25H34.5V43.125C34.5 44.1605 33.6605 45 32.625 45C31.5895 45 30.75 44.1605 30.75 43.125V38.25Z" fill="white"></path><mask id="mask0_210_3101" style="mask-type:alpha" maskUnits="userSpaceOnUse" x="16" y="21" width="33" height="33"><rect x="16.875" y="22.125" width="31.5" height="31.5" rx="4.125" fill="url(#paint4_linear_210_3101)" stroke="url(#paint5_linear_210_3101)" stroke-width="0.75"></rect></mask><g mask="url(#mask0_210_3101)"><rect x="6.75" y="3.17139" width="39.3427" height="67.8123" transform="rotate(-30 6.75 3.17139)" fill="url(#paint6_linear_210_3101)"></rect></g><defs><linearGradient id="paint0_linear_210_3101" x1="38.625" y1="14.6762" x2="17.0481" y2="50.7673" gradientUnits="userSpaceOnUse"><stop stop-color="#5375FF"></stop><stop offset="1" stop-color="#0033FF"></stop></linearGradient><linearGradient id="paint1_linear_210_3101" x1="26.148" y1="13.1249" x2="26.0013" y2="54.0442" gradientUnits="userSpaceOnUse"><stop stop-color="white" stop-opacity="0.4"></stop><stop offset="0.940848" stop-opacity="0.5"></stop></linearGradient><linearGradient id="paint2_linear_210_3101" x1="43.16" y1="21.75" x2="9.01176" y2="45.0596" gradientUnits="userSpaceOnUse"><stop stop-color="#5375FF"></stop><stop offset="1" stop-color="#0033FF"></stop></linearGradient><linearGradient id="paint3_linear_210_3101" x1="17.6657" y1="52.3026" x2="49.0718" y2="26.2655" gradientUnits="userSpaceOnUse"><stop stop-color="#10CF84"></stop><stop offset="1" stop-color="#10CF84" stop-opacity="0"></stop></linearGradient><linearGradient id="paint4_linear_210_3101" x1="43.16" y1="21.75" x2="9.01176" y2="45.0596" gradientUnits="userSpaceOnUse"><stop stop-color="#5375FF"></stop><stop offset="1" stop-color="#0033FF"></stop></linearGradient><linearGradient id="paint5_linear_210_3101" x1="17.6657" y1="52.3026" x2="49.0718" y2="26.2655" gradientUnits="userSpaceOnUse"><stop stop-color="#10CF84"></stop><stop offset="1" stop-color="#10CF84" stop-opacity="0"></stop></linearGradient><linearGradient id="paint6_linear_210_3101" x1="-25.9811" y1="-43.6367" x2="35.2092" y2="33.3493" gradientUnits="userSpaceOnUse"><stop stop-color="white"></stop><stop offset="1" stop-color="white" stop-opacity="0"></stop></linearGradient></defs></svg>