<svg xmlns="http://www.w3.org/2000/svg" width="60" height="60" viewBox="0 0 60 60" fill="none"><mask id="mask0_210_3100" style="mask-type:alpha" maskUnits="userSpaceOnUse" x="3" y="3" width="54" height="54"><rect x="3" y="3" width="54" height="54" fill="#D9D9D9"></rect></mask><g mask="url(#mask0_210_3100)"><path d="M29.5812 52.3343C27.5287 52.2476 26.5024 52.2043 26.177 52.142C25.8516 52.0797 25.6502 52.0093 25.2474 51.8685C20.8717 50.3396 17.1881 47.5594 14.1967 43.5281C10.7322 38.8594 9 33.675 9 27.975V20.5319C9 17.4945 9 15.9758 9.80998 14.8154C10.62 13.6549 12.0455 13.1312 14.8966 12.0839L25.8724 8.05197C26.6218 7.7767 26.9964 7.63907 27.3874 7.56953C27.7783 7.5 28.1775 7.5 28.9758 7.5H30.8993C32.0238 7.5 32.586 7.5 33.1257 7.63555C33.6654 7.77109 34.1609 8.03675 35.1519 8.56805L41.0025 11.7048C43.3158 12.945 44.4725 13.5651 45.1112 14.6323C45.75 15.6996 45.75 17.0119 45.75 19.6367V27.975C45.75 33.675 44.0178 38.8594 40.5533 43.5281C38.6959 46.0312 36.9119 50.2798 34.5208 51.8182C33.063 52.7561 31.3371 52.4084 29.5812 52.3343Z" fill="#1517D6"></path><path d="M29.5812 52.3343C27.5287 52.2476 26.5024 52.2043 26.177 52.142C25.8516 52.0797 25.6502 52.0093 25.2474 51.8685C20.8717 50.3396 17.1881 47.5594 14.1967 43.5281C10.7322 38.8594 9 33.675 9 27.975V20.5319C9 17.4945 9 15.9758 9.80998 14.8154C10.62 13.6549 12.0455 13.1312 14.8966 12.0839L25.8724 8.05197C26.6218 7.7767 26.9964 7.63907 27.3874 7.56953C27.7783 7.5 28.1775 7.5 28.9758 7.5H30.8993C32.0238 7.5 32.586 7.5 33.1257 7.63555C33.6654 7.77109 34.1609 8.03675 35.1519 8.56805L41.0025 11.7048C43.3158 12.945 44.4725 13.5651 45.1112 14.6323C45.75 15.6996 45.75 17.0119 45.75 19.6367V27.975C45.75 33.675 44.0178 38.8594 40.5533 43.5281C38.6959 46.0312 36.9119 50.2798 34.5208 51.8182C33.063 52.7561 31.3371 52.4084 29.5812 52.3343Z" fill="url(#paint0_linear_210_3100)" style="mix-blend-mode:luminosity"></path><path d="M34.6289 51.5145C33.7167 51.8333 33.3174 51.9702 32.625 51.9702C31.9326 51.9702 31.5333 51.8333 30.6211 51.5145C26.3222 50.0124 22.6984 47.2809 19.7478 43.3047C16.3303 38.6992 14.625 33.5928 14.625 27.975V20.5319C14.625 19.0048 14.6255 17.8902 14.7239 17.0115C14.8212 16.1421 15.0112 15.5404 15.3675 15.03C15.7238 14.5196 16.2231 14.1338 17.0055 13.7426C17.7965 13.3473 18.8425 12.9625 20.2759 12.4359L29.6509 8.99201C31.2115 8.41875 31.9067 8.16902 32.625 8.16902C33.3433 8.16902 34.0385 8.41875 35.5991 8.99201L44.974 12.4359C46.4075 12.9625 47.4535 13.3473 48.2445 13.7426C49.0269 14.1338 49.5262 14.5196 49.8825 15.03C50.2388 15.5404 50.4288 16.1421 50.5261 17.0115C50.6245 17.8902 50.625 19.0048 50.625 20.5319V27.975C50.625 33.5928 48.9197 38.6992 45.5022 43.3047C42.5516 47.2809 38.9278 50.0124 34.6289 51.5145Z" fill="url(#paint1_linear_210_3100)" stroke="url(#paint2_linear_210_3100)" stroke-width="0.75"></path><mask id="mask1_210_3100" style="mask-type:alpha" maskUnits="userSpaceOnUse" x="14" y="8" width="37" height="45"><path d="M34.6997 51.2911C33.7903 51.6089 33.3921 51.7454 32.6996 51.7454C32.0071 51.7454 31.6089 51.6089 30.6995 51.2911C26.4421 49.8032 22.8529 47.1009 19.9298 43.1691C16.5407 38.6103 14.8496 33.5559 14.8496 27.9952V20.6934C14.8496 19.1653 14.8502 18.0501 14.9486 17.1709C15.046 16.301 15.2362 15.699 15.5928 15.1885C15.9494 14.6779 16.4491 14.2921 17.2323 13.9012C18.0239 13.5061 19.0707 13.1216 20.5054 12.5956L29.7304 9.21309C31.2885 8.64181 31.9826 8.39294 32.6996 8.39294C33.4166 8.39294 34.1108 8.64181 35.6688 9.2131L44.8938 12.5956C46.3285 13.1216 47.3753 13.5061 48.1669 13.9012C48.9501 14.2921 49.4498 14.6779 49.8064 15.1885C50.163 15.699 50.3532 16.301 50.4506 17.1709C50.5491 18.0501 50.5496 19.1653 50.5496 20.6934V27.9952C50.5496 33.5559 48.8586 38.6103 45.4694 43.1691C42.5464 47.1009 38.9571 49.8032 34.6997 51.2911Z" fill="url(#paint3_linear_210_3100)" stroke="url(#paint4_linear_210_3100)" stroke-width="0.75"></path></mask><g mask="url(#mask1_210_3100)"><rect x="11.7754" y="8.5542" width="35.4084" height="53.6896" transform="rotate(-30 11.7754 8.5542)" fill="url(#paint5_linear_210_3100)"></rect></g><path d="M21.1033 32.25V22.4318H27.604V24.1433H23.1792V26.4828H27.1726V28.1942H23.1792V32.25H21.1033ZM32.1561 22.4318V32.25H30.0803V22.4318H32.1561ZM41.0085 22.4318H43.0843V28.8079C43.0843 29.5238 42.9133 30.1502 42.5713 30.6871C42.2325 31.2241 41.7579 31.6428 41.1475 31.9432C40.537 32.2404 39.8259 32.389 39.0141 32.389C38.1992 32.389 37.4864 32.2404 36.876 31.9432C36.2656 31.6428 35.7909 31.2241 35.4522 30.6871C35.1134 30.1502 34.944 29.5238 34.944 28.8079V22.4318H37.0198V28.6305C37.0198 29.0044 37.1013 29.3368 37.2643 29.6277C37.4305 29.9185 37.6638 30.147 37.9642 30.3132C38.2647 30.4794 38.6146 30.5625 39.0141 30.5625C39.4168 30.5625 39.7668 30.4794 40.064 30.3132C40.3645 30.147 40.5962 29.9185 40.7592 29.6277C40.9254 29.3368 41.0085 29.0044 41.0085 28.6305V22.4318Z" fill="white"></path></g><defs><linearGradient id="paint0_linear_210_3100" x1="23.6" y1="-4.53497" x2="23.3086" y2="52.5609" gradientUnits="userSpaceOnUse"><stop stop-color="white" stop-opacity="0.4"></stop><stop offset="0.940848" stop-opacity="0.5"></stop></linearGradient><linearGradient id="paint1_linear_210_3100" x1="44.958" y1="7.5" x2="1.65286" y2="31.8922" gradientUnits="userSpaceOnUse"><stop stop-color="#5375FF"></stop><stop offset="1" stop-color="#0033FF"></stop></linearGradient><linearGradient id="paint2_linear_210_3100" x1="15.9064" y1="49.6922" x2="57.0415" y2="21.5514" gradientUnits="userSpaceOnUse"><stop stop-color="#10CF84"></stop><stop offset="1" stop-color="#10CF84" stop-opacity="0"></stop></linearGradient><linearGradient id="paint3_linear_210_3100" x1="44.932" y1="7.72498" x2="2.01869" y2="31.9412" gradientUnits="userSpaceOnUse"><stop stop-color="#5375FF"></stop><stop offset="1" stop-color="#0033FF"></stop></linearGradient><linearGradient id="paint4_linear_210_3100" x1="16.1174" y1="49.4952" x2="56.8685" y2="21.5654" gradientUnits="userSpaceOnUse"><stop stop-color="#10CF84"></stop><stop offset="1" stop-color="#10CF84" stop-opacity="0"></stop></linearGradient><linearGradient id="paint5_linear_210_3100" x1="-38.1943" y1="-27.4746" x2="1.34718" y2="54.9664" gradientUnits="userSpaceOnUse"><stop stop-color="white"></stop><stop offset="1" stop-color="white" stop-opacity="0"></stop></linearGradient></defs></svg>