<svg xmlns="http://www.w3.org/2000/svg" width="60" height="60" viewBox="0 0 60 60" fill="none"><path fill-rule="evenodd" clip-rule="evenodd" d="M54.932 35.068C56.25 36.386 56.25 38.5074 56.25 42.75V46.5C56.25 50.7426 56.25 52.864 54.932 54.182C54.2587 54.8553 53.3757 55.1847 52.1074 55.3457L54 58.5H51.7499L47.5499 55.5C47.4512 55.5 47.3512 55.5 47.25 55.5H38.25C34.0074 55.5 31.886 55.5 30.568 54.182C29.25 52.864 29.25 50.7426 29.25 46.5V42.75C29.25 38.5074 29.25 36.386 30.568 35.068C31.886 33.75 34.0074 33.75 38.25 33.75H47.25C51.4926 33.75 53.614 33.75 54.932 35.068Z" fill="#1517D6"></path><path fill-rule="evenodd" clip-rule="evenodd" d="M54.932 35.068C56.25 36.386 56.25 38.5074 56.25 42.75V46.5C56.25 50.7426 56.25 52.864 54.932 54.182C54.2587 54.8553 53.3757 55.1847 52.1074 55.3457L54 58.5H51.7499L47.5499 55.5C47.4512 55.5 47.3512 55.5 47.25 55.5H38.25C34.0074 55.5 31.886 55.5 30.568 54.182C29.25 52.864 29.25 50.7426 29.25 46.5V42.75C29.25 38.5074 29.25 36.386 30.568 35.068C31.886 33.75 34.0074 33.75 38.25 33.75H47.25C51.4926 33.75 53.614 33.75 54.932 35.068Z" fill="url(#paint0_linear_210_3103)" style="mix-blend-mode:luminosity"></path><mask id="path-2-inside-1_210_3103" fill="white"><path fill-rule="evenodd" clip-rule="evenodd" d="M57.182 35.068C58.5 36.386 58.5 38.5074 58.5 42.75V46.5C58.5 50.7426 58.5 52.864 57.182 54.182C56.4472 54.9168 55.4626 55.242 54 55.3858V58.5L49.8 55.5C49.7012 55.5 49.6012 55.5 49.5 55.5H40.5C36.2574 55.5 34.136 55.5 32.818 54.182C31.5 52.864 31.5 50.7426 31.5 46.5V42.75C31.5 38.5074 31.5 36.386 32.818 35.068C34.136 33.75 36.2574 33.75 40.5 33.75H49.5C53.7426 33.75 55.864 33.75 57.182 35.068Z"></path></mask><path fill-rule="evenodd" clip-rule="evenodd" d="M57.182 35.068C58.5 36.386 58.5 38.5074 58.5 42.75V46.5C58.5 50.7426 58.5 52.864 57.182 54.182C56.4472 54.9168 55.4626 55.242 54 55.3858V58.5L49.8 55.5C49.7012 55.5 49.6012 55.5 49.5 55.5H40.5C36.2574 55.5 34.136 55.5 32.818 54.182C31.5 52.864 31.5 50.7426 31.5 46.5V42.75C31.5 38.5074 31.5 36.386 32.818 35.068C34.136 33.75 36.2574 33.75 40.5 33.75H49.5C53.7426 33.75 55.864 33.75 57.182 35.068Z" fill="url(#paint1_linear_210_3103)"></path><path d="M57.182 54.182L57.7123 54.7123H57.7123L57.182 54.182ZM54 55.3858H53.25V54.706L53.9266 54.6394L54 55.3858ZM54 58.5H54.75V59.9574L53.5641 59.1103L54 58.5ZM49.8 55.5L49.7999 54.75L50.0403 54.7499L50.236 54.8897L49.8 55.5ZM32.818 54.182L32.2877 54.7123V54.7123L32.818 54.182ZM32.818 35.068L32.2877 34.5377V34.5377L32.818 35.068ZM57.75 42.75C57.75 40.6075 57.7484 39.076 57.5919 37.9122C57.4384 36.77 57.1481 36.0948 56.6517 35.5983L57.7123 34.5377C58.5339 35.3593 58.9026 36.4038 59.0786 37.7123C59.2516 38.9993 59.25 40.6499 59.25 42.75H57.75ZM57.75 46.5V42.75H59.25V46.5H57.75ZM56.6517 53.6516C57.1481 53.1552 57.4384 52.48 57.5919 51.3378C57.7484 50.174 57.75 48.6425 57.75 46.5H59.25C59.25 48.6001 59.2516 50.2507 59.0786 51.5377C58.9026 52.8462 58.5339 53.8907 57.7123 54.7123L56.6517 53.6516ZM53.9266 54.6394C55.3235 54.502 56.0986 54.2047 56.6517 53.6516L57.7123 54.7123C56.7957 55.6289 55.6018 55.9819 54.0734 56.1322L53.9266 54.6394ZM54.75 55.3858V58.5H53.25V55.3858H54.75ZM53.5641 59.1103L49.3641 56.1103L50.236 54.8897L54.4359 57.8897L53.5641 59.1103ZM49.5 54.75C49.6012 54.75 49.7012 54.75 49.7999 54.75L49.8002 56.25C49.7013 56.25 49.6012 56.25 49.5 56.25V54.75ZM40.5 54.75H49.5V56.25H40.5V54.75ZM33.3484 53.6516C33.8448 54.1481 34.52 54.4384 35.6622 54.5919C36.826 54.7484 38.3575 54.75 40.5 54.75V56.25C38.3999 56.25 36.7493 56.2516 35.4623 56.0786C34.1538 55.9026 33.1093 55.5339 32.2877 54.7123L33.3484 53.6516ZM32.25 46.5C32.25 48.6425 32.2516 50.174 32.4081 51.3378C32.5616 52.48 32.8519 53.1552 33.3484 53.6517L32.2877 54.7123C31.4661 53.8907 31.0974 52.8462 30.9214 51.5377C30.7484 50.2507 30.75 48.6001 30.75 46.5H32.25ZM32.25 42.75V46.5H30.75V42.75H32.25ZM33.3484 35.5983C32.8519 36.0948 32.5616 36.77 32.4081 37.9122C32.2516 39.076 32.25 40.6075 32.25 42.75H30.75C30.75 40.6499 30.7484 38.9993 30.9214 37.7123C31.0974 36.4038 31.4661 35.3593 32.2877 34.5377L33.3484 35.5983ZM40.5 34.5C38.3575 34.5 36.826 34.5016 35.6622 34.6581C34.52 34.8116 33.8448 35.1019 33.3484 35.5983L32.2877 34.5377C33.1093 33.7161 34.1538 33.3474 35.4623 33.1714C36.7493 32.9984 38.3999 33 40.5 33V34.5ZM49.5 34.5H40.5V33H49.5V34.5ZM56.6517 35.5983C56.1552 35.1019 55.48 34.8116 54.3378 34.6581C53.174 34.5016 51.6425 34.5 49.5 34.5V33C51.6001 33 53.2507 32.9984 54.5377 33.1714C55.8462 33.3474 56.8907 33.7161 57.7123 34.5377L56.6517 35.5983Z" fill="url(#paint2_linear_210_3103)" mask="url(#path-2-inside-1_210_3103)"></path><circle cx="1.875" cy="1.875" r="1.875" transform="matrix(-1 0 0 1 53.25 42.75)" fill="white"></circle><circle cx="1.875" cy="1.875" r="1.875" transform="matrix(-1 0 0 1 47.25 42.75)" fill="white"></circle><circle cx="1.875" cy="1.875" r="1.875" transform="matrix(-1 0 0 1 40.5 42.75)" fill="white"></circle><path fill-rule="evenodd" clip-rule="evenodd" d="M2.81802 2.81802C1.5 4.13604 1.5 6.25736 1.5 10.5V21.75C1.5 25.9926 1.5 28.114 2.81802 29.432C3.77997 30.3939 5.16983 30.6538 7.5 30.724V35.25H10.5L13.7143 30.75H29.25C33.4926 30.75 35.614 30.75 36.932 29.432C38.25 28.114 38.25 25.9926 38.25 21.75V10.5C38.25 6.25736 38.25 4.13604 36.932 2.81802C35.614 1.5 33.4926 1.5 29.25 1.5H10.5C6.25736 1.5 4.13604 1.5 2.81802 2.81802Z" fill="#1517D6"></path><path fill-rule="evenodd" clip-rule="evenodd" d="M2.81802 2.81802C1.5 4.13604 1.5 6.25736 1.5 10.5V21.75C1.5 25.9926 1.5 28.114 2.81802 29.432C3.77997 30.3939 5.16983 30.6538 7.5 30.724V35.25H10.5L13.7143 30.75H29.25C33.4926 30.75 35.614 30.75 36.932 29.432C38.25 28.114 38.25 25.9926 38.25 21.75V10.5C38.25 6.25736 38.25 4.13604 36.932 2.81802C35.614 1.5 33.4926 1.5 29.25 1.5H10.5C6.25736 1.5 4.13604 1.5 2.81802 2.81802Z" fill="url(#paint3_linear_210_3103)" style="mix-blend-mode:luminosity"></path><mask id="path-8-inside-2_210_3103" fill="white"><path fill-rule="evenodd" clip-rule="evenodd" d="M5.81802 2.81802C4.5 4.13604 4.5 6.25736 4.5 10.5V21.75C4.5 25.9926 4.5 28.114 5.81802 29.432C6.77997 30.3939 8.16983 30.6538 10.5 30.724V35.25L16.2857 30.75H32.25C36.4926 30.75 38.614 30.75 39.932 29.432C41.25 28.114 41.25 25.9926 41.25 21.75V10.5C41.25 6.25736 41.25 4.13604 39.932 2.81802C38.614 1.5 36.4926 1.5 32.25 1.5H13.5C9.25736 1.5 7.13604 1.5 5.81802 2.81802Z"></path></mask><path fill-rule="evenodd" clip-rule="evenodd" d="M5.81802 2.81802C4.5 4.13604 4.5 6.25736 4.5 10.5V21.75C4.5 25.9926 4.5 28.114 5.81802 29.432C6.77997 30.3939 8.16983 30.6538 10.5 30.724V35.25L16.2857 30.75H32.25C36.4926 30.75 38.614 30.75 39.932 29.432C41.25 28.114 41.25 25.9926 41.25 21.75V10.5C41.25 6.25736 41.25 4.13604 39.932 2.81802C38.614 1.5 36.4926 1.5 32.25 1.5H13.5C9.25736 1.5 7.13604 1.5 5.81802 2.81802Z" fill="url(#paint4_linear_210_3103)"></path><path d="M5.81802 29.432L5.28769 29.9623H5.28769L5.81802 29.432ZM10.5 30.724H11.25V29.9963L10.5226 29.9744L10.5 30.724ZM10.5 35.25H9.75V36.7835L10.9605 35.842L10.5 35.25ZM16.2857 30.75V30H16.0284L15.8253 30.158L16.2857 30.75ZM5.25 10.5C5.25 8.35748 5.25159 6.82603 5.40806 5.66221C5.56164 4.51997 5.85192 3.84478 6.34835 3.34835L5.28769 2.28769C4.4661 3.10928 4.09737 4.15376 3.92144 5.46234C3.74841 6.74934 3.75 8.39988 3.75 10.5H5.25ZM5.25 21.75V10.5H3.75V21.75H5.25ZM6.34835 28.9016C5.85192 28.4052 5.56164 27.73 5.40806 26.5878C5.25159 25.424 5.25 23.8925 5.25 21.75H3.75C3.75 23.8501 3.74841 25.5007 3.92144 26.7877C4.09737 28.0962 4.4661 29.1407 5.28769 29.9623L6.34835 28.9016ZM10.5226 29.9744C8.18117 29.9038 7.07959 29.6329 6.34835 28.9016L5.28769 29.9623C6.48036 31.155 8.15849 31.4038 10.4774 31.4737L10.5226 29.9744ZM9.75 30.724V35.25H11.25V30.724H9.75ZM10.9605 35.842L16.7462 31.342L15.8253 30.158L10.0395 34.658L10.9605 35.842ZM32.25 30H16.2857V31.5H32.25V30ZM39.4016 28.9016C38.9052 29.3981 38.23 29.6884 37.0878 29.8419C35.924 29.9984 34.3925 30 32.25 30V31.5C34.3501 31.5 36.0007 31.5016 37.2877 31.3286C38.5962 31.1526 39.6407 30.7839 40.4623 29.9623L39.4016 28.9016ZM40.5 21.75C40.5 23.8925 40.4984 25.424 40.3419 26.5878C40.1884 27.73 39.8981 28.4052 39.4016 28.9016L40.4623 29.9623C41.2839 29.1407 41.6526 28.0962 41.8286 26.7877C42.0016 25.5007 42 23.8501 42 21.75H40.5ZM40.5 10.5V21.75H42V10.5H40.5ZM39.4016 3.34835C39.8981 3.84478 40.1884 4.51997 40.3419 5.66221C40.4984 6.82603 40.5 8.35748 40.5 10.5H42C42 8.39988 42.0016 6.74934 41.8286 5.46234C41.6526 4.15376 41.2839 3.10928 40.4623 2.28769L39.4016 3.34835ZM32.25 2.25C34.3925 2.25 35.924 2.25159 37.0878 2.40806C38.23 2.56164 38.9052 2.85192 39.4016 3.34835L40.4623 2.28769C39.6407 1.4661 38.5962 1.09737 37.2877 0.92144C36.0007 0.748407 34.3501 0.75 32.25 0.75V2.25ZM13.5 2.25H32.25V0.75H13.5V2.25ZM6.34835 3.34835C6.84478 2.85192 7.51997 2.56164 8.66221 2.40806C9.82603 2.25159 11.3575 2.25 13.5 2.25V0.75C11.3999 0.75 9.74934 0.748407 8.46234 0.92144C7.15376 1.09737 6.10928 1.4661 5.28769 2.28769L6.34835 3.34835Z" fill="url(#paint5_linear_210_3103)" mask="url(#path-8-inside-2_210_3103)"></path><circle cx="13.875" cy="16.125" r="2.625" fill="white"></circle><circle cx="22.875" cy="16.125" r="2.625" fill="white"></circle><circle cx="31.875" cy="16.125" r="2.625" fill="white"></circle><path d="M50.7061 5.43462C50.7715 5.11472 51.2285 5.11472 51.2939 5.43462L51.8088 7.95389C51.8329 8.07165 51.9249 8.16367 52.0427 8.18774L54.562 8.70266C54.8819 8.76804 54.8819 9.22512 54.562 9.29051L52.0427 9.80542C51.9249 9.82949 51.8329 9.92152 51.8088 10.0393L51.2939 12.5585C51.2285 12.8784 50.7715 12.8784 50.7061 12.5585L50.1912 10.0393C50.1671 9.92152 50.0751 9.82949 49.9573 9.80542L47.438 9.2905C47.1181 9.22512 47.1181 8.76804 47.438 8.70266L49.9573 8.18774C50.0751 8.16367 50.1671 8.07165 50.1912 7.95389L50.7061 5.43462Z" fill="#1342FF"></path><path d="M55.853 1.7156C55.8857 1.55565 56.1143 1.55565 56.147 1.7156L56.4893 3.39038C56.5013 3.44926 56.5473 3.49527 56.6062 3.50731L58.281 3.84962C58.4409 3.88231 58.4409 4.11085 58.281 4.14354L56.6062 4.48586C56.5473 4.49789 56.5013 4.5439 56.4893 4.60278L56.147 6.27756C56.1143 6.43751 55.8857 6.43751 55.853 6.27756L55.5107 4.60278C55.4987 4.5439 55.4527 4.49789 55.3938 4.48586L53.719 4.14354C53.5591 4.11085 53.5591 3.88231 53.719 3.84962L55.3938 3.50731C55.4527 3.49527 55.4987 3.44926 55.5107 3.39038L55.853 1.7156Z" fill="#0839FF"></path><defs><linearGradient id="paint0_linear_210_3103" x1="49.1249" y1="33.003" x2="43.3141" y2="56.4977" gradientUnits="userSpaceOnUse"><stop stop-color="white" stop-opacity="0.4"></stop><stop offset="0.940848" stop-opacity="0.5"></stop></linearGradient><linearGradient id="paint1_linear_210_3103" x1="55.125" y1="34.8705" x2="32.3401" y2="49.8724" gradientUnits="userSpaceOnUse"><stop stop-color="#5375FF"></stop><stop offset="1" stop-color="#0033FF"></stop></linearGradient><linearGradient id="paint2_linear_210_3103" x1="32.625" y1="55.039" x2="53.2656" y2="31.4653" gradientUnits="userSpaceOnUse"><stop stop-color="#10CF84"></stop><stop offset="1" stop-color="#10CF84" stop-opacity="0"></stop></linearGradient><linearGradient id="paint3_linear_210_3103" x1="10.1257" y1="0.766124" x2="18.3932" y2="32.5284" gradientUnits="userSpaceOnUse"><stop stop-color="white" stop-opacity="0.4"></stop><stop offset="0.778354" stop-opacity="0.5"></stop></linearGradient><linearGradient id="paint4_linear_210_3103" x1="35.25" y1="1.5" x2="16.6526" y2="36.3641" gradientUnits="userSpaceOnUse"><stop stop-color="#5375FF"></stop><stop offset="1" stop-color="#0033FF"></stop></linearGradient><linearGradient id="paint5_linear_210_3103" x1="21.375" y1="29.3804" x2="38.143" y2="-4.78258" gradientUnits="userSpaceOnUse"><stop stop-color="#10CF84"></stop><stop offset="1" stop-color="#10CF84" stop-opacity="0"></stop></linearGradient></defs></svg>