<svg xmlns="http://www.w3.org/2000/svg" width="60" height="60" viewBox="0 0 60 60" fill="none"><path d="M7.125 34.5C7.125 30.2574 7.125 28.136 8.44302 26.818C9.76104 25.5 11.8824 25.5 16.125 25.5H19C23.2426 25.5 25.364 25.5 26.682 26.818C28 28.136 28 30.2574 28 34.5V35.6685C28 37.0605 28 37.7566 28.2869 38.3646C28.5739 38.9726 29.1112 39.4151 30.1858 40.3L43.515 51.2771C43.8988 51.5931 44.0907 51.7511 44.2481 51.9293C44.6251 52.3559 44.8729 52.881 44.9625 53.4432C45 53.678 45 53.9266 45 54.4237C45 55.4249 45 55.9255 44.8817 56.3342C44.5955 57.3227 43.8227 58.0955 42.8342 58.3817C42.4255 58.5 41.9249 58.5 40.9237 58.5H16.125C11.8824 58.5 9.76104 58.5 8.44302 57.182C7.125 55.864 7.125 53.7426 7.125 49.5V34.5Z" fill="#1517D6"></path><path d="M7.125 34.5C7.125 30.2574 7.125 28.136 8.44302 26.818C9.76104 25.5 11.8824 25.5 16.125 25.5H19C23.2426 25.5 25.364 25.5 26.682 26.818C28 28.136 28 30.2574 28 34.5V35.6685C28 37.0605 28 37.7566 28.2869 38.3646C28.5739 38.9726 29.1112 39.4151 30.1858 40.3L43.515 51.2771C43.8988 51.5931 44.0907 51.7511 44.2481 51.9293C44.6251 52.3559 44.8729 52.881 44.9625 53.4432C45 53.678 45 53.9266 45 54.4237C45 55.4249 45 55.9255 44.8817 56.3342C44.5955 57.3227 43.8227 58.0955 42.8342 58.3817C42.4255 58.5 41.9249 58.5 40.9237 58.5H16.125C11.8824 58.5 9.76104 58.5 8.44302 57.182C7.125 55.864 7.125 53.7426 7.125 49.5V34.5Z" fill="url(#paint0_linear_210_3117)" style="mix-blend-mode:luminosity"></path><path d="M15.5503 26.9939L15.2935 26.7206L15.5503 26.9939C16.1193 26.4592 16.8641 26.1719 18.0043 26.0245C19.1544 25.8757 20.6519 25.875 22.6968 25.875H35.0284C36.4532 25.875 37.4841 25.8758 38.2703 25.9815C39.0456 26.0857 39.5265 26.2858 39.8846 26.6438C40.2426 27.0019 40.4427 27.4828 40.5469 28.2582C40.6526 29.0443 40.6534 30.0752 40.6534 31.5V35.6583C40.6534 35.6914 40.6534 35.7243 40.6534 35.7568C40.6532 37.0587 40.6531 37.8373 40.9782 38.5238C41.3034 39.2103 41.9058 39.7034 42.9132 40.5281C42.9384 40.5487 42.9638 40.5695 42.9895 40.5906L56.3954 51.5684C56.789 51.8907 56.9535 52.0268 57.0869 52.1769C57.4198 52.5513 57.6385 53.0131 57.7173 53.5079L58.0876 53.4488L57.7173 53.5079C57.7489 53.7062 57.75 53.9197 57.75 54.4284C57.75 55.4511 57.7463 55.8835 57.6474 56.2268C57.3974 57.0943 56.7193 57.7724 55.8518 58.0224C55.5085 58.1213 55.0761 58.125 54.0534 58.125H31.3466V56.7626L31.3466 56.657C31.3467 54.6631 31.3468 53.5357 30.8774 52.5446C30.408 51.5535 29.5357 50.8393 27.9929 49.5762L27.9112 49.5092L17.3452 40.857C15.7627 39.5611 15.0649 38.9796 14.6785 38.1994C14.6571 38.1562 14.6365 38.1127 14.6166 38.0688L14.275 38.2233L14.6166 38.0688C14.2578 37.2755 14.25 36.3673 14.25 34.3218C14.25 32.2769 14.2507 30.7794 14.3995 29.6293C14.5469 28.4891 14.8342 27.7443 15.3689 27.1753L15.0956 26.9185L15.3689 27.1753C15.4275 27.113 15.488 27.0525 15.5503 26.9939Z" fill="url(#paint1_linear_210_3117)" stroke="url(#paint2_linear_210_3117)" stroke-width="0.75"></path><rect x="16.875" y="28.5" width="21.75" height="8.25" rx="1.5" fill="#1517D6"></rect><rect x="16.875" y="28.5" width="21.75" height="8.25" rx="1.5" fill="url(#paint3_linear_210_3117)" style="mix-blend-mode:luminosity"></rect><path d="M20.1147 30.9466V30.0909H24.1465V30.9466H22.6436V35H21.6176V30.9466H20.1147ZM25.7318 35H24.6195L26.3142 30.0909H27.6518L29.3441 35H28.2318L27.0022 31.2127H26.9638L25.7318 35ZM25.6622 33.0704H28.2894V33.8806H25.6622V33.0704ZM31.5831 30.0909L32.5731 31.764H32.6114L33.6062 30.0909H34.7783L33.2802 32.5455L34.8119 35H33.6182L32.6114 33.3245H32.5731L31.5663 35H30.3774L31.9139 32.5455L30.4062 30.0909H31.5831Z" fill="white"></path><path d="M20.625 39.75H24.1422L26.625 42H23.1078L20.625 39.75Z" fill="white"></path><path d="M25.125 43.5H28.6422L31.125 45.75H27.6078L25.125 43.5Z" fill="white"></path><path d="M29.625 47.25H33.1422L35.625 49.5H32.1078L29.625 47.25Z" fill="white"></path><path d="M27.375 39.75H30.8922L33.375 42H29.8578L27.375 39.75Z" fill="white"></path><path d="M31.875 43.5H35.3922L37.875 45.75H34.3578L31.875 43.5Z" fill="white"></path><path d="M36.375 47.25H39.8922L42.375 49.5H38.8578L36.375 47.25Z" fill="white"></path><path d="M34.125 39.75H37.6422L40.125 42H36.6078L34.125 39.75Z" fill="white"></path><path d="M38.625 43.5H42.1422L44.625 45.75H41.1078L38.625 43.5Z" fill="white"></path><path d="M43.125 47.25H46.6422L49.125 49.5H45.6078L43.125 47.25Z" fill="white"></path><path d="M16.5153 3.87429C16.22 2.48971 14.997 1.5 13.5813 1.5H4.25256C2.34383 1.5 0.920433 3.25896 1.31854 5.12571L4.38402 19.5H19.8477L16.5153 3.87429Z" fill="url(#paint4_linear_210_3117)"></path><rect opacity="0.7" width="10.8818" height="0.75" rx="0.375" transform="matrix(-1 0 0 1 16.4111 14.25)" fill="white"></rect><rect opacity="0.7" width="10.8818" height="0.75" rx="0.375" transform="matrix(-1 0 0 1 15.2656 9.75)" fill="white"></rect><rect opacity="0.7" width="10.8818" height="0.75" rx="0.375" transform="matrix(-1 0 0 1 14.1201 5.25)" fill="white"></rect><path d="M27.8652 6.75H12.4016L4.38342 19.5H19.8471L27.8652 6.75Z" fill="url(#paint5_linear_210_3117)"></path><rect opacity="0.7" x="9.53809" y="12" width="12.6" height="0.75" rx="0.375" fill="#D3DCFF"></rect><path d="M27.8659 6.75H12.4023L16.4114 25.5H31.875L27.8659 6.75Z" fill="#CED8FF"></path><rect opacity="0.7" width="12.6" height="0.75" rx="0.375" transform="matrix(-1 0 0 1 29.0107 18.75)" fill="white"></rect><rect opacity="0.7" width="12.6" height="0.75" rx="0.375" transform="matrix(-1 0 0 1 27.8652 14.25)" fill="white"></rect><rect opacity="0.7" width="12.6" height="0.75" rx="0.375" transform="matrix(-1 0 0 1 26.7197 9.75)" fill="white"></rect><rect opacity="0.7" x="7.24805" y="16.5" width="12.6" height="0.75" rx="0.375" fill="#D3DCFF"></rect><defs><linearGradient id="paint0_linear_210_3117" x1="27.3862" y1="16.6744" x2="27.2733" y2="58.5454" gradientUnits="userSpaceOnUse"><stop stop-color="white" stop-opacity="0.4"></stop><stop offset="0.940848" stop-opacity="0.5"></stop></linearGradient><linearGradient id="paint1_linear_210_3117" x1="50.455" y1="25.5" x2="19.9482" y2="59.6281" gradientUnits="userSpaceOnUse"><stop stop-color="#5375FF"></stop><stop offset="1" stop-color="#0033FF"></stop></linearGradient><linearGradient id="paint2_linear_210_3117" x1="15.4744" y1="51.0789" x2="41.0217" y2="16.3675" gradientUnits="userSpaceOnUse"><stop stop-color="#10CF84"></stop><stop offset="1" stop-color="#10CF84" stop-opacity="0"></stop></linearGradient><linearGradient id="paint3_linear_210_3117" x1="25.2159" y1="26.0671" x2="25.5489" y2="36.6228" gradientUnits="userSpaceOnUse"><stop stop-color="white" stop-opacity="0.4"></stop><stop offset="0.158037" stop-opacity="0.5"></stop></linearGradient><linearGradient id="paint4_linear_210_3117" x1="9.96811" y1="0.749634" x2="9.96811" y2="19.8746" gradientUnits="userSpaceOnUse"><stop stop-color="#E4E9FF"></stop><stop offset="1" stop-color="#CBD5FF"></stop></linearGradient><linearGradient id="paint5_linear_210_3117" x1="15.1733" y1="6.75" x2="16.7947" y2="20.3741" gradientUnits="userSpaceOnUse"><stop stop-color="white"></stop><stop offset="1" stop-color="#CBD5FF"></stop></linearGradient></defs></svg>