<svg xmlns="http://www.w3.org/2000/svg" width="60" height="60" viewBox="0 0 60 60" fill="none"><path d="M19.082 17.0072C19.082 22.5728 23.5939 27.0847 29.1595 27.0847H29.5291C30.5425 27.0847 31.0492 27.0847 31.3641 26.7698C31.6789 26.455 31.6789 25.9483 31.6789 24.9348V9.0795C31.6789 8.06607 31.6789 7.55935 31.3641 7.24452C31.0492 6.92969 30.5425 6.92969 29.5291 6.92969H29.1595C23.5939 6.92969 19.082 11.4415 19.082 17.0072Z" fill="#1517D6"></path><path d="M19.082 17.0072C19.082 22.5728 23.5939 27.0847 29.1595 27.0847H29.5291C30.5425 27.0847 31.0492 27.0847 31.3641 26.7698C31.6789 26.455 31.6789 25.9483 31.6789 24.9348V9.0795C31.6789 8.06607 31.6789 7.55935 31.3641 7.24452C31.0492 6.92969 30.5425 6.92969 29.5291 6.92969H29.1595C23.5939 6.92969 19.082 11.4415 19.082 17.0072Z" fill="url(#paint0_linear_210_3104)" style="mix-blend-mode:luminosity"></path><circle cx="31.679" cy="17.0072" r="9.23769" fill="#1517D6"></circle><circle cx="31.679" cy="17.0072" r="9.23769" fill="url(#paint1_linear_210_3104)" style="mix-blend-mode:luminosity"></circle><circle cx="31.679" cy="17.0072" r="9.23769" stroke="url(#paint2_linear_210_3104)" stroke-width="1.67958"></circle><path d="M36.3173 15.4064L35.5735 16.6862L28.5837 14.8133L29.3327 13.5349L36.3173 15.4064ZM30.6191 22.6189L28.1203 17.1958L28.4284 16.025L30.2509 16.5133C30.6863 16.63 31.0691 16.6554 31.3991 16.5895C31.7336 16.5211 32.0116 16.3754 32.2332 16.1525C32.4592 15.927 32.6202 15.6352 32.7162 15.277C32.8602 14.7397 32.8179 14.2655 32.5893 13.8542C32.3608 13.4429 31.8989 13.1442 31.2036 12.9579L29.2231 12.4272L30.07 10.9096L31.6397 11.3302C32.5246 11.5674 33.2201 11.9005 33.7261 12.3296C34.2366 12.7562 34.5695 13.2557 34.7247 13.828C34.8835 14.4012 34.874 15.0196 34.6962 15.6833C34.539 16.2698 34.2917 16.7643 33.9543 17.1669C33.6168 17.5695 33.1785 17.8567 32.6395 18.0284C32.1004 18.2001 31.4455 18.2354 30.6747 18.1343L30.6059 18.1384L32.841 23.1126L32.8156 23.2074L30.6191 22.6189ZM37.0335 12.7755L36.2736 14.0736L30.6115 12.5339L31.3658 11.2569L37.0335 12.7755Z" fill="white"></path><rect x="3.12891" y="22.0459" width="51.2272" height="36.9508" rx="5.03874" fill="#1517D6"></rect><rect x="3.12891" y="22.0459" width="51.2272" height="36.9508" rx="5.03874" fill="url(#paint3_linear_210_3104)" style="mix-blend-mode:luminosity"></rect><rect x="7.82812" y="22.5459" width="46.0283" height="35.9508" rx="4.53874" fill="url(#paint4_linear_210_3104)" stroke="url(#paint5_linear_210_3104)"></rect><mask id="mask0_210_3104" style="mask-type:alpha" maskUnits="userSpaceOnUse" x="7" y="22" width="48" height="37"><rect x="7.8291" y="22.5459" width="46.0283" height="35.9508" rx="4.53874" fill="url(#paint6_linear_210_3104)" stroke="url(#paint7_linear_210_3104)"></rect></mask><g mask="url(#mask0_210_3104)"><rect x="7.61816" y="18.5342" width="44.0528" height="66.7971" transform="rotate(-30 7.61816 18.5342)" fill="url(#paint8_linear_210_3104)"></rect></g><rect x="35.8809" y="34.6428" width="20.9948" height="11.7571" rx="2.51937" fill="#1416D5"></rect><rect x="37.2207" y="35.1428" width="19.155" height="10.7571" rx="2.01937" fill="#1416D5" stroke="url(#paint9_linear_210_3104)"></rect><circle cx="42.5994" cy="40.5213" r="2.51937" fill="white"></circle><path opacity="0.5" d="M45.7613 10.5C45.5956 10.5 45.4613 10.3657 45.4613 10.2V5.55C45.4613 5.38431 45.5956 5.25 45.7613 5.25H46.4887C46.6544 5.25 46.7887 5.38431 46.7887 5.55V10.2C46.7887 10.3657 46.6544 10.5 46.4887 10.5H45.7613ZM43.8 8.53867C43.6343 8.53867 43.5 8.40435 43.5 8.23867V7.51133C43.5 7.34565 43.6343 7.21134 43.8 7.21134H48.45C48.6157 7.21134 48.75 7.34565 48.75 7.51134V8.23867C48.75 8.40435 48.6157 8.53867 48.45 8.53867H43.8Z" fill="white"></path><path opacity="0.5" d="M49.2708 6C49.1879 6 49.1208 5.93284 49.1208 5.85V3.15C49.1208 3.06716 49.1879 3 49.2708 3H49.7292C49.8121 3 49.8792 3.06716 49.8792 3.15V5.85C49.8792 5.93284 49.8121 6 49.7292 6H49.2708ZM48.15 4.87924C48.0672 4.87924 48 4.81208 48 4.72924V4.27076C48 4.18792 48.0672 4.12076 48.15 4.12076H50.85C50.9328 4.12076 51 4.18792 51 4.27076V4.72924C51 4.81208 50.9328 4.87924 50.85 4.87924H48.15Z" fill="white"></path><defs><linearGradient id="paint0_linear_210_3104" x1="23.9128" y1="0.986143" x2="27.2881" y2="26.3503" gradientUnits="userSpaceOnUse"><stop stop-color="white" stop-opacity="0.4"></stop><stop offset="0.158037" stop-opacity="0.5"></stop></linearGradient><linearGradient id="paint1_linear_210_3104" x1="29.6086" y1="1.53937" x2="31.6971" y2="26.9127" gradientUnits="userSpaceOnUse"><stop stop-color="white" stop-opacity="0.4"></stop><stop offset="0.940848" stop-opacity="0.5"></stop></linearGradient><linearGradient id="paint2_linear_210_3104" x1="22.3301" y1="26.0239" x2="41.9577" y2="9.75169" gradientUnits="userSpaceOnUse"><stop stop-color="#10CF84"></stop><stop offset="1" stop-color="#10CF84" stop-opacity="0"></stop></linearGradient><linearGradient id="paint3_linear_210_3104" x1="23.4802" y1="12.1636" x2="26.2509" y2="58.8321" gradientUnits="userSpaceOnUse"><stop stop-color="white" stop-opacity="0.4"></stop><stop offset="0.940848" stop-opacity="0.5"></stop></linearGradient><linearGradient id="paint4_linear_210_3104" x1="46.2048" y1="22.0459" x2="4.60425" y2="58.1869" gradientUnits="userSpaceOnUse"><stop stop-color="#5375FF"></stop><stop offset="1" stop-color="#0033FF"></stop></linearGradient><linearGradient id="paint5_linear_210_3104" x1="9.02794" y1="57.0519" x2="45.5934" y2="18.4699" gradientUnits="userSpaceOnUse"><stop stop-color="#10CF84"></stop><stop offset="1" stop-color="#10CF84" stop-opacity="0"></stop></linearGradient><linearGradient id="paint6_linear_210_3104" x1="46.2058" y1="22.0459" x2="4.60523" y2="58.1869" gradientUnits="userSpaceOnUse"><stop stop-color="#5375FF"></stop><stop offset="1" stop-color="#0033FF"></stop></linearGradient><linearGradient id="paint7_linear_210_3104" x1="9.02892" y1="57.0519" x2="45.5944" y2="18.4699" gradientUnits="userSpaceOnUse"><stop stop-color="#10CF84"></stop><stop offset="1" stop-color="#10CF84" stop-opacity="0"></stop></linearGradient><linearGradient id="paint8_linear_210_3104" x1="-54.5508" y1="-26.2905" x2="-1.05396" y2="61.9679" gradientUnits="userSpaceOnUse"><stop stop-color="white"></stop><stop offset="1" stop-color="white" stop-opacity="0"></stop></linearGradient><linearGradient id="paint9_linear_210_3104" x1="37.4492" y1="45.7811" x2="45.2507" y2="24.9393" gradientUnits="userSpaceOnUse"><stop stop-color="#10CF84"></stop><stop offset="1" stop-color="#10CF84" stop-opacity="0"></stop></linearGradient></defs></svg>