<svg xmlns="http://www.w3.org/2000/svg" width="128" height="128" viewBox="0 0 128 128" fill="none"><g clip-path="url(#clip0_3384_46073)"><path d="M64 128C99.3462 128 128 99.3462 128 64C128 28.6538 99.3462 0 64 0C28.6538 0 0 28.6538 0 64C0 99.3462 28.6538 128 64 128Z" fill="#EFF4F4"></path><path d="M94.7 28H107.2L81.1 53.9C71.8 63.2 56.3 63.2 47 53.9L20.8 28H33.3L53 47.7C58.9001 53.6 68.7 53.6 74.6 47.7L94.7 28Z" fill="#23292F"></path><path d="M33.1 99.9998H20.5L46.9 73.8998C56.2 64.5998 71.7 64.5998 81 73.8998L107.4 99.9998H94.9L74.9 80.2998C69 74.3998 59.2 74.3998 53.3 80.2998L33.1 99.9998Z" fill="#23292F"></path></g><defs><clipPath id="clip0_3384_46073"><rect x="1" y="1" width="126" height="126" rx="63" fill="white"></rect></clipPath></defs></svg>